<mxfile host="www.draw.io" modified="2019-11-06T05:17:52.706Z" agent="Mozilla/5.0 (Windows NT 10.0; Win64; x64) AppleWebKit/537.36 (KHTML, like Gecko) Chrome/78.0.3904.70 Safari/537.36" etag="bl_1w7Nne9rlNjxgsPjg" version="12.2.0" type="github" pages="2">
  <diagram id="TMcsxuAr5Mf_ETY17IFa" name="Feature Toggle">
    <mxGraphModel dx="854" dy="419" grid="1" gridSize="10" guides="1" tooltips="1" connect="1" arrows="1" fold="1" page="1" pageScale="1" pageWidth="850" pageHeight="1100" math="0" shadow="0">
      <root>
        <mxCell id="0"/>
        <mxCell id="1" parent="0"/>
        <mxCell id="UkXh3p3jf4EQIE3FmK1C-8" style="edgeStyle=orthogonalEdgeStyle;rounded=0;orthogonalLoop=1;jettySize=auto;html=1;exitX=1;exitY=0.5;exitDx=0;exitDy=0;entryX=0;entryY=0.5;entryDx=0;entryDy=0;" edge="1" parent="1" source="UkXh3p3jf4EQIE3FmK1C-1" target="UkXh3p3jf4EQIE3FmK1C-2">
          <mxGeometry relative="1" as="geometry">
            <Array as="points">
              <mxPoint x="310" y="244"/>
              <mxPoint x="310" y="159"/>
            </Array>
          </mxGeometry>
        </mxCell>
        <mxCell id="UkXh3p3jf4EQIE3FmK1C-10" style="edgeStyle=orthogonalEdgeStyle;rounded=0;orthogonalLoop=1;jettySize=auto;html=1;exitX=1;exitY=0.5;exitDx=0;exitDy=0;" edge="1" parent="1" source="UkXh3p3jf4EQIE3FmK1C-1" target="UkXh3p3jf4EQIE3FmK1C-3">
          <mxGeometry relative="1" as="geometry"/>
        </mxCell>
        <mxCell id="UkXh3p3jf4EQIE3FmK1C-11" style="edgeStyle=orthogonalEdgeStyle;rounded=0;orthogonalLoop=1;jettySize=auto;html=1;exitX=1;exitY=0.5;exitDx=0;exitDy=0;entryX=0;entryY=0.5;entryDx=0;entryDy=0;" edge="1" parent="1" source="UkXh3p3jf4EQIE3FmK1C-1" target="UkXh3p3jf4EQIE3FmK1C-5">
          <mxGeometry relative="1" as="geometry">
            <Array as="points">
              <mxPoint x="310" y="244"/>
              <mxPoint x="310" y="324"/>
            </Array>
          </mxGeometry>
        </mxCell>
        <mxCell id="UkXh3p3jf4EQIE3FmK1C-1" value="" style="shape=image;html=1;verticalAlign=top;verticalLabelPosition=bottom;labelBackgroundColor=#ffffff;imageAspect=0;aspect=fixed;image=https://cdn2.iconfinder.com/data/icons/seo-and-website/100/SEO_security_feature_website-128.png" vertex="1" parent="1">
          <mxGeometry x="140" y="199" width="90" height="90" as="geometry"/>
        </mxCell>
        <mxCell id="UkXh3p3jf4EQIE3FmK1C-9" style="edgeStyle=orthogonalEdgeStyle;rounded=0;orthogonalLoop=1;jettySize=auto;html=1;exitX=1;exitY=0.5;exitDx=0;exitDy=0;" edge="1" parent="1" source="UkXh3p3jf4EQIE3FmK1C-2" target="UkXh3p3jf4EQIE3FmK1C-4">
          <mxGeometry relative="1" as="geometry"/>
        </mxCell>
        <mxCell id="UkXh3p3jf4EQIE3FmK1C-2" value="" style="shape=image;verticalLabelPosition=bottom;labelBackgroundColor=#ffffff;verticalAlign=top;aspect=fixed;imageAspect=0;image=data:image/png,iVBORw0KGgoAAAANSUhEUgAAAQoAAACECAYAAABoBmXVAAAgAElEQVR4Aey9V9AlyXXf+a+qW/fez7af6bEYj5kBMXCEIQkqKBEkRYniLilRoY1VaN2bNvaVz/u+G7GKkDZWUsSGtPvAFcUQnUBKpAh6jCB4EIbjTc9M97j2/ZnrqjZ+J+//6+zC/Uz3DGYwYFf3/U7myXNOZqU5ddIXFy9ebCWpbVsVRYHzmgf8QZ+yLEPOfvS5zDzOHG8ZebhxQOPNg79pmpxkh+Ya5Pxdc5xlwY/bfsvOaXE7PMdDm7+/eU2L3+6cz+79wh2v5S6id5hlduFe8UNr/pzOuDy+brj9pu3Gu5vffLuF74ffK75ctunAuY5QVi4v4w4SXy4XevzIRwbyuuG5TOgcnqcpp9nLnfM7btP7HbryHe502r8I7sYLbW8Rg1+iG2ZBXbzpgXabxjxdvMPBm8a4vWBXTtdv3uuRmfPkfLgtHzeFkePMZ2ha+4HG5XLz8JzGtA7v8jh+wh0Gj93mux7YjbPLi+wbjWOvdCFzv7gXpSXHOW057qBu4iY/nYa90mqZOa3dQHj3UxKWsRe0rL1oCOvGndMvknGQd8vl5vJww3+NonACuoT7+REE7yL+RbiuPGgO+jJdXvuvR8ZucS3C57jd3E5DDqH1u+d8OY3dOa1xQPMb53e0PIfvhjefoent70LLXYR3HHnYXvJ2kwX/bnzm2S08j9vuRTzG5TTI5JeH7fUVzumcHnA53vKBtk5yXNe9G29O57jAmT7H2W2Y0+VueKGxDPsdV9dv/G5wR1FcL6MFdhOc+6HJ5eLmWURj2iD4Pvzj9/A77JZEhy96xy4OGYtwu8nu0ue8uB23YVdOTt8N28+/SGaOy91dWXvFu4ivi9uLvxtXl9fh4LtyurSEG9eltRxDyzM9+C6PaXIeu28U5jJx5/Hnbsv3O+VpMx0wx+fKLsfjDkWBAyYLcCQ3AvPILc/Q8hbROGw/mPPmtN048rDd3ObJMyWndb4Yh7+LcxjQ8ozrpnW3eMy3X7jl7kbn8IPA/eJcJKP7PqaxLPsPCrt8Xb/f03j8dudxLKLLw81j6DD74edHQ7mexw3L/F1ep2s3vOPvhnfx9lsefuOAxnfl2E+46cHtRW95hpbRy5lydy7YxG8XzOPB3Y0rD98rbL/05HKg3U/WbmmBrytrt7hzulxejt+Ndz+802FZ3ffZi988XRrLNL5Ll8fhMEOH2W+ILId13fhNZ+i4DwLhyWV3eRbJzHG78e4n1/FYVldOzp+Hmb7Ljz8Py3lMux+8EZ7dZJIW/3Iax7FjUeSBuPOXcBg4MxqXQ/MY5mF7uU1vaFri6uIctgjuR7tX+F5x7cXXTQe0pt9LZpdvL7/lAZHJz49x+E3nsL3gItrrwe33bpbVTWueJtPkuL3c0Dtey7UMQ/Pbbzrw5rfbNObpjlkYn0PzOB34c7mLaHMc7t3oTec47F8EF8W7G1+eB11ZOU/uNh04+He1KExomGfMXhFDvyhC8ObbLXw3vPn2ku10LoK7yTWt383yd4tvPznmz+ksG9x+pq358vidRssGWo7pgY4np9/NvZv8PA7z5rSOz3QOA8+vqiqz7dQB85gGAvPtEM8dezVU8yDH7i7/In9O7zTAbzc8+I3DT5jxdgci+2N+4G78Js9l5G7CzW/a/aD5DU2f+0lP98nfz2E5j3HARfidwUwCqYCeMvLL54w5bi/Bu9EtkuVEweOKAh1+05vGDWS3cHigNX0I6PzJ02ZaYI43S1dOHr/DnE54SD80zkfLWSTbYUDLwg2t/TkfOMfvcEPLwO/0GOY0e8WZhzkdlpv7jXPagMThX07ruE1L2F6P02zYpc3xlm0ILeGuQ6Z1ulwu0IFzuOMwzpBwuw1NawiN5UDDz4/xpnG48aa13+mG3zjLAkLPO1iOcaYxTx4Ojh845Jumy5vLWMRP+I6isECQjqArMI/IwhF8o8/18uYvsShOy8vfJadz+k1naJqu3/QO3w+aviuny9cNN5/p8EPTpev6F/EhYxFvLhu34zB9VxYyujjz5PhumizP8dkPT86Xh9u9SJbDuvCgtE7zQeihWUTntOeNzXR+J/udTvyO27iDQvN26btxOG7o9uPJabty7beyymkdZwzzOsBI/F2chRlCa3pwpnd4F3bpHW58LsthwFzuIppFuC6f5VkWPM6U3WjNswjCjyx+i+I/KG6RbKcnT+tudF28eQzzcHCL8KbZL83mzaF5gF03/jxOhzu+G4GOx7Is39B4ZNvdhdcb7/XwO28ch3ntvx7Y5UU2OOP9zobIJsz+Lv1B4l4k23w9BDoS4F7+bpiFGL+b3wlwOHARrhtuuYbXw4Ms+Lo8+BfhTN9NQ+5fJI9w5BHWDce/6NkNb9pu+oxfxLcbrXmAi/jy8IPSLIrLuIPEYdpu3Pv5D8rXpcv9B0lfl8b8hvul0/mY0+Puyj2IHGj24u2GEUcebx5HlzYPy93ddObyvmvWoyvUCeji8wjeqttx7CdnN7r8hbrpzHlMB47HEHyXb7+0XE+4492PJ09rnr79+BzueJDjd3MYMA+3G/wi2pwv5z0IPbIPIrMbxyJ/ns5F4V1cHq+tRuO6sozvysBv2ut5F+SZzzL3isM0B4WW5TgMjT+oHPPl9LmMPNz4nTGKnMmEEJnQ4Q6zvxve9XfpzWeY09ttHqBxpt8PLqI3znKRYZzl4c/DF9GY9iDQ8nOZuXuRjDwN5s/pcn6HG0KX96Hx5/JyOQdxW24eJ27juzLAdxumaZyO3XhNl8dl3I1Ax3cjvPDk74ks//x+u8ntpn+/991NjvFdfvzdOEz7VqDjyeXneYDs0oicyJE6UYR1w40zLRDcfs8ivi7PQeTkPKY3JN3+5XS48/hNk+O69Iv8zhfCcvciWuOcNvt3g106p3E3+hxvXqfJcBGNafOwvdyLZC1KG3L9Q575rje+nHevdOVhjsPpws9MAdDpyOl3c1uO4W50i/DXE88ifuO6cfudHG6Y0+E2ndPhcPvNtwjmNOYz3Y5FkQc4Qohgxp/jcloLMp397zRclKY8Dd3wPFOg64aDOwhNHofduaw8X8B3ZS7igc60pjfO9IYOxw8ND7gc7zCHB1H2B1rH16XN5TgNOS30OU0m9ho8PPt9kXPeG3E7XaSHX64k8BO+19MN93sZ7sVL2F50e4V15XbT4fBcxm40pgUehCanRz48OZ/jLC5cuNDakzPt57awnNcR7cabzwPnCYKPSkS4n1yucTns8i+Key8ZTr9lQpunz3igaS3voP5cBm7zd/G5fy/Z8Dvc0Ly57G7YIhrjgKbPZewWbto83DJ2UwQ5Tx6H8cbt5ke+aRyv60oeZ85vt3nhB5fjLet6YTctlkla7DbMZXf5HGbatxqOvFxGV679XTr8edii8GtWZkLQfXIBeSK6dPhz2txtPkOH2d/lXSQ7xy3iz8PtNp39QMcJzMNxOyx3myenzely2TlNjrd7v3DLNX0XWpGB76Y/D8v59pK5X3pyOXZbXpfXeNMtgqYxr/2mXeSH1vjcbZx5HQbk58d0xuG32zRvF8zlLoonD3+74kSO37Erczd8l84y9krfwq7HIkHXg+tGiJ9EO+HdcGSbphtPTgs//px2L5kOs8xFvLvJh8dfK/OB68q0bKfN/u8V7L57nrb94szfdT/avcKdB7k84/biIyznyWnBW0buNi6nxb0b3nEQvhdNV95B/JbXfYccb7fTaFqg61M3LtN08fjzsNydx9PlM11OY1yX9qD+HUUBA4IPIjCnwZ0naJGcbnieuIPG2eVxPMbvFYdpujw5PndbVv6exuV0Xfd+NIvk5biuvK5/kfwcl7st1xBZDs9x3TgO4t+NH7zjOIicRTSWncsyLqc3blF8xuUyct48PMe/VbflLpJzo2GLZIHb7d3A7xa2m6wuvptW5F2jKGDoEnWFHNS/SA4R5nFc70st4s/l7Ze2PE2WZR7CjMvp8nDcpsGd04HP/ebL4aJwcJaZyzDOPHmYZXZpclmmWQQtsxu2VxymdZz2O07jF8kwrWkcf+43zrSL4F40TodpLHuv9HRpF8V5IzjHnfM6fTmu63Z6jF8kx2H7QfM63r3yYT9ZhO+szDwIMTROQE7vRDhRedhB3Qfl7WZmLj9Pm+kW4XIe3Kbt4s27W3iXPvebN8e9Xe6ubPyk0XhD4rvetFvWXmk1zW6yHb6XjG6Y059D0yyKx++4KAw+y7GMvaBlWOZetDcSZvk5b45bFO8iXM6Pu0uTy+zS7hWW03bpHMeORbEbwV5C8jDcFmo8/lyu3aaz37zG43eYoWks2zTw5HwOX4RzWM6LG1ri4deVt1f8XXmL/Pulw/ED87hyWXbvJcvvYNq3Ay6KL0+j4zQup3fYonTkdA7PcZZHWC4nd+c0XTr7Lfvtgk7joriJA7xpFsXZ5TNNF7+bjJzuIDRd+bvxdOnsz2FYFE7AfoL2CidskRzzEMbPfifCuC7e4TnM5dud8+c48+Vy7c7pjAMab7f9yDIdbuONs99x5jAPM30efr1uywNanqHDLBO8w4w7CISnKyvnc5jl4+e3X1ymsXzLQXbOa7xxpl+Uhhxnt/ksx/Jzv2nfTrgoXsd9kHhIn2UchH43mkXv+VZlxzoKR5hHkCc4x5v2IDCXsYi+K/d66Lu03YxweB5HTmP8Ijqn1WH2m8f+64XIswzL9ki4/XvJzPlzuq7MPAy3Zc9ms51FSODhM695oHU8hNlvOV168xlv6Dgd3vUbn0Pz5rjcTbjlGBJuvr2miKHxwTqmz2Ugp1sWDofePE4Pfocb5mkxznz25zSWlYcZtxu0PMLhsz93OwyYh1tmF5f7czf05Amyd7oeXeEw+AUMLcQRdqHpcjw48xl2w3P/Qdx5PJYJzPH7yclp7bas3XhNt1v4jeBzmbl7N1ldmv3eO6f3IiVk+13zcPC5H3fuN8+iOE1rmm76Cd8tzLR5XMYBzZeHG7eIrovrps28htCbxvHh74ZbkeTyTW8Z3bDr8efxLeLL35/wLn03zdB0eSx3N7zDu/JjwRVMZswjx238XpHmwrtuyzPsht+If5Esp9NpzmmMy+NyOHx25+G4d8N36W7Ev1eakJe/j+UbZ/9B0mcaePmi4s/jzmXSEEzvOAxzfO42v3GGXT7oTOswQ/PsFm66PDznMR6LyW7zLKKDxnjTGYL3D1wuD7f9htDsJssy321I+kivodN+kHSbdseisJD8pUyU4/Zy7xUxYYu+aDnPfvERDr158Oc/m0mk0bKgtdswD/f75HSW77AcOsyyuv6cdi+3+Q2hXSSLcOMtr+s3fj8IX64MLDuHTge04B2WywbnJ0+L3eY1jaHD7T8odHzmNzR/12880Ly4c4ug+17IcP3MeXJZuBfFZRx8e/F2ZXX9b4W3K8t+p83Q+C7sxt2lv2YwM2dexNjF5fS4Ce9GYJr9eKHbjbcroysLvpw3D8/TlLstM+czLufP05X3gU1jfvstYxE07aKwg+BulN9pg99u4svd3fgXheW4RWkh3HHktLj55Q11v/i76cnpLQ9cng7wXb/lgM/TZhk5Po8jd3dp7LdsZO327BVmHqfL/u9HuGNRkDgSvOgx3rBLk2dG7oYOv/kMc/6cflF4Tmt5htCbxzCPL+clPG/oDjOf/XtBaLv0uT937ybH72varh8+h+0mw/gunWU53LBLB34RbU5ntxu3/ZYJzHHIw5/jTLsI1+U37V7QaTaE1vHmfMRnvKFx+PmZN+fzuzrM6Qby6/V6AS3TdIbwW7Z5LR9/brF0w033VqHj300O8Zomfw/oHZanzTS7bgrLiR1pjnNkjgBooXab73sB87Tk8ZGGbjpMm6fZ7jzM7htNr2WavyuP8C6NafN3yHG527yWa39O03XnNPThecBZhiF4KrLpc3xOn8s3bVem/UDkmM5wNxl5nDmN3Q43NB4Izul3PF1ovi60nEUfEsKQwy9XJObJZZkuD3MajNsNWs5u4eAPKmsvGYQ5rjy9xpkXv+MDhkVhhIXkTHmYhZjOftPkGemIclkq55q8TceOFxgwYcQ0SVQxh7q63dxxGLatK3mideUA8hg63jxtuHN815+nH1nmddzXAx1PzoM8x+nw3O+05zy5u1QhFY3aef60ZGcb2CBr26QIpGvz0e/h6UH7nQaYwfmLmKfJYUDTd/nxG2c6+3Meu6HpPtB38980lgW0DEOHQZun37xA0xhCl/ODdxh4h+W8uBfhjTO0HL+L/YQbl6ft7Xbn6cCd+0mL/dcbbyiKgwiEZlFEzggittuJAVL5gbM2mWVtU1DXVbVVVPe2baQCuqjzQddEXBXoeIp5xe+VQxVFNZc5i4yfTseaTCeaNZPwExf86ZnfgzDvQlrePPA9BUh7D61aNJoVpWZq1aDn5/kY71bMVGhKk9l5fxRJW8wthWamouLuFqkoS02n052ZkCi7eRkXbWpIjeYWSJXuKkEP5WVrtzPS5W//9xvspjdP39uR9lxRIY8fypkuCz/c4GgTQCy8yWQSeUoYeHCkk3CnF7fpSTNuf1RyeuPgM6/pgTnO725aIHL94HYY7p0xCgeY8CAwF+xEgMtl5XheipcpCyorlbpMmUf1pqHTyKnkbSlVzTxjUShJ5ubmtja3t7S1sant8UjT8USjybbG43FUesdLnHx3aTx8dSNOFNbMDeggb/f9RcO7lHMF0BTJEOOO6aYoVYZpIRXRsJu5skjpx/pAUZCnVSnNJlNh2aEwyC+URYFVYosCXRQVMcFZOw2ayWyqZpoqE+F+/HUmz11RHXa90HXFfHk84Bx+ULzlGJrf/i7cL/x63o808nPdA6IMlpeXtbq6qpWVlR0InrZBPc55SA9+IPmMsnF+A3lMj9vpB5c/xhvncOPtt4zcv8Nz/vz5a064MlFXCH7CjEeAaR2BcaYzbaJrRKXjFfCXqoR1QfUvQzGgPKjErapeOu1qMp3pypVtXTq/qc3NDV2+cjYUSovpiAS+lFVPdV2rV/Ujs0M25kmF5M6UGI3AxoZz4B2EKR+uFqij3g3vcCC6YDrvkfWwCEJpNIEnL5p4257KtlFVzAI2RTvnQ7OUKqeKPCsraTQeq1cngVXRiy9bVQ7Ifs1mbfgnk5GKslVdV6r6tYZLK1HZ+/2+BoNB5Dt578bgypun+/vJ7froNDnfd/Mbb9jlN96wG+7GPxqNIj83Nja0vb0tQ/JtbW1NR48e1fr6uo4fPx75i5VBXpK3KHL8KAnk2fJwnLwD8eZxd98rD4OvG25ZprNM4/EX586d+66m0xVkAXkku+FyXtMkXBOVLiLf0Ya9UBZtmxYCLS0vazrb1ubWJV24cF7nz1/QlcvbamaYZYXqwUy9fqm6HoQ1giqIOMpedEl6vX74aSw8hPEr59pdjfvwEfye+oPlMEEBFo36MxTFVHRAeNMGayCMQxQFuhZNMlUb4xmKrkoo5GlSlNHNE9YdSsGLlEptbY5St6SotNQfRCVeX1/V6sqK6kFPvcGAiG8+byEHaPj8tra2dO7cOb3++uu6cOFCWBMo31tuuUW33nprWBwoEh7XY9y0JfuB+P2zok7t7Woiocsfhxvf5c9pcUc4FoUDckbjgMbvMC1ILC8FXZfWcsDvVEwpNKNlF2WyCt44+2Zk2tmzZzXeHoVGXRosq1/1xFeQ7kjZo7GkO1I1tyYKVck0K9L0FdZKNb8DlIajJn1ZGxrOe7Wix1hDSnzJYEGRxiLifVp6kGV0IeIFw5LA6kKJlKrmlluFYYEZO52ogEaz+Le1taHxdKLBcFmrh9Z17OgJrS2vqVcWCp0TBU+Nmf86dSIvY7vfi9ANc7e0uyHuFp63AbcDN0J43EBxOxyIlbG5uakXXnhBp0+fDkVy4sSJUBgnT54M6+3KlSvRZkiDeYnPMoGL0udwx2m/Zfhd9sMXuaKwMGCXET/CgXbjz3Hm7+KMd0HQT6YaLy8Pw6RCQbz88mmdP39eVVlrOBhE5vR7tdALvbJS2Ss0baeq6p6KKhneRb9Uf1ir10+DRKPpOA1qIp85bcYo5mkENtWOTiRJ77Fn3kWLVGMaxGhO+MpQFFgLjEeAauRxjOiAzYdmJrOJyFPRtdia6fK5S+pXtY4ePqYTt96iQ0eO7OQJypfv2VxcDIrMqKTzmSnXjx2GrM7kuPeSe1FDy9Pv+pvjcrets7wBu/5Bl7cbaHJ5bjN0M1555RU9++yzunjxYlh1d911l26//fYdfisLt0X7kYec7tMtK9M4zjzcYU6vZe10PUxswt38MJrGQgzhcdgi/qjIbRuNux70dfbCWT3/wgu6eP6SyrKn9ZVV9aoqKnNdVvOuShqvKHqVevUglEJvUGlUbOn8lbN65ewpvfLmy7qw+abOvPmyNieb2ti+pO3xVpjVGOculP0qgt/j+xFGl6IpQhHMwkyii1GEMizamA/ZacQokQKlnoypNEtSNqqXSm1c3tTGa9s61r9Nn/nkz+oXPvN3dcfRu9XOClUMcsZAaaOmnaqZzaK3FtYZ1lpojZQ73fKl3I37fsy/g6Rpv/S7bu8mi/EDaNxwTU/9Q7bDcJvWyiUfg0A+eD6c3/72t/Xaa6/p0KFDevTRR6NLQhfFYxeu244rT9tu75O3A2j8Q0YuJ+e/LosCxvxl8wiI/BrB85FXR8zAI4Pyw+FQm5MtvfzqGZ1+9YzGs3GYuavLK6raUr2yjq4GpnFTzaR+o+FyrXq51uXtK3rx9It64pnv6NmXntTLb76oVy+d0cbkvCbVturVUk1vEt2TsmagM2UbXQ7aFlOrPJ4Nebegu0KOn1mdaITzLpLxOSTdFUOYBWMO6b0YBCbPinkLnpWzUBZMb4aiYJAYxR5/e7p4bkP1bFkff/jT+qWf+gf69H2f0UArKmeV6pLxIgZ/p2qKSXBRCcOmmK97CeskRX3z74IccF13OzA0KeHGub2Qx+BRDAwSowBQIqYj7MyZM3riiScCPvjgg7rvvvuiHWF98EDrxo/bvI4X6LiB/MyX0+dhDg9C4vCsBwwW5kDgIlwe3nWTYF7UCSc8EtNKa0vDGMB56oUXdP7yJQ1WlzUc9rVU91Srp54q9aslVXWtSTvT0vG+ytWpvvnCV/UXz35FX/rL/6JTrz+vs5fOammlp/Vb1jRYrTRY62m41ldvwOA+awWuTkuluFPLSpOmyZwmq8C+l2A04KoU06IxdoBibUN9qGjpjkyje1bWzAC1oktSzBqV05kuvzzS+9c/pb/1o7+kj97xSfW1pJ6G6rV9xdKLmEpGSTAIypgO/ZVSRcN6ljSL7m5Ht8xv+t/eHKDO8kTdzRr+888/r6985SvRvh577LGYJYEGJcOD0sEyYZqVdmsllBT+tT2BRe0anOMNR/bnQIpiN+ZMTjhRDkzpoOmcSJtYw/5Ap0+9pJdeekmj2VSHjx9VwWKUutTKcCkGLxmbmM5mWlpfVm+t1Fee/aJ+7/HP6lsvflUvXXhGw1t7OnTrso7dckxLK32Vg1L1sFTZZ6h/pjQdiGWTNDeDmjzpu3p1GVI33e8FfzTSClVHgaPU05Qn3YxeW6hsZur1SsU4DVZHW2mpWNbo/FjNm1P9rY/9gn72nn+oNd2qUnUseKtQEhOpHc9U1MwnTzUrp2rKFA+qFKvFiiLl03zA472Qae/hNFpJ8ApWHLQv2tZXv/pVPfPMM3rkkUf00EMPRZtjQBQlQTgQHho+P6wU2qUfKwRD43PoOMFB97YqCgTyQ0nwUk4wkT3//It69czrqns9HTt2KGYxekUZ5tZ42sQioHq11vrJVX396cf163/4a/ry04/rUnNOx+4+qlvuOaylQ1K92qo/GKiNytzG2ix6FCxfLubLx/ySmN/xkm1SErEqMc+N95gbhTez6Vgqdc3okkRjLqWxYrC3rWeajQtdfHlLJ/Q+/dIn/nt9bP3HNNRhbDa100ZVU6qPomARGl+wQRH4WdmIX/q2OINQFknhAm8+70wOuB4TG25bBigDPrhf+tKXdPjwYX34wx+OsQumXBm/wMJwVwbe3OKgPeRP15+H5e4dRXENcm76gMsF5QnP6e2ORpl1YdBiKIxvfetbunJlU8sr61pZWdawLtVMx9HPoglPi1Yn77tNT7/2pH71P/6/+oOv/LY2q/M6+eBR3XrvMfVWhhqslmp7m2qKcWQY3RMa/nS+NqKs04IUvrxOZ6rUV6eTYoWiE/seg7wLjZs8ZvYG5cjYS8x9NGlGpFKtyfYkVmZtn210//oP6b/7xD/WST2iJa3HuAWLq3qMiaAgPK7UpuXcDBhjqKQxEBSIrQfGeObTr++xfHsvJTdva6Tb9djvgB8aPsA8rL/44z/+47AYPvWpT0VX5PLly9E18cc6h5bflWv5Drc/hwsVBQS5MAvIcbkQu+lmeDCGBLIijUEY4HB5ScPlZbEoqi5SX2p7e1NHbjmkYmWi3/n8b+pX/tO/0muTF3T0gVXd+f7j6q9V6i2xRr6nmZganapgP0NRxZ6Q+MaReWw2Y86fRrQzfZdrzuTeqfdO8HsIMrPbm6UFV7NQEoWKWRplZ99HKNzZWCta16Vnp/rU3T+l//axf6xah7SiI2omDEKM1DapW+j8Ym6EGaedrsy8o8YENIOiJQMYaKmWgVTGR9yRew9l3g9IUml//mEluKvxZ3/2ZzH295GPfESsu6AN8oGmPborgt/t17CbLXu181AUMJgoZ7ZAh9mf0+Ru6LAigLwIlgQLSVhtRqJZA8GDW71C68eXdebSS/o3//Ff6/e+9FtaurPV3R+6Vf1jrZqliYbL/VgUFP0LxhoqFJhHjlkzkAZ92HBGfKE92WAZeH8N0/JnuiGxJ2Je6V353yuQN+3NF5Y2TCAxLjEfZERJsKx9ttVq8+Wp/uajf1+/cP8/0qpuVzVeioVu0xndiZFKlsgz2Kw2rLEZXQpWtrKkPmSmQV6yKe0tYe9I6iKONU4AACAASURBVIrcVBR5bX/n3VYONHpmSHhQCtT3P//zP49ZkY9//OPR3lAQPLQJwt2GA9n50w1b1M6vURRdgWawIPs78ex4eQG0nJUEkHXswJWl1WS+9gpNeiOt37Gsrz3/Rf1fv/J/6MUrT+qOR0/o+L1rqtalaTVSvVKpqlpNpiP1epXquq/JlP0i7BPhScrBmrPfT/FSvVN6v/vLx/cwzGmmDTEv3kOQLhWWA9ZU1fQ0YyqV12CGYjJWsVFr9kqln/6hX9DP3fvfaFm3qG6GKtXTZLoZxldZDFLONU3qss03KpEX7XQW+28gQEnwzGddd6DxKfTm33c6B2h/tCV3J6jnLDfgoR08/vjjoSw++tGPhrLgI720tBTKhA84vIue/do34TuKgohIgJkQaMVgHJUyalzEljfE9PWmsTI185fffkIbW5s6euxEaD4m8Aa9OpZVT3sTLd9e6/e/8ln9y9/8p9oYnNW9H75DKyf76q1WGpdbWl5dUtNONJ1uq+73xKqfaawxSF8+p40NS+Fu0uANC4NsfeyezquWRjC/y39ojAdpgCiKKetBWIjWDKJitGz+mhWaXp6qPDvUzzzw9/Q37/vFmNmotaLZBGU6Ud1LllczX+pNrlG2/KazceRAHdvPsR7Sk3I2rfRMG87I0bTa9V3Osr+S0VNWtMNcSfijTIZ4VoNuCAu0PvGJT4SyYHUnyoR26bENt+u9MtJt3jQ7ioIAJ2YncG7aJ6a0fBcztZkWKmOKAQ03Vd0rVZSz2GX4ta99TdNRo+XVdZVLSzHLsVb2NZtsqVztqX+81G98/lf0f3/2n2n4vkJ3fPCE+kf76g0LVQMG06aprc/3MmAFeEHRjfWPv1uh+f3eSZiUwdW0xHQnX4L5YrCUlhQObRTmfFAl5T9dhYmKqlYTC6DSqsx6NND5Zzf0mff/vP7h+/9nLetYLA5BsaaBzlZ1y2axMmZMfHjQond3HSDMbiomXbuwFmPDTeIk3DRgXPnA2e/6BC94ZN183t4ccL4j1ZMHn/vc52L596c//enYys5uVVseLh/KhC4oXRe6Mfj57fbslJwjBPpnph0/yiT6tKki0SVg7QODlSTyySef0Hg8CnOHDUZLA/rHpWbNSL3VnpZurfU7X/h3+pe//k916P6+7vzQMfVPSNXaTFpiWo4FP8RKgvmlQbTQHPNVhk7TwaFl7Z4JB5d145Q245Fgd3pXlEX65dIpULbhu2AJ4yyD6Xisku7GrFEzanTx9IY+dseP6+++/x9poCOqZkO1zXyeOASy3oIDbnppLCKb0crjw80Xh/JyXcBUjb5u06pmQHk+7eYKZTp4I71z5QEdFRBeaJHpr1k3zpv+ty8HyG/yGgXBNOmXv/zlKId8ytSxUV7Q8qOsduuWmH5HUYDIK6UJruJYaJwO2CAMC6JtxprNRlpaXdGZ19/QhUvJzBmurkTFoKPQZ0ZiSVq+o9avP/4r+mf/7n/T8UdWdfdjt2n5eE/9VcX5EywdLrnNKTo3acm1EwdM03NO1XsVLlJa8XbzLt21bqZzsaLSr9ClK1taW13XZLPRoF3S1sVWJ5fv1z/42P+kQzoZmTIuxmmtRVNJMywJlEaZNonNd48uyj0aPRWNHxWHB+XPjy8P9QBIgwdSwawoUAZUNPyE8YXiBy04hy+K9ybureXA1fZ51apjXIKuB+sqmFDgoRygBdptP3CRIjctsITIPwTi9mO3IXPwcRoSfVU1Gk+2Yz5/a7yl5089r16v1ur6elQuIu6XlabNSIfft6rPfum39M9/45/o+A+t6o4PHlN5eKLeKgNyE02m2xrUVXwp075Qp+CvLrTVkcZaaOil+vWyNjZGGtYDjS5MVF84pL//Y/+jbtH7VEz6Yvc5CjeVZ1pV6dWp5KTLMc9VVwZwNH4UA42cBu8GjhLAzYPbCgU3MqGFz1aEw83jL1ce703325cDqbzTTCNlwI8zLRjUZBfqm2++GcrB5Qd0+bpOuB7kME9hbqMG3oQIwG1IIP70JfHRXKWqutTTT32bOQgtrxxSWfSDruoV2t7c0vH3HdVXnn9c/+I3/4mW7i904gPr0qGx2uFE27NtDVfSOZh0aa6qqJREqibf2KiifA090pa/wXvI7XEJJxkrKT1zOPdHPswzg25JFCZ7OsiAttK4nWrr/Ex/79H/QY/pk+o1K6qrocbTUQxGJjoGItkFenVkh/JLk59OwbXKg3ho3P5RmfylQSng58fjugEtYTzu60Z6A3MtXYp/HnATXHcOOP+6+ZsLojwoB8qEzWOcb8G4Id0RLA3w0FhRuBwZ7HTZ5vLsLiH0D6QrC9AJstvrFVj2Cw+LqEjIlUuXtL66puFwWWWVjkbjGLW140s6P3ld/+f/979ra+Wi7nrsFpWHpqrWWjX9Rv2lvra3x+qVPU1Zxh3nO6ak5f33aB/vcSXhDD8wpJF33pkvda+tdenVLT147AP66Xv+jtbao+q3SxqP0owECreKo/KuqgQ2k7XiENdkAbiMrRDc2IE8WAcMftG3dYWiInF4Cj8GxzBrSQ+yqJjQwu+6YtlUTHB8YG4+bz0HyMv8cX4DaZM8TIvy4GcRFhbGU089FeVAeVIm4IA8VhC5rK77mns9CNzrYXqUkfdYBtyrdfnKtl46fUaHVte13KeiTDUcLsXIXG84U+9Iq3/9b/+Fnr30Hd3/6Ts1PFprNpzESH+cSjWZaVgtqWHFIU+YDGXsNdiZp8Pc5aXnew32St/3e1hq+POFX/N3SjZTSrktjmRBsc7j2i9+1S81vjjR4MK6fu7Hf0mrWlc16WmSlVusqFSjikVoKN4SaewIJX+Z/r5W++QfCRo8dYDB6UuXLsVqP5YJ4+dBMVgZULlQKD4sFsiqQPAoBeRQGa18vt/L5gchfTR88p8ypax4OMiX5d2f//znd07MomxcLrgpLyxH4xblRXQ9IOYhArvtN1MIVxECWRFJgs6cflkcyMopSYyKY01wfH6lgVaPrej3v/Jr+p0v/Vvd9YkTWrt1oJYzL3tUoka9sGTYxswhub3Y70Ed9hJsdoLypKUSP4hfI95p0XvNzYEoABo52qIMyvH2RJfPjPW3H/0HerT6SHRDqBwcMHzNU0xVsi8kui2K9RcsquoVAxWZmUJ5U0lcuTiC8NVXX43f9vb2TgVCgfDzFJvrCVYGh6u88cYbUW+efPJJcYTbHXfcEQvtPNpuhXHTqrimlN52D/lLXlNWNPqoG0UhTsiiXBivOHLkSCh4ypAfNFYWeyUoapgLHkLcPESEAAvcEcKxdFWri5cv6Ny5C1pdXdPKoK+KiBnY6lfqD5f16sbL+tU/+VdaumeqI/esqFxuVbJJrJipiqXCDIim/q7v4fA2cSr1fC1VWoz0A2BN7ORfmErz3ZihCxmoTCY/XQNOvN4ap+lmyoBrDXpFT82o1ejiVLcP79ZnHvo5LeloKBoWsDVjFHBfbOfo15Vmo4lmLfnMIcTMUGFnlPGVGdTDgFQqLALKF6uBbcss1KGSYR1QoXCjRPx060N8POZjGrgxeVE2L7/8cvBzyArL94kHq4S4qMjE7UoNjq+Z8Y7rJvzuHCCP93rcVslLHujJWyBdENZXcAgOYxf5hwB6aOD3k7tDTh6QE5vQMCJuCnFy1FRjvX7ubJxlSaMvil6cdD1gZWY7Uv+Q9Ju//W/00uZTuuejx1UfKjUpJmzv2HmsJECEgoiQtGMRhcOT7qu4umsxWc2pUQXBe/RPMpa6FgXv1Wg8xnxM955wtmVd1nGfRjXpqzhf6KMPf1pHdFI14xJRwCybZ5McVyFUmoxZ4luoV1RqWffAZT4s9WaqetDX1sZWDGpRgRhnYLsyB6LQcO+8885QDITZyiCLqRf+4XedAMJHGA8WB0oGPysCv/CFL4R18YEPfCDiRFmYnsqJIsIq4Ycy2cv0jQhu/tkzB/xxJ495KAcsBsoTxc9MCOdxAv0BgIZwynK3/I9yzmOGiZ8fVwj7CSOC7fFIZ8+f03BQq0+l4lCMso5FPUtrQ33z5cf1p9/59zp6/4qGx/saFyP1l+pYdckpTIx18BX1Lx2WwopMLqNJo/Tslowdk9wqxnEV7/KdHM6DtwatHBZ1OeZdv3K+kSf0RpEO2560ai4VOjF5n370/p+M4+smHHE1q1TMyHtWYc7iGMF2xrqLnlAbMUpB1yLODxtqMprGoCMVgy7DN77xjTBHOY/x7rvvjkZOYyech/J25cNPfcjrhP3UCX5USvrEKIBjx47FlwsLg2XFVFDwlkMcfNXoniDHX8EguPnnhnKAfLSScDmRr5QhiviBBx6IsSe6iuS/y9dlgt+/PAHgFtfY7KuRM/hrcOHy5agUHGPX79fq1Sy9brXF+MRaqf/0ld/Sxd5pnXzguKphFVYIlTb2ZpTzY9Ywt+P4/PQlTQN5SUnFwGUcHHvVmsjT8YPk3ul2zDd9UYA0OB66HLNJq2JaaXR+pg/f+SO6Ww/HyXUTzuHgqLuW9Q7zHInzf6pYoBVLuOe3pKFQuOWL7gkNk0bLoSdYFJihdA9csVx5XGFc+VAElD/+nJaYoeWxsqBSohSICyuFS26++c1v6umnn95RVFRg3jVmcuaKaf4WN8EN5oDLxmVopYHFRp3iJG82aTJTiR9603atCZe/y3ZnFAyEIyKdeWUwMf3f7dFIF968pOXBWhR0WaWj52joS8eX9c1TX9JXT/2ZDt/TV9EvVFb92F4+mW2r6LHzE9NgvmYizjhIkx3U9avX7TLLMTefgnZ+/Hx0XXbVbTeYve8km1t0ijMbVwwE+Zw2dGMGlqEoek2h0eZISzqsjz/wafW1FuslokwYtCz6aqZcF1hqMhur5Msu7uzgmoOepjPu8ZgGvq57MX7AoCOmKF99ugNUEsrbFYvEuMydO/hdP+x2mKGVHPJc8Zi7R3Hwe+6550Lu+9///rAgkIeiIMwfIcu6Ca8/B8hzlLXznvIgX1EKKGYU97333htH6XH5EF0Q8t9t3XBRzNHqXCm6FcX4VEHodhTauHxJk82plgerO/KgK/uNivWp/uQvPqezk9d1/O4jqobp68gHp6oGV82XGI6n1RO9d3zmkOPn09JlTluaVI2mMc23E+V71uFB2vwF0mwPp4ZTqBR2HcfkNxMWWdXavDzRbcfv1p2H7+XsGdV0JeLczFmsZmV3btHQkGdSxSh22oocS8BjnUNPS8Nap0+/El91rq+ju0HloatAheKhHP1LZX6t9bAoLKfjywWNLQo3fvxYFVgujIfYsiBOwqjIrtx5vtx0X18OOA+d7+Qr5eEyonxuu+22UBi2KmxZwAvtogf8zqxHTmDhOY7Im9lYly9diC3j/bKOY/GL2Pbcqr9U6skzX9d3znxN67cdVb3Cfo+wfeOrx7RpyTRejPCnUf8YnOSuS/oakUYOv6TGcppS+ioyfhFnOLIde0Z3/L1rUSxSEt08nk3TZjDOkWgm0mxrpmZU6qEPPqyhhnHMHTd+cfoUMyJxUCY3pXEEIIM57LaNtS59NXTfqlLc+XPh4tkdJUGjRTlQORgniIqQzaO7YgF5XIGgNy5Pt910N6BBAUFHnbESIIzxDxQDMywoKNZdUHnhgfbm89ZyIM9D8p9yc1sGks9YFSgLFAVrZRh8pox4zLMoFbHgCgJ++ePK4TCCx+NRTIEtccrtfLchVkbbVKqXKz39/Lf03Pkndc8DJ1VwhmWcqMSKKSoCOmmuEFj4g4Dw4nLc84rJHSBx2xWDnmk9AORxlmMw4rtasXzL93zpRVpcFBLmVFYu82nImAaI2Rbk+LQF3Nc+KeRq+E7HYS4nNfyUjp2wEJFwEQ5tTDtcpUizN+n9UwoTzWya+o2TyUw196hOGo22ZlqdHdUDxz/AKEA0KBoiO0ir+Sa9VHQ+1MR5mfZl0DDpXjzzzFMaDOq4DNfmKTAvd/yuXC5/Xsduh1+bS1d9VDjTwEPF5UcFtQKhYrLOAqsC5UGfmfeBzxX2qsSbruvJAcpyUR5SFuAJpxy4DPnUqVOhKGxZUk92e6Is+eOfKw1+Hvy4UwWodenytsaTNm7rqodMuLEMdBL7Pa5Mrujrz31N9fFKxXKrGTeSxxHwhcbNdqza5FQmjl6bsmpv/mvmh07RnngJrq3j6sApKwsJRNlNyrThiYXIZTrEhqPdJpjfKhRfYcb2pnxNizDbJ7O0inTKVxC6WVpLwInfDADij1OiCs5bSDwM+LGxirM2tsdTcZt6Su807ujkIN8JhwFXM42LSaQzpjSZpmSxmBhjKGKlJKslSXqMOc6SXAYdea+RGo1aBR350KABuU6UMyMmmIBsvNrWdjmKS5ofXv+YHqwfkyZFTINSNlgLqLC24Fi7FHcoJN6tQfFzsGarQd3XqZde0db2WLfeels0SPhpwJQtZeyfy9wN3Hj7HW58F9LYTQOPH9zQ8qAcGLcAvvjii1HmhFH2N5+3lgNut7tJIZ+h8aIrZr68gpP8d32A326XcZkXookdUUYUKPZlYBmkOpAGMTnLpB6Ueu3C6zr15otaOjqIA3GZ5WC5NzKpQDsVIRr3vIfhiDoQNbVjOMTiLPrgV79MrAwlbfTN04aIuMgipgHZWt1MatXtsvrNmjTmSPpUUVEMmOKjyXbcZUq0kzGj76wobVWzoU09bXEaUN0Xp1Jz9wgKKLX6MpTIeNKEQooj6bZZ68CAIq01VXiWSfMLJRFXBbSxOSteM6ypUg2LoGKglgbFL81ekL/MdqBQOAZwOm5019o9saejnELnBjVfeYmMuREBb5x7GXtnpmFWUhn4HTlybEchuFzfaYjZi3WDkuCrhpsZGG9W6lSDm963OQfcBrEesCTYt8PM126PFQ+wR2XhMRK3K1Duxqrg1muWYNdVP6p2sBaKKdBnn35GZy+9plsfOpQO0aXPHAe2ztIReAww7DJYEgnY5w+2Q49j6TFl+arPplqulzSZjNWrag610HgkbW9xIc5Ak0mh3ow1Ho02eufUY+x1aRArFpsB8wLboXyW6r62Lo/EisWtzbEKlpiXlTa2t9RfHkTj7zWV+sVSnDM5HbUa1itqx1OV437cbsbCp6pfSwUjyHSk3F3ybA1qD0smfWXJ61CG870XccDtfL4j8pzj9KfSbFSo1/R1x8n3zfdoJP69sgrZLlPoWG1JBWEAMy/jvWR8L8NsdaAcGLN4/fXXQ2l4zOR7GfdN2amdUwbMeLGegtW0dAepI7YCqT+uK4Y7m8LyCgaDCYD4GXTKp7KwKuJg17LRpBzp+dPPqB20qpf5Gk5VF/R/Mb1Td4JCsswbKTDGH9gT0tAdKFoNBkvauLil9cG6ppel0eZUh1ZO6H23nNSR4XHVTV+9Wa2ZtnR2ckpnLp7W2fMb0lJP/UOFxrMNrdRr2t7aVl0PQ2kc6d2qdqK4knC73dSVK5dUDBgJqDQaTWLchUUL1bSncrKs9ely3KI16qUzNcbFTG1vNt+IlboDqGFUZkmXYK4oAWF1cIJVGqhhlYmYpWimmIClmkmh6WajYyvHdevR24WC6gXfjq31XdmIfMfBVxtLgnseGAfgyRXIdzG/AwgqI+nCkuDhq8aCLCos4xbUMaef8LzCvgPJ+4GPIj6y8/EiBpMpDywK8hz3XvVjR1EsInKhEUbh0gf3VFpqPoxFtLo0uaDTF05peGighrs/43tJo47DH2MLOXdvvKUZi/gEV5pOGpVLy9rcmmipPqzti4UOTW7Rj97/Id1z2z0aaKgjcSMWHRMWHzW63JzVuBnrqVOn9M0zX9Prs+dUr6WDVrg46PLmpm5bvkt/+8Ff1Eq7FtOPs2Kq33/6s3r67F9Kh2sVw4kmLRZDT9vnx/rRRz6hHzn0Y5poorM6rz/+9h9oa7ahacV4BeMHaZcom7NYGEXyIzUxuEkrmFsHYWVc7U5wZ2gM7k4rjS/PdMvh27U+OKR2o1Cbr4FfUK0pL36UFz8OLMHMpFKg5P3FWMD6jqCIH8vU6aAuraysxKAam5ZIc/4Orn9+p3ckkT/AkaAMeMhPuoH8sCg8mJznfTcbdqZH80LqMhBmbZ8UhVfocYVdqTevnNHZrddV38oW8WmY8WFNTEuV3D6FHY362Ol6uK99HZBhAtpQWWt7NNZyvabZhVZrk0P6+U//ok7oBDsl4uuPcmCgj+aK0jpUHgsr5Mfuu1e3n7xdv/vNX9X5S69LK63GLHbmDI2mr6M6ocPFUY03JuqvlPr4+340TPcrW+c1GdAtKeLOTgZC69lQKzqssSYaR7doqHZaatafm/7zsQksB4b4GJeNW8sjHxiDIZXM/qQVI1GADGrOxzfaWaXplVZH7zihvoZhTXmG5Go+XlucNMCYESnL+FKg3JkKTYPRVzd3Xcv1zvpIO8qLNFGvMHuxKviy4e4++bvm7i7dTf/+OYCi8Icey46uH+MUfESMR8qifI4xCgqMJ4e5KWJFgRFNw8fPqDrNsRoUOnPmFV2cnldvpZRqBi0Ux+tTcRumbNhMxrmNcfMUKaEjPx+FOyBER0yYfmPJeNFq+9IV3Tq5Q//Vp39RR3UopmK5TeyKLutrr31DW7PNuIJvrVrXh277qAbFUJpNdfvy7fr5j/9d/eaf/ZouthdVLFequWVsVmjcjtXMplI11cZ4ovv7D+nhWz+oL597XFpK0zOjMcffD8NaIk21+jGDw8BmDCRyRiXnVaIU0Q5M64Y+TDM+SRGk4DAz4oojrA8Ga1EyWE1tdD2Kaa1Dg6OqNUxdF0amPQcckq/9QwGnsinicBnyn6+GK8iiCnCthO+tL08H6aSvbGhFQRqdTsJuPm9/DlAOKGuUBV1TPi7Oc8NurKEoHJjPTuSFRDjCXKhlkSyK+MD3Cp3deEObzUUdHi7F5cHj6SQuk2FbObeTMwXYi2MWMMNJAkqC1nNwyAxBUfc1nrCGoFExqvTDD31SJ3W7xrNR3CL2ps7pP375d/Xy9pn40tdtEYfQPvPKc/qpH/6burW6RaPxlm7v361PvP/H9Z+e+j31Vipd2t5QuVqoKsqQxU0Es2amcTPRRx/8uL79hW9qsn1OzVIZVsWYk51i0FKaTFEc85WU3D3C1OSMrkYbN4zHuRrMuYY1Refj2ofpXdQo74dl2CvZATpSOas01LJW+msxm8OVgPP7e64VkPmoADbr+Up44BBl4S94Rv6OO/lqkcauwqD7gaLI61yeOOrfbmE53U333jlAfSAvqQsoCbd3yqNrdULnuoR7Z4yCKCB2oKPEb40T5glfPUbVwgJhReBM5zbPSoMmrImwGpg3b1n8wdeBFXrzhTyslYAxWhkjc7S2A8IYFJzGDsntixt64PB9euj4w5pyhkPV1yVd0O9943f13MbTWj96RHUMHtJwWj114Qk132n0Xz/681rtr2qkqe45eb+Ov3lSp648r7Y/1ZTTq7kOvLekcTONgcvRbKqlclUfffjj+sO/+L24LZ21ISONoouVRiI4Rwr9N4spUNZOxCthgMTGtjbWa8SOWbZ80yHaeeU01JkO3UBGEbehhTHCJq62r8NLR8J6SXG4VL7bPHRDotBxU2ZUBjdOV5KrEt4dF/XJCowUkFYUGYqCrpLT69T5fYA3n7eeA1YAfEhQ0Mw6MazgwU2XD3TOc8qI+nfNA0H3MRNCXCETTLMjm5MNzcpZbGuGF+UQC4JQFvTF+YqEJc4qzrTG4HohTYzLa3jBfjPQnUfv0lD9WITEazxx5kk9d+EF9Y4PtNFuJ+u/J220W6qPl3r+3NN69s1n4tVY1LWqQ7rj2J2xTZtpywkj7gxBlrFKWhujzRg8ZIHVDx1+THet3KvZhmKrNrnGJji6OjVfSU3j3VMOpDUTvB8LuVJ3hHUgvHtq4LwLeXrNL8JYhzHPP6yLtqe65XRtFn5dS7+ojIwjv5Ht8qKsvp9+Tmc3TU63w3mHm8/bnwPku+sHeY6BwLNXfqfdQHMiBCxiiIbOtOBcUURE3NcRg3SttkZbcccMg200DBoJ3QoaTnxBqah0PQiLCK5/jILvbZyv0LTqa0W3HzqpZQ00Zn2HNvXka09pu5qp3+MmYz7ZnG2BG6tnqlGzrZffeFkfPP6hGHQs+7WOrR9XNSvVG9ca9pfjnk42ZXHCzlPPPafjR0/ofcfuUq1lfeqeH9Xpb5/WpJ6omXKobKOeao1mEzUVKWs1LZi6bWJ5Nb2qKhp3EcfSxVQyVlvkdWRdsqii+0WuJOurjRWlTShAFGG/l7oNaY/M4vKZSwuAcnCDox/K19vdxpzu3XS7opIG3KTZ6TauW2m7/ncz/e/1uMlLdzWoK9QPIGVA2KK83rnXg5c3kWGOQ7AVSawMcJdBipWOrBhm9WQsQw4lwZc1GedhPcQX1RbF1VuwkmWxvx9ZkYamJ+Yblkr2m/SlXqXzuqJzo4txERH7JJhdYBMa1x2yEhPTigU+5y9d0BVtxnF9qKy15TUt9YaabE9iYVWpWmU1UE8Dnbt8Vt94/i801jiWVT987AN68NjDai8rxg+q+dJpjpzDKMZKCSWJjpqvyvT727oCRt46L+aKBBzzM5gztiimcWlwHas+GcSll5aXy16VlUKnrDDjKXyXG/D74Ufa83QsUhTd9+Pdbz5vLQfyPLRioE1ZUeTh3bq2Y1GQBBO6YtlvyFlJ6Ae6AFRcIJu24hCVKPye2vmAHvIadkXNNRTk0X347t7Owd4+lnLXaic9LddHVRYr2kRi3dOlybamLPEeS0tMdY5STNPeduwH6Vd9NZNSk3YWh+us9OgsTFUVXJzMoiysgbQ3I629mGjl8Jq+8pd/pFvPH9OPH/nxSPsnH/hRvfTSy7rQnIvZiW2mY3u1JkiImROpnLLCJJ0exHZXZn2a+Rb5ZA9gaSVXxRoL1EyYgklRpAK6uvwbK41CZVC0POAsADLc+CjLXFkcLLPfOSorDNLox/XN/pvw7ckB4zwzIwAAIABJREFU8pX8BlKneHD7l/u7MX6XougqiZ2CZPnS/ItEoSZ9Md8EFCZL6ofHhqv4QjIuQYPA9EaxpB8m9o09VPhak3GjaqVW2a/41qcdlO3cfGI2hFOesO9janYayqFua1XzPRbEzQAoMzdhCbCztT+Ig2mxDVB6dCWqfqMLOquvvvAlfeTIx1S3A90xuEsfuf+H9ftf+Q8abcxUHenvdK+i2xWbN2IEImU+R/7F+ybFkBacJcuDdKSPJAqCE8IUG9IY12BPCuU4m6YNb00v1m9+V7ZRwDx5mYHDT5fD+LwRfpeQdxBBepxmR0va/HO4K679pu3yGn8TXl8OWElc20tYLMN5HhcAmYSCyX853iPVKAvOaOT7Cy01vK4HaQNUzPGlnZDUYRe45YSfwbob+MUuTnaflq2uTM9rpg2xkV2aqF8zxTCO9Rvb04mmVU8TLJ3o+lTawnRnqpZ1HEWlYTPUkpZiCnfKVu2miM1hnAGBpuHO1O3ZpsrVRq9tvaYvn/56rKRkvOVjD35cJ9ZParbJlaorcSdJ2Q5jByjvNwsrgsuW045TcOwOjSlTGn+kKc3+pG4X+UQD8i/56Yo0k0Z0pfJuh/MU6CfHGW9Fgd/uvGy/n9yLFEX33ey/Cd96DoSF2lC30t0fSHS9yaXnuGssCohcgXIGCpLKRgSzuFYmmdYcAw99XXHsO9YFi6rS0uVoBGEqY+Zj0KdR/zCh6YvHkfwHh3ybib/X7+n85kVdbq6oxx6UZqblclnLvWW9MT6nYo1TtRgb6cUCr1jENN+rstJf1rDsx+pKVmRuTOg8TDWeTVUPhrH2gcxhIVkcWFsWEc/jzzyuB29/UMe0rkNa10fu/Vhs2sKiYQyEzobHFlhnOQ1J5P68izFfwo11hbIJTUleYW0EDTCt0gwYWrbUuJ1oPBunsQtx/kSSF2UzX8zlcrIy8deCcnFBU3489pvnnYakqfu4vpFGp5l3MO27neZuet/r/qjf81kxxib87JXPhJV5xYIJPwH8rByiEDmmDSVRVWnJZ8WtUumorZXlQ+lOTM5raJjKo5vSVzHqxfTjuG20XTSaxh6ING3IFzN9XQ8G+eLWrPKcjLTdznRhzGqIIrZ336LbdHxwmyZbydCfsL2dJtkMpFlfZdPTdGOsY4M1nSyOxRmULGc6N7qkc9sXxb6O6XR01UrCsmjruA28t9TX6ea0/uiFPwoLhMVWH7z9w3rw+EPajhUV25qKOytazVjCPe1p1vY1a2vNYnByftZCjN1UMU3KVClH1zEuEmMjbR2H/6BkUcWxR4azq9ptXR5finEOVo5iQ3D+R9swvpJORo5Ty9s0iIyyJp8KjgLgOD2US5wRwYxVOoOCsnw3f6TH8ae0JQVmHPUuVxJ2u0LfhG8tB8hn2jjdDi/Ky8uB/Och3/nZf802826h5IWGsO1tIphvDKNA1WppMND60mGxN4GHyklcYW7TxYj9DPNpF6ZgvAkqpm6xxRPXfpCxh/F0rOFwVee3RnrhtdN67H1jDbFmVOr9tz+ib7z6TU0uj1Qtl5qgLdtBbAlvtra12q7qwdvuj1mMclBrS9t6/vVT2phu6PDaitoJaodFFIXU76lhdSVuFORgrL944Rv64ds/ovv69+nI8mEdXjqkKxuX1VvphwUSDRSrinyeprGJOCaQRVbzMRpfdMR3lXUY6HMsgV6swEqH2iTThK+rtDXd1MXti1FYHM7T47R7Ti7ngJui9TqtpNhT6Ub0lBuDq74VjEHQvCyjoN7FP3k9c4XMK+W7mLQf6KjJYxQEP+oDigIcygM/T9SduRs/4TzR9TBRzhCh8z8Qx1RbbGi6upCHGQ4WBR1bPaHehItqYChi2TaX2BB1zJLEugoSkfrhuewDu1uprla0uTWVlvp64qWn9Jn3/TUtl4e1tXFFH7r1UT13+4f1J0/+iWa312oHpfpNpfZyq8nrI/3Io5/Sfbc8rNGYWdVKr+tNPXP6eS2tL2nr8oaW1m9T1faEpcEQaSPuKalVTlut1avaurCpP//253XiI7doqVpSb1xptVyJ9+03/bh/g0keln4zgsOXPhRPLDqjt8GxfultudgotqvFYE3qrtH4KR9Q5DcTIqPZSOcvnaf41DA9TXdqZ60KeZsKl3DntQs6uilFsh5YJB4abB7/gfP8e0zIe5JeIHWPx3Xxexz1X0nx5DPdDX7ks5fNYwTk+W439H6uzkl1CsmFCCGMafFOHesN0Ejsi6BhTMcz3bp6UsvFahy0Ql+db3PcUEU/nCPe+KLmB+PO++7uwx8MMhtQhlndVq0ujC7qPz/9xahkvSGXEm3qpz/0Gf3kYz+lo+Pjqs8NVZ0rdWi0qr/xgZ/QTz76U7FPZBof/Z6+9PRX9cblN2OpNvddjLY5CZo7RzBy0Lg0r1qTSRNnRCytLekvzzyhJzaeimnfK6ONOC2bbe/QMrbAYGn0r1nmzpRKrLJMx9aRJ36YMmU8J/2MJaNRrtFHiKnn6GJduRA3kc9mPlY/zZDEzfLMqpSkN60GtcVCeWFFuPG5wIHfLz/Slqdrt49Uljs3nfvkAOW+1w92WxMoCxQFBgC//HEdAWd3ULjAiMTunBE8wjyekcYxYg5SzajRyUO369jghF7Zelk99j9Fm0BW6p6ko+hStyR9VWlY8Q08MEQpcQp4j9umaIAD6Y+f+byOHF/XXzvyKfWrUlvNSD/78M/oY3d8TGcvnNesKHXk8GHdtXoyNlqx9wEj6nNnHtfjT39Z/WPLMQ4wGY9UHBpoUtHomAdhO3kjztdsuYSHMYW60OZgpD/+5p/ofZ+6V0cOHdHm1kjVkNOsynSWJndoMAGD2Y/1xNF4NOIwq+ZjmDsZS9j8mc9px/gk1kacK9rEWR9vXD6rLZQSh/DMuOOVOZm06pXFseQi3ZgoN8yRsOLClokTMMKM4exSuObpcLTvFnQdo17lT9efh910758Dzte9KFPbTTfWs7eGw4OwKMwL9I/y4If/WlUytx5yQmv6pHWSAQKOCNk6XkylE2sndPuhu3Rq8yVVTS0OtG0rGhu2dFTRdPM27FGZ0STX92ONA6uzRxPOhejFkvHxcKr/8OU/UPHoVD98x4e1Uq6zXUsn1+7S7Wv3RqNnJADDfLm/qsu6rMef/7z+8DtfkNaKdDgupn7JdCrf8l7cYxgXES01mmiqXlHH2ZkjbkFbqvT8Gy/oSy98VT99z8+oWeK+A04vrjSrOGo4Kb+GpePRzWLRGetJ0lQyobGdHKsBk2OuKcIi8axQNJ5e8JXDWm9cfENnL7+uNc7fmKTTqqkIFKAVTXR1QnYq1HbWqJj3OymnmI8K094ce1Wl710Y9coVz+/gyrhfrDnffrR/VcPJo70e6oK7HRsbG2FdcAaI23vO2y2Xa7aZQwjTooeuB7v80ELcVs6luLGMedpquVzVfbc9qC8+8aWY5WjK7fSpQzE0bdxeHhHTGEL+9SkJKxVmT5iOZECVb2Z/ZaCNKxv6zW98Vs+cfVaP3PpDuuPYPVrqHdZAA5qvxtrQlfaiXjr7kr75/JN65rUXNVvCfOeWcLpGpap6WRcnG/rO6Ik4Z7OoW53aeEUl5/JOpppWhcaTmapBpXppqK8+/w2tHTumYW8pjs1jwHGjHKmJfSYoIFaooj/oFMxHCEJpphO/w+JipoLj9zltPL70dHuYMoU+XQZULvX0+qtv6LVzZ3TvHfdoMuGW80FM3caFP3FLOYuzrEDSQHJSUvNB5bm1wuhoSsmi0n1ncK5bhsTqCrlfJTftO5PSH8xYrCjofnAOBXmOouDDzwPMywac/ddYFCAdAJELDxxC+sNa589f0dLaQL2K6wKZTm1Vz/q695YH1P/WIPZBFOVEDY2Z/R98RWK7eeqSpEm9SBZ/sn56SuzVfnvXj5Lh2P4ill1Pp2xiKdQs9TTtT/TFl76hJ194RYeHx7W6fkT9qqe6mWk629S5rXM6N7qgy8VY1WqtXq/VZDaNg20K7u8sCl0Zb+pX/+Df0XTjgF0uHeqvDDVqxpqyrIJTmabp4JxL4w39xp/+dqQdc55j/HsonwELthhZTof0JFuKOei58sXKiF4X33hmgNK6CgYyeRjP4RfdLLbmV9K5jQt648obmlZjlRw1ycE6pNHlEwoIyy2ZiSkkxKVGOO+ehGre5SOQqN+Zv3n9IsbrURTvTAp/cGNBQWBRALe3t+NFU3c8tVPKJi+f3N9Dy/jJicDRdyEcfCgKzjfog5uqZZ6euy/ZdLU50v233a87Dt+tV668rHK9l9ZTcJ7D0pLG22nQhK9sGr9wjAeH6RxK9neXKsfpxM7RjD0QpWqOuD9Ua2PS6NLsDY0vvqLZbKy6nYZC48AbrRRq+nyxWYfQxJH4aZaG9SFsL2/U0h2hoxKXJzPww/mXPU6piC4DDZhnWrdq4xaAtGCF061YpMW7oSDLeb+OreEx+xHnUsQ4cPzBykj7OxgTsRJhrKMQZ3gyFYryKfo9FcNS33rh2/qJD/yEqvFMa8P12MUb534wTcp6F2yQ1MuLhoflQLlhnWDRMQ2GNYieoCzzD4D9VB5/WQ5eKtdSdusPoY4rp3ScpJF4gcQNvPnceA6Qh+RnPouR4+gN8KM+cPAyJ7NbUUBHuRiSCpcn5XKNReEk5oWbEw+W+iovlhpNJxoM+1GZa668b6tYV/DQ7Q/pxWdPabi+oul0I9YgcBfIcLCU+kYcKBs2OV9QKsXBYaxMiIaatqzzkY4zGmKGJU3FapCmGkkzezsYO4geelHHuoJpsRXTtXzJ+dr7Sw4yrcZk6JG2nBQS1gUfbOIitUyeRjpKllU3cQYHeZbyC4WTWutO/vGVj7EHPutX7+GIBhymBZvsUj7gZYc7vRBSkTanlaqW+3rhjVM6felV3VXfFQuuQiuEpYYS91c5NTLSH7FGQAqj8vAl4ZJp0kb+8MPtxskY1E66XRGuE1rm1TxJAsDzWCHgJk1WEsSL23SJ6+bf680B8tFlSl6S3y5T3OyiBs9sB2MU3AXrgcxu3puPNODeWXDlRIHkB6OZHSHap+pXmnBf5fJKrCJsObCmaTTsDfShez+s//zEF9RuF0HHl5ql2ix15pSr9MFIjdTjDgeGMV1JKtNhOKlBMI3JnaT1fMUjHr5OVWwKK4qxGFicNv1o7FXJWfwsgGL0IimDGFQM2bS4VKGZFiUemh4/FJIfTHsaN40x8imsfq+bmNMxF4yEmMYo1Tas9KTbkaZf07mXNFS6HqzWTEpk2k7my7S5WyRZcsPVZb3w0sv6zumndM8j9+jipUs6fPjw1S9wHNqbFnolNUfMKZ5QgIzrzNrYTDfor+6UaaRv/gUJjnmZ434rj+tMFyLTdQqlwFeNH3XHtOTnzeet5QB56fYL5IcyyKdDOdWKhxkPLAjCgX7ycrD7uywKR+RIdpjjyzWL47POb21rNj9qLdZLcAHOZqmHb3+/Hjz+gJ64+JSWTizp0uiKyqU6rubj+LzUcJDoCnG9EN60boGGyieYpk1lQxMwo8C0JGY5R3anHavElpY/s9qS5h+7WsNSiKWjYdckFZEskyQ1rRMJVREVeH5FYHRDQo/MFQXjJuZL6fPF62E0hMJAOsogKc4wG+bZgAVB9wRaVnJGdyWsncRT1NJWb6KvP/8t/Y0f+huacAL5bFmDkrtI5spqbjaGhZVeZCeKSNH8y4LZycnLVAzyjJ9Nzbfji57LcwUjfj8MiFNhrSSIk+emonAOvT0wb7vOW8qe/KaMXn311bhWkO4otFYUpiUV4PHzw31VjWRpdGAeIcFEcnhtPc6o3N6aRiVjrQDKaDKa6nh9XD/y0I+ot1FqOBvERTlcXFPVg517PNkFGlupbwTOT6zmdKmYTZlWKmMPxEhNMY6DfVM3IUYMwnIgfbGztOTUCHo+nJyb+u7p/RhBxGzgy0+fn6nSIqZLoyvBrA3jDjuLp8hEVjlVYcm0TR1+cOm9WD/B/Z9VKCSsBr706dCauRWByY+5jbKiSzKnR22mA3CSAqUcODWrf2JZf3HqL/Xsq6fUX1/W5e0NTWa8bypEpkMpm1BG8yP4GIDl/WJRBntymunOFXLQunJQed4OJUH9cMVyVYr47Zl3N6iwDKShMPx06Yy/Ca8vB6x4geSv8xU393fQI8CaIP+5f5SPBF1OoH9u+47ZZXqNRYFgAvw4IvzuOzM9tzRYjj7OeJSm5SKSWavZxZk+8fAn9blvf06vXD6tQ0fW9ermG9Kgt3OZbswEhkVBPDSI64Bz05QmQZ//6pO6I5wzEY0lZhRIM2YQVj8H3+JmR+m8s0P3IcYHkp6ALy2PnjewsF2SbRErSxnsjAhRCFgbMaoR8cX0hC0VxkXmaUPRpDeM/lEciReNey4p0kb3I1ZkpvECGjF3j7JGBT0+ahvVh4c6c+Z1feGbX9bDP/OIrpw9r3rCUf4rab0EGif+p2XiTmkM2iIlJTxmqKgwxMHBqlQcKhX+vNyv5uv1u/KK5sqHFOKgX4yicF8ZZUUdI4zn7UrD9af6B4ODvHSbBZL/QCtmLLqXX345DtK1ZUkdIN+hdf7nZWh515zC7exyoAsPf/xYTDwaa31lPY6P29oaaXV1WbMmHc8/22x1y6Fb9MnHPqnf/sZn48zKuuSE5bGqYTr9ynFcP0zTiRgI09jzMFdo9NHZ6cn5D7FumnmENKtQefxgxuXCjEmk6UmOwqX1sCCMKjqOoDTOQLqqGTMYaX0D+oXB2hjkCL3DH770lWYepIuk0OWx8kob5Miz2E6fbJnoAiGnpeUyViKskbR5i3GLKcoo3iHlDkqVE7hGVatybagvf/vr+uuP/YSOrxzW5mhbawOuNKSBMWPAuyF7rtXnGZzKLin6inM6ZunrAt7KIq8Y118uVznyiobbfroaKAcrKXOQBj+527ib8PpywOXofAeS7wxeogiwJi5duqQ777wzZsFQ1P4RE2UAj+W4TIBRs3HkSCfPTPit9fkiUMHiBmp2XM53pHGgzWpvqPHlbf34o5/WnUt3a3ax0Hq9HhvHMH+QET8+/Fie8x9rBzC5J9zgPf/h52f6GIagxzErNQ3zGh6+7lw2xEa0NFjKmAnWA6Y3v1lbBQ9xseYDeezJYPUo4chltoFf6h7MleLcnOdOEm5GdPx8pRkLmCJrvu4hyeJY/nL+S5cexfF8s5QO4oUv0sfSbs7MgD/whKGymOvoiQUqWDfA3rAf51KsHlvWM28+o6889/XYscoKVRaBpWXmaX8KW9Sxj0J5hC5KXR0smzj4dz51Rnnydb9w4UJ8bahEVBiX99sJKXfHhRvZjot35wF383l7csB5ijTaNEqaNksZnz59OiBH89N+wUGTVl1ftaSdEsIsb2fWAyQFRoArit05I+dkjqbpqrqN7cuRCBZf1WWl6YwVma3uWLtLP/PIz+rffuHXNVwd6+Lkcvpalj1V7BkZoSGYPaDRz8QKxNGUC375WKeKzj4G7u1M29JTVyNVK6JgQ0lkRUy3uprR10/TiukLSrOJxwTJPk9dkpg6nYczLWmNSl869GepAu0RXZJ4rRRlsMRKiJhxwZuGShMN/jTsGUZDTNEm3NW/0QVKfbCIia5RPFOmKKVJ3BhWxg3t5E+/P1TL7WHHZ/qdL/57ffyRj+qW3rG4dPno2qHo+UzbUSxIw6TgLE4WksVeExapldOwYuhnsgvVDxXo3LlzsTqPFXqYplQeP3RLXC9cqRy2CLreEGYFgZKwgnD9ynndrwZHXDefG88B2isDlFgRKGOUBBYEbsr51KlTevjhh6PrQSzQEkb54IafX/64PsQp3HnAXm4KEsE8fKXW1w9ra3NzzsJ1gxxY09P0wkQ/9vCP6bE7HlN7rtHx/pEYT+Sm7vF4EkuwYxl21Yt9FtvjaWz2Qn5MGbqrY4hZPR+ki5H9Ob5gD4VpUHQ0+PmPOpcGToF8yeeWQsB5w4+uyVWeJCsPS+sokEX2AdMvyUqLqa7K7frT+5gHnXb1PRg4TZMzsTIjBjyJJAZK4wQwxlxp5MkUnPVm6p0Y6Kk3n9EffvmPVCz3xCE6FCw3s9HtQEUxdpJmgLj9vYhdpDRQHpQOacJPOVIJqCTcP8n9n1QqN2zooeFrA7QSgKf7cxiyMXOplNxQjjwrCdebeWW5Cb4HOeDyRDT5TlnwgH/mmWfiHloUAh8Efq4DhHcVRDd5C8coukS5P3YgMi5QllpbXtGVSxc0oqHXA7H9m2XVs/FM9aTSz336Z/Tq757Sy9NXdbg4rPPji2rqVvUwLcDabKcqe6Vm41Ylh+bSwWZzFmMCfKkZIOCbG5DxS/rwqdITTqPNn51Bu6skeXA6G+cazDvtmSdsPoia7BiUbnpi6CK2uXu8hLEW1oSwrrsXZ2ws335U//6Lv6sPP/pBPbL6oC5eOKfltVUNVmoVXAaNUmQSGKVeNnESVphCMbh1dVrUyoOY+arz40uEYmCAix+VCT8/yjvnQSlQucyLmzEIvmJUUsLh4YcbPO6bz/cuBygf8hpIeVy8eDGmw8+cOROXbd93330741K2Hl1GpAo+lzFyeAyvmfVY9AqOmG9qyQrGKSvoKvXi2LVZLNo4d+WCymktbhocDqlYtUaXtnT7sRP6yY/8df3W135Hk8FM2+1EF7Yux8AjX0q+iNZs7dTH0bsxpfs4U5rA+VRvPrvz3Zcxcpe6B4TH1zi+zVTIq/hQNu+6P7J9nsXpfbr5bWuFLhnzLTEAixqhH1ZXYma3XOvrzNk39Wt/+hv65b/zv6jCXORw3zFXD6RGSZmxliSuTmDhlg/T6ZFHc2toXinyxkvlopHTqLEsCLNFYYvAFQeYKwl4Xcl4L9x5XMgyb/e9b/rfnhygDCgvyo9NX7iZ8fjOd74Ti/SOHj0aigM8PysGl203FZSXy/EaRbFbQSbieeFzJmaT1pPTnVlaWVM9GenK9pYOHRpqa7St9XpVw3Ko7Qsb+tR9n9Cbly7oD5/6U80O15psntblzS1Vw2TWNuzHiJWRaR0DSoDbv2M20ymPmYC5+QBtBKYNVWmsI81ysI4h1jTH2ok0O5HWOM/xDn83oN/FkIZk9xzaHxu75t2lONuirFSUHCxcaLvaUnVioD954nF97O4P6Bc+/nM6f+o1HTt0q4rVteh+MFmMnRKzMDH+kpQDSiCmibN43ZhB5UoDPBWPcQwe/Hk4dSJ/7Afyg5cfD/6biiLPre+dmzJGyWPdMWj51FNPRRfkgQceiAFMLEUrCsrE5ZXXA6eOMB5g9cu//Mv/qz1dgmv9dNDTSj4WLDElR0Rc8lMNam1uMVbRxqBmj4P0sRb6tapepbtO3qkLly7r7OULcWEPuzCn3OJV0p1OFQp5aT1B2p/BgCINh/McMKZx86UNcz1alCtqzFnudE/cTfm+g85Mw1i+zTvwMrwXay6ShoyTqsJqYrGWv8y8f6seg1TMEI3Hev7p5/ToA4/o1tUTmm7QjRuErKqigdJNS9LT9nIUUzL9XQGoHPmDhQCOcMrWP/z8uvTwOgyY+3M3fMg2TRDe/PO25wD5i4JgbIKxiBdffDEUxV133SVbE8x2sIYChYEl4fKjjHLF7nrg8Gvu9chTvrBQ5wNroSD4YrDvgkvM61rrK6saXbrCHVlq2QrNmZnTUlvnxzrcrOpvfeSn9P61h3Rbc0Inq+NanQ0125zEEXlU6DH7Ogtu6aB/TaVMP1ZIkWif+B0j+bFMO9FBSzr2+lnWXjTvRthOuvwOc8h2+mQT0NxZ+p0GNVl/MR5vx4K39eNH9czmS/rnv/f/aLMaqalm2r5ySZPtrSgTeFJ3jB03HE04H/eZN3gqBfnKQ1lTph7cAkd43rWAli8RNHkFgzaVz1Uzla9aWC9zi8KyI7Kbf75nOUA3A0VBeTD1/fTTT8eM1m233RZlh/JASeTjE5R9Xn7ddk8YT1gUBOYE9psohbVhAfDd61fDWJPAGgMshmkz0eoKi39munj2vJaWh6p6/VgHMWD59uZYR9ePiQS/dvr12KNQ9ypd2rycToBi9J2ZBRoEZy1E94I1UUxD0mSYMuXzmCp7GgTkBeZfZML4Mu8BYyPWHuH78X/vwpGcPv3JqpobGZROHOhBo03KsmxaDf7/9s7vR7LquOPVv6bnNwu7xMgxhs0GkziWjWXiJLbkJH6NlEh5sJQnKw+W/JK/EySQQTwYLAJYEBYzOzs7M/277+3u6FPnfvtWn+nemQWzsNq9o55zTp2qOr/r1vlx67S6Vk7Z7VhY93DX3v/D/7rl8Z//9GfWP+n5J/fNDlMV+HB4hIFMgKkdwiFNB2CvDoIrbUIw7x3ZPwkX4eRufCNFUuFF2BP/n78GEA60AYL8zTff9LWKl19+2bUHNAnOP7ENLkGPAI/jnjA/PbQbD+5y6qFIEUpYCE535s/Vfwzm0hNZoPKhjQHa0g52d20yHnkGmVtztwR8Oo2WTQZje+bgaXvxueft+LMjm5Vz2znctZPzM5vwVWWrXrzkYydM2Hfc5Hw6FYXVJ15QmHjzTu+F8NHgGoh3UhZYqxzh+qIn2oir9BQ65ZdwxHtY4WV+XCCmfHk+NfVwQZbWXvxDNjQMP3OOIG+lI+A+A6QiFtYoWZTq2jvv/94tbf3zK/9kJ7ePDEFBfLvNuRI+ltvyQ1jp1Gdq/Lpdky92kDzuqmH1naviP8F7sBqgfhHoPLQXA1iw4+Njh6M1vPHGG25vAiGhqcbBwcHKQqa0Q4jER+0nAUFYvwuCwlNb+48Fweol7upwZaTB59issPPqmttThwd21u/5GsRWB2MpLEQwt27bYrqwazv7duvmX1mvd27n/aF1d/dsNJ3YYDi0FladWOdAvWU6MmFCMrdGu7NUp5EPfh4BAYDRWwQSBmdRoVjE5PE3aHA9v3qzBniO95DC6Q2/KR8ScFVZQPNCp0NUnAcp2VZu8nGb+bbFP+H7AAAYYUlEQVT0eF7YO++8Y8/sPWX/8OqrdvvTT130dNjWZDJYslWKcMSWZppqUE0IV2kBqeKe/P86a0ADNOYBmH4ayAxytR2LzWgSPAgFhMTnn39u2gpFQMhAjba89VLwMVNpDeId047+tYICopyQzPoKPItWqMTVFXes0LNt6m+4VjLTv7+3Z/2zc1uUGMRt24z1Cr50RJjMZ9btbNmL33nRpoMpxxDtcO/AxqOJ9QY9P1cBLzfQyxmLZtumHLZKJmL9zZgW/9JUxb/C9CPYvGURNOSMQZEGosIJwLZjHS+8h+UiwNL7nEVLTbU25SdoFuwiVF/bNrHWVR2Q8ePks5nt7hzYcDyx13/3uu0/vW8/++Grdn50aqXPPxq20+oa05Zigf2u1bWJvJ1j53jif7g1EIV23i6EGYPCwWUdiIVLzr+gSfCy+Oijj+yll17y7VAEB4KCOJ28RciIV0xDwiOWmPT0XBAUkVhIIvB+B9CVC75vZI6DkuyvqWTVGkGyWNjhwaGdn537Vmpzm1u/OQ6QhEU5KWxna9u+/52/deExOB+6sDjc3bOze+c2Ho2s1e1aOUOOYCqf7+bRYHR0W5lIKg55TvN7CqY3MduoFZ4XpOHfdcV4Bwf8rzqc5yc1Q53f1fRTqP7PB1/Yq0jTjrIoreNm8zgs1bT9/QO/fvDN371p+51d+/EPf2Snpz2bFXO3bNXgC7lqF0TtWfOu1c8Ie+L/+mqANlI7aUwSZtAjGDgroTUJNAXOSnzwwQeuSVy/fn15LF+CAh5axFSpxBdXUxnF4QJf/o6Pj2uxUUWCpExGP0LBp9G+4IgSUS98sGrml9EUU++YfPvByLx9dMcaO9vW2eZ6vy3bavPZU8tNuvGh0t61A3vv+H1765Pf2x9OP7Q/Fffsj73P7LP+HRs2Cr/ez21eNubW4ZuIhVu4TNK1KpUKo8+rK3AlKBR6tF3ao9nq+qq2m7QrSmsWc2uUTSvOplYMCuta23qf3LXWydh+8++/tv/6l1/Z+PO+DYY9u/HMddvf2ff7U6kJ+PFWwt3UUR7tGnv0cq/BSpvw41HfVmlYo0BIcEReWsJbb73ln4+/8MILbt7OdyEPD12bYJeDH7y1LiH+8NaDX2kKFt0LGkWMzP0tFhfT8li1R5/WLdLCYLIwtTwdyOur2bCDwwPr9fs2n5U+b2ZFsiwKazdbttXs2Hg4tL+8/m371tPP2sHWvmGodqfdtf2dp/yzy2JcuDWtcsrBHzp36W9GCu6HqcJWHlOjlacSgaqQ+1XECt03NED+aVsvOztFGP/lhkQ+5sLYTjG37d0dm7cX9tobr1vv7rn9/as/8SPemNCbFclIT9ziVJ2ojr6hRX8sskVbqD0oMG2idgGOgOBYNpoE5yIIv/baa/75OELiueee83p69tlnV6Yb9Be0Dnh538lqU2kqrSzag41co1iH5DAWJCsFAgNRaBbpmjy+VmS0NtwSVHe7Y+Ny4lumrW1uPF9Yt7llrMpiy2L/YNe/IO10t32R0ytjYdbd61rRXtjt3h179+hD+/D0Y/vT9I59Ojiy2/du253JifXbhU0baXD4Fg/3aCA+fLazohhtLMbXGZEM6ZKDqIldniN9UeuWtpoYs8G4Lx2pZfNRaa2p2WI8M5s0bT4uzIqFze6NbfzxXfvx8z+w//nVb+3Wsy9Y//jMtltd70R0nDhfJRfqMJfn6AnGV1EDqn8fE9XbXmsRrEdwLJt+T9sxnt5++22fhty6dcu1BzSJGzduOA4WrGhfpirw5aepB374SjAQln9TuVYExf0I0npl2pphc4EfXzfytBdsw5l13PxbadauLtktJ57pjrVtd6vr0pBLd7f39j3TXuh2x28bY4UeAdThUp/W2D4+/dQ+vPtHuz04suPBsR1NT+yj3ud2UrBb0vcbw7h7gwuB2FplFuR+t0tZFxfxkekZdeRD9vmXnZ7m5YIiNhx3ofLBWIcLj9ke2+KzfD6yarspwGax4Opzm40xpNvwReL5aGI7hdng4xO7Xl6z//7PX9svf/ILm40Km42nvguyt73jh7dYkI7TtjS99PVpz21aW6kPvz7kantskottTqEZzKxHsGDJ7gaDnoeDVO+++67vZty8edOnIDonwbFtHari3AT9RRoFwga/BEXULkgb+KancefOHY8FURmFQEJDDJyJ20lIUwoYqnO5ZWoS4vslfacBD3/rVYuK83Qr0Vnv3Pp9jnunb+fZAZEqTBqsczS3Wtba7Vhppd3tndinR7fts/6xfTI5spOyZ6f9U7vbP7PTSc8v7umVIxssxjZrJQMtrH2QNlurKDv++ThGrXyh9fJBuqmy/Bv2jZFffYQL6+pN4+1B2eYLa3IQls/Wp3ObTWY2nxZm49Lm46ktRqWV51Obn83sX//uF/Yfv/w3+/7N79n43rk1JjM76O5Zt92xlh+33/J6YwuWTkpNtRbcO1mtuFc3k1HSZfpZv/nqa+Gbm4IGIXWzrn7IOfXKI1y92XnbM5BFi5+TlggIxiDxaBHvvfeef77P4UXM7QPX7gZrFlqTAI5GIWHg7VkdplLeyIfGPH7gedgzC54EhTKuCDHLCQkLFnGAIb0UJz6EhcfOBYUizFxrNOgvC+pTiVY6RowAomCtVsPaXS4WNhstJvbh2f/ZadG30/653R2e2fmkZ2fl0M6Lvo0WU7s3OrPxYppu9+LT6bAVCI90n8cXFRSpgVWur8Ol3thm1uf0Xq807qzh25/zcmGLovQvfOeTmZXjiWsPk9HY5oOZnX90brf+4rv281d+av/4o1ft2wfXrRyO/ZwF7cKicXMr2SqgP7h9DW58wzQgpzdRzcIxfuoAOG2FSxs+zo/6v9ddEOjUDT+efOAymKk/NAceBAT2QRAStAkDX0Zn2PrkTATTC65sIC4KCaYkCAhc0tEvjkHS0BhVngQTnHDMM/6VqcdlUkeMxTCGgUGPK7gyUCechAmFoZAsULIww6KMw3aTeS4JDddZGBh0WhZkdrouCIbFyAaTgZ1PRnY26tnZ+NwG5cjPCUzmyT6jW6nWynGlUTGn//LP1yMwXEOq1oZUBurZf2whc85imq6L4yqFclLadDi2gtuhRmMrhqUbDzr97NjGZ0N7/sa37JW/+YH99XdftN3urhUYR+ajv63U0ejA7WbTOq22dVup0/F1roS40qa99aP9H+eHfku9UA/r6geY9+VKiCBYEAz0f1y0B2BMMfgxNtjy5AAVcLQIBAXTC+IREkwvGEu0FxoFrgS22gWXR+OTPPAoj/iFC2zdsxQUQhBThcUEVwmtZZQJCNGLX+KTBiqVQvxOd8sLzByMSsECE4WkEig845oK4qECWBhxKdluWGMrrU2UXDC0KPwKw9F44Gc51FDQ8fZVXvy8l3P7gv+C4dsvyOFLkdGEOnwKI4QHZdOJVAQh9YXNEN5QEw7jjCc2GWIif2iDwcgGvb5PSfonZ9Y/vmfXn75hL936ni+G7e7vLace8Kftttpt66Dpsb3mJ20rwV11PhWIfMS2FvxxctXPqAfVhWByaR/6v1z89FceBj7Cguv+sG/JFih4aA86G8HYQGNgfMT1CGCMHf2Uvupf6ed5A74ON+LBwwUFyCIA4bKwEs9d0eXwmJGYjgQG6xRIQ0ynIV2xaUEFURnAEQ7gtlqddObSDWqmAs5RhZtJJUeYqIBuLYrTnEFC/lkUirxwDzGM1kC5JCwQFDzpI/x0Ho16o+PhIizKydS41nE0Glh/MvC6Hfb6Vo4Km47Gdu/uiQ16QxfEh9eetoPDQ7t2/ZrXO21Fe/gUhK01tsYrM3p0SL2ZHmIVPBJJaQzRDvmPOGDULf0VTZo65qtPzBFiKRuX+uUmL35oDQgCaBXWyxRXfOCrdgFXD2nxCKZwhMlPnOIj/oqgoOGFhAsiPxGL0FPN/kU8JYorPkJXxZEWhXK6WerYFBo4KjBzNDSNJCBaXqFUKvgtPqrCCG8Dem5Nr1Tjyip4k4v5PN/1fJ70WbVgcDHgHjWX/HO4MgoKr199cuMVnGwfqr2oO/9Npjaajmwym1hv2HPBUYwnNh6m1fTJpPC67vUG3omxfbq7v++XxNAxedPRVp1ql0sdnXSePJtrgD5If8blx0OdSYgjHNCkZa8UgYFQQIPQ9AIhQP1Lg0Bg8GMsSEikvp4Ej9ISLOZOMLUb4as+y8XMnHhTODJelxB0wBUX+eCXcKCy+IGnNxWV6m+wRsMrAVxUMYQG91EUxcQX08CnM7M96IKiSq/TSguf9del2uJjK4VKScZcHlVB4RpF1QBxNUCaBfWi+sbli14XzExFysKtp2N+cDgce50iRNDeBv2RH4Kj7oH5NGU0dI2E9unu7LiGsb+9428vOqg6q9oz9ovH1U9dq+9T//Rv6pN6JY6+zFkIfvjR+MBDOLD2gMsYkBCgnvkhKHB9Ol6NDQlv6joXRqp/9QXC5CuGhSOXePIo3Ah32NHR0QIkHhBJlEdMFXdZQk4U/oku50MawIhXWjJOA0zpgIefSqMz8mD3wt+Q1RwPHPGDZ/rVFSJ+UXDo8NKjqFGE6l3xUk5/dBep3l4yzV/dZ4KwnUxGfp8JgmMwqozhFnPXKFgEpQM7TlXHLmAmk9ThJ+k2bNKj7dR+Sl9tvZK5xyigeohFVr8ERl+lL2vQM/Dx08fRHKhPBABCmDBxcdpBHDjChzf8+DEu1B6kpbzENiF9cGIc8QpHOvyRtoGgAKgnEgG7jFEeDw08gCshwuIb8fGTeR4vQJWTnN4ROKrM/Rau7tYCDamtdJJbb3/qTcvXoW4DS1KVAcVxEN7A1VSE1fyEhc2NNDWJ8REvj0fQiT7nG+nEzwVjla5vN15xKkT1qKyxPlU/y+PzmpOqZdneZLO4TN/JTBEIxdStp3NwazZNAniKQJhyYUyyKeJvw1k1fam0E2mCuBLSpK98KS9yN8EVj6uyRBj+nFZ4wKM/5yE64eR8N/EW3Tr8q8A0CNWnGcCC4TL44w+Y4OAiOBACuNLYIj4w0eDyxDJGv8oidx1ujIvlW8fHjevGiEiQM1/HOKclLLw8ThVIvOLkkpboFB/jiGcuDYzpBtOI5Odtmt6oW9zSXb1cGaB60njhWkF9UVqnJRzcPL0Yd5lfeb8Kn03pRB55el6eULd5vB8mC3Xo8XybDqyd7h9dbCWh2uGimPm2FdyzMiuXgkICo5yOXV1GoEiDY0cKvwRFLiTI+/3yn+c3D1Mn6h95nMLgKA3VYQzLL/zcZTCCIzzxAE8w/JvgOb91YQaw0oiDWX7yIC0ZP4JAGoI0CcLyg6Mf+YIPrn55HmI58rLkuJeFxQt3eVOYKkeFVCLAI0zEio+JiUeEyR/pBLvgVh91OW71xgfH02crkAB2LdAPmJpw03iLMxZJM+GCoSQgkhBxWm0hIpzSuPFKdp5680p1v5ChGqB6qCGrPuLV0WM9RD+DTGG5sV4EW+Vch3wRN3T0OiZpZEpfQjLyBhebFKThlyFRi82FX7HQ6FCHLcOaBy+qdjPty3eYX4ftPJ2hWKdNxPqM+XoQ/2XlJ15lEm4My680FRYucMHwCw5McGARLl5XdTWQI3/4MdjlauDjIhQkKAhDLy1CYeVJ+ZKrPF81bxFvHS0weK+LW9EohKCMwDiH5WExBi5/zJD8xEuqRlikielGHPyc6mQBk2863Citm+VDr+A7CNSHZOx3gc2K0Al8AdMN9fKZdmosxassMRzzkMenOKZKvDXcwkal2aTdF+Ckh4aTtB6Fk0vDr4PXdKv4EZ7MB7tBQBeU4uNGh9n98e0Qssb9KLw5EUoY6qm1Nxe1vJV82oOWUZ2EZa0H4x9bXVtUO1AIgwVCojKQghBaJyioI/1i3XkjPOC/WN/r/PQfwUlL/vslA47ylfc/wcHRD1iEizcwpbcuHjzqjDbWE9MDroEPXD/B5QqOG/MintFVfiIMv/InuMKb8IWHC47wBSfsguIqDCBax0DMruam9QhwSTNZinbGri3wuTpp8Mfjd1AQ9hu7UwqzGdMPJG8aRhiLRTFg4KT8uQpBCiG/NDJpMq+u1IqsPMCX9CkpCOQDu6pEYDBDUOBXmdBzksByIjdiSwesBQo5TsZtLwoE8p/ikiBKfGs8N2NXTbkwGARuUoQYvpgHrL5r8byxxpIWjTUV47M9v2UtTMnIJ1oKfFwI0yZ0UA5YcXfpbG4dX71PA2m2qC+a9vYLA4wwnft+T97P8v4U6SOu/Dl+nlYen9NJoxOe4sXHtdQrCArh5y6DHd7wgXcsD379wMEvV37RK5zzV74Fz8OC525ezjw+hsVTLnHQL68UJAIArpAI5zDFiTnxeqJfsOhKNVZajCvxU1rgS1CI1nH8vEC6a9QN42EYh2GKfYpF6uwp/epEUjVQEo80mGkATOdhcIeBxHmLtAuCYV9uEqnDebzjuWjgjcz0J30x6y4jjXtOfHrkKs8y3hrcvIwIrPFTmKVNCpvgkR54WlpNruh9RHs70UaY1aPNJFgRnqktUn3RaZMwTXXApcfaLk4ux+Idt7KcpfZROy7bhDtTERiY0gvCAdqIm9LZ/F+4mzA0UDfFAxcPz3cWXgcTL+iI1y/ywg9c5ReN+Cl8VVd86G965Icnfn7Ki9LJw9Aq37lffOVCq7oRLHcjrzyOsPIY48TzwhoFSIrEr0IIpvA6vPtlJBWk5hczE/3w0FtQAkNzbl6ovAH9qTQDH9zVmkVS+ZN1cGkA4k36M9/tqAYWanl1CQ8Q7r6Axtnyj8/WGXeMNmSPC5i0G4L2QZ60i4HywHUA4AO/6KZvJDDW48IRPB/madfFlQCSqfhC71OGJb8az9UH135cj0jCxjUqzAwmQQFvl1oqPG1aCU5Z7aS03PHqQimpW95RPP8VnY6GS7NqVgIj7wuE9QtJXvCCE/vPBYTQ39bFAVuXNnD4pj6W8iKY+OR09+OlfCqv62jFN3cZbMKPAw9/1GiUX+U58hG9cGJelbeIH+Nz+IOElS40KrvoXVBE4DpkweTGwgETfYyPOEoMmHAdljWu4iJP8Ag772ofmM5MpTNUaQAuRmaXNdElGG9aH45LjQctIE0PZAnLB1Rl8FaWvFnv4PYyPwZWLa660EApQQiQoaUr7YIRneZHxLsR4govwdObHUHl9eINkYasCwcvZEXgQiRPJ4X9qDrCrUk59LZKgz11ygTzevB1kiRgUnievjytpmTkkzUKPam2FEqu5zW0L4tu3g6raHX7eLm8hjKMFFxHqzZfR7AOP+Ipf8DEh7e56KgT4IKh2isu56Mw8fyg008w4eRu5EkaPOIRtYtN6QufRcyYVmrTxEs4ypMnEgSnwpe5ytc6POWVNPTIvzyZKQAIKngOExwcxeUwhRWvBBM8bmkSU3fsyBNa8NNgFwdcrQdE2GpeoK3p0xtW2IIrLFd5Vhg8PYqj0dThiIvpKCwauaKNuOKtt4s6D+G8Y4iPaPKw+APHH/EU5xqC6qT6XBx8cF0jkiBlN6nyRz5Kk7hN+Ys40PIDP/ITz3XwiCde0VW8XPECRzD8qstIm+MoDrrIBz+/yC/SKk6u8JQmfUN9BDr8ERf//R7lR3xz3ERf90HCaUE71QF0ap86rTReap5pvNXxKZU6vh5LxABX3IVLihUBM/xiqjAMBIv+yDTGK0FcFQS/nkgXYclfV25KXxirrvIcXfwxH4qLlDkspVG/UYQrOPkXzWW8RbvJFT0dDD+/6I90SlPbo5oKJPUmYYqf6AivTCOqjiReHk9HqAio6SVMwiPAxFf0Cj+IK9qYV8E28YnxkQ78GLcuLJ6ii/ixLwLnF/HkFw+54qG+QJvxrMMXrmg3ucKTuw4vxdV5jDhKGxz8NZ9qKrp8ASSqOn41LD7reC8FhRIRspip80bidX5lEDfyEN8qSyukSiMCIywK4QiP+PIrXq7gypfC0VU+BROueBCOOIKDL1zREhdxhRPj8QtP9OJJx0vTKVFcdFm38D8N5GptAkylLX6Eq+VST9PhmkqtGWSbeET4xRx9OUjM64NyWkcrWOSlegGmvqy6F57ocOVXXO4SD734SlBIcAhfeOInl3jR4o9w0V7m1vQS86s8c3rw75cf8MERX+VJdMSvCAoKGyNFIFcMlZF1jImL+MJdD08aA+nGJ6cnzK/eAo3Yq+nleVrFvH9I6YqHsFPataSOdQROji+6TW5MB7/4qx4UL97iH+GbeAs3j1eexUN40Y3+nJ6waNfFRdgmPOBKI+LLv4lO8dBehiNcuRFfacd8xHjR4ObwPCxc5SnGx3SEF92IG+Gb6Gp4ws7DQAWL/KqVrlVQFRL+pryICDxw/h8NkLjDkYdrhgAAAABJRU5ErkJggg==;" vertex="1" parent="1">
          <mxGeometry x="380" y="131" width="112" height="55" as="geometry"/>
        </mxCell>
        <mxCell id="UkXh3p3jf4EQIE3FmK1C-13" style="edgeStyle=orthogonalEdgeStyle;rounded=0;orthogonalLoop=1;jettySize=auto;html=1;exitX=1;exitY=0.5;exitDx=0;exitDy=0;" edge="1" parent="1" source="UkXh3p3jf4EQIE3FmK1C-3" target="UkXh3p3jf4EQIE3FmK1C-6">
          <mxGeometry relative="1" as="geometry"/>
        </mxCell>
        <mxCell id="UkXh3p3jf4EQIE3FmK1C-3" value="" style="shape=image;verticalLabelPosition=bottom;labelBackgroundColor=#ffffff;verticalAlign=top;aspect=fixed;imageAspect=0;image=data:image/png,iVBORw0KGgoAAAANSUhEUgAAAQQAAAB8CAYAAACPDs4SAAAgAElEQVR4Ae3daZOlWVX28azqBud5xIlZRAlHAl+oYWiEfiJ9/3w0wzcGKiCCCiKg0tCA86xAdz3xu0/+M1fuuk8OVdVNDWdH7Fx7r3WtYa893MM5p+reV7/61QdnZ2dn9+7dQy7Kgwcb+yx6//79TVb/Ajh0ydRs3bv30qLz+pV+uHTu3TvoZ/vBg8uYwpJpq6+/fmlvymGyGT4euhbYvbLaXDFTzsb0CZt8tR8/e1OeDG184W6i6a6xHLO/Zy9dtDlfcfzcJr4Zz56NdXzhw4ohXrSxTBl8cm0y9aWXXrpoH8Pka+rHm3T6Cyv+2mHhlPhRvOKaWPJq/LBnZ4f1fck/7MHL/tq6Km8/FXuxFGP85ln/ZSYDopjVNdD4hZEefmXyljMmyIU/jKl7AbjY0A8fQuGLZY1x2jg2YelkS792+mFuijF8+unVTx4ln2XF6a+Yib9LO9t79uSmhTBtTqx2NqJh1378KPm0hZ9O/Gg6a3/Fh4sek+OrHTjhosVi/JMXH08s5SdM/PrFG01efNmrD6emH3+PHmwex+75mnYO+pf7Mp8H/mEuZptc3Q6EjMeMljD9tTCm7slgr5Ottvb6h8k42C/wcHxOXu3i1o+XTjT+Gjd+vGOYbET3cNkIM2n4eMWrP2XZuLekfdwwbSbohMVIvqk5eF6/NJD98Gt/xrAn2xze8U++9tT2ZHj5nvGs/Glv4id/tmHyF8WbuhOTLL/h0mU72fRz13Z2s7fqd+2YvmacK/6u/eyiqvJyjYSYMyETnEPyDosCzM7Uf/18QcJUZjufeAc7rwU77x+/qvD/2msH/EH3cvHPGNa4yBpTfuNdOL+mQacy2/mJwkx5OpNObPiuahtuPYiH72nnWLs5Ip++1rhWGbl6JZZzJ8mOyWcs2YVVULyVXx9mto/Fn63N6PkfetnPH/1ZYLIfdsrx0sVv/PFWebrZjMbf808WrvHVTw/NVzL0/v3LtadfXFNvtsnTz16249fP1r31HcJMwgx4z8DkzUAmP0fJZ5+v2U8Pb/LTTV4fxZv4PczEz/Z1PthZn0HzlQ36ePncsxc2eh0mOxM7eXM+5E58s4TlQ20uJ2Zt0wmvXZ8vB24+6cGRN29h8dcSduXPfvp4xcpfZdrIBx1Fv/jSYSM5XnGGT7ZnP17Y+ukUS/18wsWbunhqcWev/pRPXrhpa23n75iNPb/Tbu3GlH397ZEhQI7qN0kpxG8A9Y9RuLCr7T2dsKss3eT6av0Vf9t+duGzNemUT0z2w9ZHp84x+cRMu/HTq5/92W9BxovOGGBWfran3+xPGb362ag/ae1shJ36yVZKV53YaQ8/e+nOftibeHQnRj+/2c3WxE5euCh7q4093WzkPwq7yrIdndh46ORnY8r3eFNee9ppr185EAJGU8gBirfyw0fD1Z86k5fdPXt42amd7qSrjWTp1r+J7vkoLrr50Y6P1s7+xO3FMPHaYdKbtCtcmCbNRsfTn/bSXXn68VC4sHM8jSH83qFDLxvhJ00+ebdpz3jCT95sk89+Y8OrfV2M2Y9OW/HQbMULFz96zG/49NeY0pt2YCc/G2GyNXHaqzwb4Y/ZiQ9nPV35lCHl6ATj5TS6ytNDyVrAk0/3Jr3sR9NPN330GCadu9DrbOWbvfzjpRMvOmUzhuTTTvI24LF+vlB26mcTnXx2wmQzbLLk2QyXHJ02w4eb/fznY8rCrxRm4rTTj646x/rTzl10p94x25PP9oxz6k+/kx9+yqfN2U7vNtipd6w97Whnv5jSI7u4Qwi0KgMnm224NvzUmdjJp1s/WiDHaAFPfPYnb9UPs/Lv2l99ZDc+qsZnX7t+uGN+u6UPHy4bHRD1p710imHqhmt+yOJNnHY+tLMZr2f0fKBhpr3r/OTvGM3enpxsla/9Pb09Hr0Z8+xrZzcMalz1k9/GNsyKn3ZqZ791sGf7GI99dtRjvvZ0J1a7GMJeHAgxJp3K8RtMgdSf8vTQKV/7U6d2uvXRfCWbNidubYePv+oln/zZTk5fe8q050bY8zHx01ZYvGq8fMWfeuxNm7M99VbctF17tTv7YaLsJY+S5X8u6OTJsjHx2nB7mHBke/md9u7SPubrLjYmNnuNl2zy8GdeVtm0lS6dmZfZnnh8JTnb8aafdJLVj4atL94rB0IOAGY7hUnJGdgrOTo2oXRvsj8HCbuWlTfxsFNePKsN/VU29SZ+Dzex5GGiUz5t1U6+h8dLfizOVW/iZzt/k077sOHj62vP/tRPJ0y4MNmrv1L4WepPvXhwsz37xREPbtqYPmZ7xaz2V3n91rx+vHTrF8vsr77pHNMLm7x+9Bg/+W1pY5n4KwfCFMz2DKBEoAxO2dTR3nMYZupplzw0WXTVCbsnT0ZnlWcn2ZSnFw2Tzh528sKhbEw7ycJHu12rP3F4btmTRafteKte/eieTrposWrXx2v+0p9ytou/dTB18x0l2yv5Tjb7+U2GTjm/YYotLP7qs342wsTPfvJsHaPpT/nkZSf7aPJ4+isue2HqT5reMUx+6GR/6hfL5Gnf+8pXvvIgBaAVuPabhLkYetZksHZy+sdK2BYeXLFEi4ksW2TpHrN9F35288++un7OP23SMcbryrS74thPrq3MfnJ0Tw4vPjrkxVIu9Zur1fbmbPjTz0fY7IZNXox7OiuW/+La05u8dKP5q4+Gn7KVt/bTw6eXbrjsX8eHbSzGoy/3X//617e2/mpP3xqthEGLQ7v8sD9l9GZMZLOssuT4bKLxotPmlE/+xTcVp7MMFOyUaZOXoPrp4KtKQW+dnT8vv3x5gzKxbKnk+BKrNojk08/U5wpm5cUvFDbDobOsfbJpb7an3k3t6/SmjP9iiGZbH9b8lAOyiQsDN/nTBv0py390ytJLVj86/eS7hRkGnfq1p594U6f2KjP2qQs3++HR2c5ecdZH4bKhXY6mfu3Wp3512pr2ybMbzU5+Zz/dsGGyn3zPL8yqN21nAy9cdNuRdaIp1EczGA3TpE/jyW6idOeksqHiV/lW967W+c7PGtvcLDCNJ3y+w6369aPp1V/tJY+K77qSPprN8PHC4E8M/szRKidrfNlEs4fONhl8PtDkU3+2J3bytdOdNDyeWn/qhp+8Y21jDF+802bjiRcWVZuf5MWdrbku0kGTz7jikSv1a+vPeKdumHjZqH+MsjnLqld/4uKhjV87zMs6gWJGpyylOagpF1h6MLVnwGt7+p3BdSscD80mnbnQi2HaKhYxxI83YyjG/OjHm7hj7Zuwe4fYtHVMvzEVVzoTD+MK1fiS6WtH4682yKd9fVWhk4309mgbJr0Vk+/pK15+Vp279Kff2c4GX3Pd5LMYzI823Xja2cKbderjz/HXDoN2BzrXa/Ggc/7g53zoF8e0qa0Ur/aMORn51J/tzcBiP952INTJ2EqnsZyjBWXAteNHp+1j7WyyoZYYNNlMXjxY7WNlTtIehv0mK9+ocp3d1VY6t+WHW31kp/F1MIZPrg9TPxp/2k2WzYkx/uT5yC7+Tfmz4LOXfpR+8U+bK371v8qzt1J61TneieO/tdT404HTTldbqT/xk58e2vrUVqZt+m95y1s2Hly5klNxWc8dGLAzlmzFL7bmIz/kawmLv8YXduqvPi7eIRCsDmY/RUZzmmGBxgs3denEL6jVjj47c9B01Mn/xje+sb3MabDFkP980YOZfrbO8icfKw5/2lzli5mL7tRpLBfCpcHHsULWItqLBS/96XPy05tybZWs+Ka8eMLUP0anP5hpqzk6pvu4fL4rtfOvz3/jmPIwjT8bK92LP3th2c127dbrW9/61g3Gjmo+axNkq3iyUz8f0fD14fFmLYZkYSe9TnZxIFDIWI4NzAAq5LMPpz8d1EYrsx0P7QTvpHRq4inx/vd///fsP//zP8/+67/+6+x//ud/zvS93eX7a1/72pVk0MtXcWzGjvxhY+qssBZMuOT18xU/usrrJ48e4yfnf2LyN3lho2Hm+NmRV1W7mh3Y9LITDVM/Ou2nu4edMu30YJOxufbzc4zmK5qt2c8XG3vy1u4xH1NvD9NeYFuV10kdCOq3f/u3b1XbXUN467hS3Ht9eAVGTT9sNH40m1G4bKHFnz568Zo/Rwn1q/EYMeiJjZfxHKZzE2Wvhcruf//3f5/9y7/8y9m///u/n/3rv/7rmTsCth0W3/qt33olufr8VfNV3Hux7PHg17LHW3Xr72HZSz5tT2xyPO3Zj3cMP21OXxPvUJU/B+f//d//XVQLEd/inPmfdlb7t+nnu7GYN+2Vz1ay7MI0frypF2ZS+NZieHT6Wvtk+aHbRWdPH++mMmPMr3Gxi1rLChl/3/It37Kt3+/8zu/c1vJ3f/d3b3LYGVs6KL3Zz098Max52xRGLtLJTjrx65Nf+ZQhQHRv0nIWZQxe7equ3TNSNgraYvy2b/u27SoPQ47nAHj11VfP/vEf/3Eb4Hd913ed/eiP/ugZ+v3f//1nkgev5K+kFMuJXp8BeXMwdLf1b//2b9uidddlfhwQctxcsdYcWeTN72w3F3RU/RelNN69MePNja7tYP7nf/7ns3/6p3/acmltOxy+53u+Zzso2OsCqK1Y43TV1ru2Eiaaz014RJ4eneZzxn/xD6TEBMxBjnOAwk15C4ZMm9ygLBplPkfRw8cTjAX5D//wD9tBYFF+3/d939lP/uRPnv3Ij/zIliCY4mG3GEtM/c3R6c9DGWie5Kk2kL65lV/z8R//8R/bXZk7MgeGeWyOWojlPCfpt0ay35zUD/880nJjrGp5xdeWX1SO7QntMHgehenJtQueC58DQq7Dw7UPtPPlIhr/UXIrDrbWsh0IBUqYQ238tcTLmKCcfD0bFSi9EmZw8AbqtkkiXnnllbMvfelL2+J729vedvae97zn7Hu/93s3HT7YnSW/K52YU/tqBspVc9Xc1ievTdPcORxcxdyx6TukLVhtWPOsZDt61fPNt/wr/lnuy0t50LZ2VRe5Lo7l2aZW7Q1VXr0bcxDTsQd+8Ad/cLtrsF/YZYeOeVDoObTZVrJdu1ii8eFU/CnbjJz/ufflL3/5oV0feL0qTEXtNm2LhTPBxm8QqIPAwL/whS9sh4EB/fRP//R2N+CWSYFLN5sF36Cj8LO9GTj9uZIBuZOj8lQu48/5nTgLzQL9+Mc/fvaXf/mX252cheowMEewzXO2cpwvfbLnuTR2Y5ZL+fFeyyOxzWtda3upSG5Ny2s5pCfXcqnaH6o9QMcj83d8x3dsKWxvuPjC4msrM476a+75mnMTbjMw/my/ZRj9rZmx1cCKIy8YAzPoriYGb9MbnAG46nzmM5/ZEvCud73r7AMf+MCGnz7gspcv/SrexIc50f0MlKs1f/gqfoeC3CsdyNrm9POf//zZJz7xie0Qh3eww6QPl5/NwAv4R+5Um7YqV/LkgPCuwFXfBvdYIOcOht7dwKYn5w4FMjiPz/TspQ4AKda21+hWmgc8tbklj7di60cvHhlioNPw5K8yOIEZtGJQgpAcAxCEgVlUXhj+2I/92Nkv/uIvbqcbTAGX0Bk029mD01fDoPqncn0G5GmWmbM9WXNC1uFgfrzvMYcWsvlOFn76oKvuySbuWW9bn4qxypHNLD+qC6JPyzwey519oHhX8FM/9VNnP/7jP372Az/wA9v+sYfoKx0M+l7++qTC3YB3a+44+FDllt9jZc2/fvi5l1b9iwNhgoHafA8pnG/KMILrTkDbQASrSohbTu2f/dmfPXv3u9+9mQsjaflNJ79hGki4/IZb4zv1LzMgR0pUW17LqZyTJU+mT6ag5R5tkZK5W5jztimc/0ln8p63tjw1zqgctg+sbxtaztSvfvWr26GKJ2+u/B6bHQ6wDo+KQ4XNyf/hH/7hTcejSfLmbsaSjWIKE79+8vjo9sgQACMQOhfDVJq4HhGcbOxYJAbhheFf/MVfnHk8+IVf+IXtmYiehFXZp6PGgyme/IslXnHs8ZKd6MMZaF5J5LLcyntzjT9xZA57Bb+7Are0LWo8dc7laufhaJ4PTuMsZyttlPaDDexOwMHw5S9/+ewrX/nK2Re/+MWN90M/9EPbHnEwwMitnDpY9Nl1WNB1V+EOwz5z1yEGVcm/drEVQ7xwsOldwfj3EGIEyLCgaqPTSHcGFkK3OQ4Hi8gzp48THQROQBh49tr4Lch8n+jTnwHrY1YfU1qwXoC1Vtbn2nVUrSF2Wlsr5lnt742n9U6m6tvIDgiHgk/b/u7v/m57b+Cx4Jd+6Ze29w0+7XGQKOnYZ97FeVH5vve9b6Py3/5iX17he2Qvz3jJyy89fAVuo6+++up2IGBUCShXplFthpQOAqeVYgCf/OQnt28YfuhDH9reGbi96RaqAwF2DW4zcPrzVGeg9RE1/xakg8Gh0JtvixFmr6zrag/zrPCMcY5njbscwIRD7QdVsfF9Ucl7ts9+9rPbwfpzP/dzZz/zMz+z7TN3C2FR+XanYCN7BPdOooODPXNiz8E1D/lHi2nGOvm7HzsCA1U6ADpN6sNoC1TbnYHF8bu/+7tboB0AAhYcfbWrSfZP9NnJgAXVomp+LWqPES4MXjhaC2SzpIPX2pq8iX0e2sZYrhrvHBde+8J3PuTP3vnwhz+8PVJ41P7VX/3VbR95Kdnes+EdCHJu47/jHe/YDmJ3HPr2o8PAnZp9WY5nDPFmPNpbzD0yTIXajAuAgTZxsgJs0H/8x3+8BfBbv/Vb2yAKrAOAfiddC2kN6NR/NjLQgjLHCmrRes71TTsLs3URtpHNfmsp2fNGja/xzrHGM177S/5saJsc/du//duzj3zkI9ue++3f/u3to0d8jxoVm97jg/3lS32+QCb/9paLbxfp6StdFH8vvpd+//d///8FAJo1A/HmoMi66rszcGvzm7/5m9vnrAaZsxZNB4v+PEzycaJPbwbmvFsLFfNoPvG6M7AorQtlYtloTaT/vFPjP5Y7Y7d5K9py6P2ARy8vD31K97GPfWz7HoMXjvJdDlF4dwuqjyT1HRTmBM2+OKr5a25WenEgBJxUABQ4EIBNrbQIyD71qU9tL0d+53d+ZwsqfCdf9ujTU8gsGrxTefYzYD4tPo8M2m5/ldZJ6+fZH+ndRtBmo6U9+3jWPx7a/tB3h+WK72NGdwYOBXcH733vezecdoeudzfuLDx2dCj0+Nb+Wv02inzP+K4cCBlIQZ9SigVN7pbE21H1137t17bbGhNvQVQdKKrFko3oi7pIyu2zQFsP5uxYaX49D3eVs2B7PDTP6rTRGpi8Y/afdX45bBz6qrHL3ZqfmSv59JEkrO/zOBx85FjJljsDd+juFHwr0l1GMlQp57PPV7jm4mVB1clR/SgMRQEyYrJN+uc+97ntYxK3M0pvO2H7CDL7PdPgK/psncrTm4Hm/7oIYcyltdFcu1L5GbsFrMBkC21RRq+z/zTLGtNtY2wflZM2pAtovHLSC0LUl/rQP//zP99y9+u//uvbC8heHLpbcBC4S5B3h4ZHhmyWf1QMk5+/xrK7I4HUAkYbDL4BuI3xuanbGIuh0pvTBkm3zW9Q+GxpF0QBz+CKIZr9Semlw49+cU4ZHX0YhU7tae/UvnsGyn95L7eubObd7as5V8s57PNQjPWm2jjLk3XY2kw3HmzrNGqf+P2DjyEdDB7R/+zP/mw7AFrzsN47OCB86cnLRodEeYYzF/lD65OpePAP/SOrDQDdAC+/vF3528w2vM9MOfQDJZRxhdEC0a4IWGGvtjuMbBZUgaWnr6SjPe2yF6YDqMOp2FGVnB0+lfxvndOfR87AsbkxLz4jtzgdChZsOacz5/GRnT/nivKkyqV3BQ4EefMrVI8FLsY+qrSmvUfw3sGnPX5R7AuB9iK8/dk8ZU/q7Iu1PHQgrBPlABBQJ4pbEj9y+eVf/uXtt9vxGbbpOhD0OSenr5Kzb9P2SAEfDpbMy6k2Ljw9wRcbvMoGqpDRr60v9uT5cStFlv9N4fTnkTNQfuXUHOmba9RHkL0F78trMOZ2bzE+chDPsaJcyp31qviGok9yPvrRj24vEf2K0mHgPUJYh4LfTfitBF57sPkxN83bmrrtQDCZlQnUZoyhNuXf//3fbx+J+OzThiNvgqcd9vTZaLHg1c9Pm9iGNSjFlcTBY6A2sL7awGA7OCTLlcjpaAGyK658tfCKRYKUNdaNefpzpwzs5RCvai7c7vp6bi+8rKPmIGethfrRPfvJXgRq/NZ6FzZ3Cdbz+9///u2R3aHgez8OC3tDhfdvVzgQ7Afvc+yV5kTu2xPlfeb5yr+6vJdkm90bTBvPxLr987VkhUHyDosc43eIdFjACLYTy0Y3EP0wvtvtdsdtkMGxQQcOBhU8W5LkpFTosONQ+Imf+IntzazDhb4XW2yIjQ5eMeCdyqNnoAW1UhabJ/NgYTrczaG5MLd0zEPYR4/i+dWUw9avnMmfRwV3Bd4p+PKSnwp88IMf3B4V5Faxzq1tX4n2qIaPV7EHmjM87Q6Fg4WQC7XxgB0GDgLvDrzB9I82uGJzSs6Bom+jm2h8dMpgBEZmYG1ML0J8O8sPovhywqENkB6dteSvA8JB4leWDgaffLzzne/c/Eiq+LPZ4VQSVrun/t0yUB6bI33V/JpvdwnuEBwKrlitjfSmt2zg7ckn9nlvy0V5tNZdmF0U3RE7FHxt+dOf/vT2ct9L3L6p6PCA8alDOZ97Ud6yvebw4kA4lnwTaiO5O2DUM4xis9poeE0iG9NOGxZWmy1yfQeFZx3/ipJ3Ek6yftYJQ94dwbTZYFAbW2xhffQC27/DwK54fcHD6co/nQ6pbSCnP4+dgeandTANyrU5skBdsVxIXAzmgpx62Zo2XuS2detihqrWr+qi6fcOHq39MwM+irQX5Q9OTu0zF0n5NgcOCvKZ7zW3V76YRDgnpM3u5LFxBfD2t79921iwbWxUkIqNr3JegPoNxMbHd8C45eHPHYcTjx198ga/GT0/0RoIjMqugk9HwXeb6qokbr8g49uhQCYucrzsbYqnP3fOQPmLMlAblevm0Vy5S3AHaXEqc86a00nvHNBzpuAwdRGbF0b5LEeGa8/8zd/8zfZY1hqnI7dw9oDD2KHA3k3r/uIOwQQy0IRyZvJMpCsumcNA30R3lYXnZE7u7OPD0vcsSddnqR4R/JNqFocBKzBtcjrZ3ITnf/ibMa6y9PH9a85uUX2b0knpWcuBZGGWWLHy726HXW1XMbQxTh+n9mUGzFdlnZPm0nybR/Ns/t21oeWWHnn60+Zs52ePhstGGP3pRx9Wndj06cUPm609OjF7NvZ4e3au48mNHFZsdsX6dWHzSYLfPXh08AhhvGSoNSzvHsWte/GwF2UHzjgay0u/93u/t/24iRCzkpJgXGU5dYdQgudg01kprCoIwdFxe+M53+GCJ3hyhVwM9Qv0USmbvdRyu+rNq0OCfYnNn0PBQcJP7ca5junUv3sG5FWRb4exMud9ysNtoBv+0GNzFv1qdslrh9/TXe2kM/mzna3Ju05nle3pT1vH2lOv/eVfX3IX4ICwZ/H503ax8wmFvRB+rm+46mEnDs8EHKraXkyonu8zmLOhtttkw8QrNqFvWPkkoX9b0YHQ5m+QfFYK8lFpJ6XbKqenOx4/02aPb3SOld/iiBbLid49A+UWddBaP6qXYw5k60glX+nUPdZmc5XNKLMZ5qZ+OBT2pjrxtadOvOiUace/K22M1rXqUcEdgDvh7iZc4FTrXJ68XGy9r/spe+j9gplMbXwbyFXVM4hn8p5NOGD0pmJD0rEI3NK4SvtYkG7PNPxIjjJt4q+Br/2b/BevxLh1cqh5QeORhS3J4pu8ydIuqTfZP8mvz8C6tuTcwjUvrlpdyebmYBFOSf8YhVtlM6Ipa41lt36Yqae9ZztsdOrEe9J0+tBe7TsQrFlr26a3X7vYwduD1r47M/luXF2IV/tX7hCmM0DP0jaxl36MmkiYjE587enApFsAHhE8Owq6q7aA2FG0Z8U/FvC0D3ddZUPCYMSi7fcXnqmcpmJO3qJkH77xnOjlLfhdc9Fc0ZNTC9Ktq5xbWy4sbcywaH4mb6/d3K/42a8dzY5++tNnOPSmcgw77d5k4yb59LHGJH/2k+ouQV59hO8CrIjDYeHi6+LuYqi/2oHNz8VLxQIzQW2OThWf6+fApHYV3du005lDxO2hbze6y9Bn2wkmOAPYKwbC9rS1h7uJJ1EOAva6dSp5PuXw0Y2PKjs52dMWl8OP3qk8fgbMuTVjAcutBetqJtePM8+t0zVC89bame146KxTP8zkHWsfWx/iuk05pr/qrrhibJ1a0/aWfepiZ9+S0bOOtRV70Xo3D+pa4C/uEEoQkAFR8D0Bp0uf71OAWwNcDevDCMTdgdPJS0k8C0OQBmAx4O3VbOzJbsvjVwwWYInh35jcuThNYdirlOz6J/p4GSi31lQLswuDOXEoWGutv/Ifvc57eq0H2NYuygZZF658wOGnXx/O+mhdotfVYsxHesWzp5sMvW0p7mh6bBgnypcvJ7kAWtcugDMe/d7dwBd7tqIPXaJzKlk+w7R5fEykz0EnPboaXQfZjyx8vAhb4KueYMjSL4b6BXtX2gJ0e9qhwCa+09Rh5fsPDiuJVMgsUuOT7FN5vAxYM21OVzJz0bw4EOQZv/mfc763TmY0sK1JWPOmtn4cPEq2408f2mJQ4+e3/vQ52zYY/8WAVti4SV8uHqe4mBmjtSt+Fzkb377je8YAJ15Ye4G8+Bovuv2WISGGyWOcUbd1fsRUIU8ZL6zDQqGnjapOqm5nsi1pMAUTzQdaPJP3OG0xFGt2LEqPDN5tdAckZguKf/hTebwMyKN8mvPmX14tSLm2QLXxYMLxWv7hWi945rI5gtf3Is3FC67NAUuXfRc1j6zaNlFrVEwwPkXzM21tZcZRBloT2bV+XEz49z0dFcPE/nsAACAASURBVI9NFE6breJn3yGo2LzWXwX2rkVMHap8isWFznduHDZ8V8n4aD7E15j4hVMe+vkzZokFkkSFcoXhBhAlqw0rIMG6u6iwB5PzaTPMm0mNzaFnMZkcyRKfavIaz5sZ0/Poq5yi5tz8W8A2r5xr47U+Zg6aA3rmxIa2uBX4v/qrv9rs+AKaq2AvLZtLc+vgMc9uqa3H/NKHs1ZVcVSKNYqvrdLr8KDvfRj9Np11b8MpsLNtb7GhdCDU35h3+FM8cqOKXw68QxCPQxAGH228+Uufy3hbBhibQkH3RlKCyRibGEbS22ubAHbmC0n4Tibtb3Zx5WixiFNsTeA61m92rM+qf3lUyqd5V7u1tXlsJIu2jdPamLpkNmHrx7x5WW0OPfLhtynNIazN6u6PfXe8XiT3n6Zan+HYMP9iajPzLY5imG3joavwY4+Q24z0FWtfmeup+Nlsk8LkY1N4hD/Gzo9xuvPwYtH42ntk4lMdqNMf3iwXdwhAnV6o5DZIfYOZhjKCl9HkqFNKgKokCQoffVqKWCwGVwxVYsUrzhbe0xLrsxzHXBetlTZEG7B8k2sr9KrJbVpz5RbdZu9QN2++pUduXq1Zi9/jAGpzaPtGH1s2jjWu7eBoI+uz2YVQXwziUhuLNrtTv9jZdvfJ7jwEWvvZo/s4hb/ypM2X2BUHJl6+8MjFpBQrGg52e4cgUJ0GXzLb0PFhMrY1ltONfE6GxNDFi3/sYMnem0klwsR1WyleY2icb2Ysz7OvFlxjbE3oW2tzfa1Y8njaNryLjUPBgWDhW6ceBxwy5hLeesP3hTrfjnXFNNfmFkabHLY4is8adSDYPK0HuLDx2vD0jKFDJX0HhjjCa7PReMOTP0qZ8aQvB6rDjt32XfnId/xpA/7iH0iZAkoG47QxuFkowc5BTB5HHjdgJN0ksqGvksNP/Wn/zWyLR/LEZLyeuVCx4cvDqTyZDMh1pU2Opy3P6lwfsC1atHXjIHAIOBjMleJZ3JzFz54NB0fuC3atReuzNciuYo2qNjm7bMHPddoYpm48dujToe/QWddPWP7I4B+nFFuULXH06CIWfbTcahujw1BJt9i2AwETI6ZgJdOLmhQaXP0onWQc6Js0Dks2Ci8BqP7U2SL7JvxpvDa/uKr42qfyeBk4NsetAdTiVGFbL7ySpd9cmJdu8210a9Tip9fhAMNec2hjdzegba4Vjw+9dOOHDj/5auTsKNH40eLMZzGTt87pFk96az/+XShfe3F1IIjJeLsTyac+vv3IhjGIlfzitapOAyhBeJ0ylDJY0JOXDBVIp6WDoaThFeSxwWT7zaDiUjoQmlR56FR9M+J4Xn2UX+NrfTRWOSaXZ7WFmRzFNzdk2hZ6c4Titc5aW70Mzz6aTrzmm108pTWKijW/2scK/1NfX5n69fEaYzZnfo75uI6ffjFnV+wOTvE4OPHFWaziwKNX1VcvDgQCiXN6lOyMTIcSz2ADra2f8fRKPBk9pUQX3Mb8Jv0pURKntqjmeL9JoT0XbuVXkU9Fv00Tryu7vrXU5t0UxjsG64as9YayR89Fx7qdbXLzyR9c6xbl0+GST76af1hv6X1prTXKVm0x+OjSl+1gZ2EPzjsLn2is/unCuPP2zkP7cUr+UfGz16MAu/r4YkKV8oY3xxX+yqcMmIzniMG9mrIBk89Sf9qZ8qexXazF3pifxlifxZjKa7GXXwtyrx0OTdeCNk/6Nn+LHM9GUxUyxdqMl56DwMGizx6MGLRVbSWf2rB8VbTZaEPB8lN82cgnWhs2e8Wf3UehfLFTvI1l9aevoMn00ysudLtD0GAMrT378afBaXg1LsiwWyRP+R+xllhjrcx2vBN9tAyUy9aS9dUaazMmMx9kzUl9G1i7zQc/D4Ds2bD4+m6Zw2Uv/fy2oemw7yrrhTo+HXYqbMF4T6boszMPH/q9UA8P29WbTfrsPE5hW1XY0i5v2Z0+tOunF67+y4KbhSChgaoKXsbQiQsPV0BN3rT9tLaNp8Uyx9J4n9a4n/a45pqZsVojc23pq8reumoeUOsqDMpO/eawNQtrozogss+GNkqPDtzcBx4JeuFYTPAwdNmng6avn00fX/tItH5+sqVP1iGyDfwR/rCTzelLW21M9WFr061O19sdAsUqBUUSBWzQeFO5QKah2hK22kr2tFLjE/McV2N+WmN+luOSZ+uqjWUsM/fH+jDmydyk76reOrVmFY8GvkcAQ94dA747hgp7c56t3Xh0ugsIj8IrbGmng9Z3OPDjxd4cl9gVWDHDPW4xRoWfKvts52/6EGNrfcZWe/vfnzMYpeT2pkTPwHMKC5fO1lheWiRP9rTSY0l6WuN91uJqsYnbYrWIra02RWsKJW8ha5sbNBkbNmufJvgokR0HgLa1qnZQuPW3eX2ZiV2+2fNSUZvdsPTI9G1mdlvDxag/eeHp4Dcu8WnPwkb6qP7jlmxmC+XXgSRP+mHEKgfx93xvRyrgNAgoOU5IxjOQ8Qylo59TlFO1xIV/2miTUryNZ47laYv5WYxHPsuptTYPhJ7xw7QW0eanTaxvrmxmG06B8zVmz+ytOdQGRcl9Kcmh4FYedXjw24blu8JHfunPEo5cCVt/Yvmd+umGKbb6j0JnnB1u/BiXMdq3jRG2nHbw8ZkNetrbO4SAGFVKTlwJZBhGaWDh4unXRutHN+FT9mfG1uQ1PrT2Uxb2MxOO/JXjcmkdqW3y8hw1OPLw9Ofasxbb/Ba7OwA/s7de/ZYB1oXMhjCnPgJ0IOg7JMj8r150xUAvn/md/rTFoLKHii2MO2l9tthcN2C4bPAFD4f3uIX9Dhft4jAu1ZjLZRQebvVPvt0hUATIOKBT2Pe/3TpJpgE4VZUCmINhLIf4bLJnArWVFTP138g2v+vg82fcM77iTH6ij54BebVurAFFrru19tVem9Nn8nOjmSfrRmm9tK7wu/Lb/J/73Oe2ufMS0L9r4U7BbxesU48Ivo2I586ADxc4v4x0oJBnly9x9niBD89XcWyN5Q8MrLiMzZ7B08ZHK9PXdbxkt6X8dbiIQ5tfY5H3GY8Ymgv2tcu1vG/yGai2SgjcI0NO2lRT57rA4dMJt/bjvxG0OPfi4C95vvVXXrITvXsGLEy5t+ia99ZSMlbL+6Srt/Txm0+b2z8Gwr63+h4j+sdzYaxhBw5f/RzYrx7FwJfNQlfVh9NG3RnfVNjhhx1Uv/Gx82aU/Ii5cYmli7hxKVF3NOQqXlVf2X2HYIA927lD4JQzhWJB5GQT7PxhpxI2HhsFEeaNoMd8iIcsef1iKN76J3r3DJhjdwkzl666qs078z+th59zEg8uPd8WdCX0LybZ8Hw5GBS+VXcFNoF//t/dg4ucuxPr21psI1nnYsLrLgPvuuLAsS/SRfHEJxa23+hSjvhS5VYMPjY1fsWYtGHlAk47eTGK++LHTSmiBBJG2T8s4Z9hd2LmrCDQ6wqHEsNepTZaO9mTptPHXqzxovnXp7vyk5/o7TIgf1UaNo81gdqUrY05T1meepOn3bqx2f2S0eLXtqFRC97tu/WreqSwKRwa7JKJAU4MDgB2YK1z2OLL9x7t/Zp/At1XkdlKXxz6b3QpT1F+HZIek4yxYqzyZozmYF3f9PEOD3fnSZaIqlPGbYdnsAwbLCV1PV1yPCmMKjHszrL2p+xJtteB51cCjKdxlFB4pf6TjOVFs9U6kfPyLQeu0p7hbUKycr7mfZ278seW4gLFjouXtWojeIxgs80OY57bEGx2GEycjdLVHfa282/9sGmN01fmmtoYb/Af/lQxOxTdDYlFnvGNx5jxVDxjxyv30e23DCUYswkyQKeMf3xS0nsWMzY4RjNybLwFw6aEw+frmM6T5E9ffFf5KDYUbmKfZAwvsi35thjbeC1Qd53480LRHKD0lHjlcM4fGbuu9tpd/fEU9s2tw6I48LPNN7lCv0NK36axXtm4rrDFhko/22KY9q+z8SRkjbW7E+9J8IpHfPoOTMV4ZwmHtx0IGEDorE5dA/N/0Lstc6KokqWshqeT2gUmyU0WPe3b6GfnUegcKP3GJibjcPVYMW90TI8yjmdVRy7lF5VrVe6tp67I1sGcgzX/1/VtAOsqP2zmwycJNkJXQesYLmy0Dd3aEE/ro/V6LP9092LnM3/HdJ8UvzEZt8cFj0cu3mIQP2o8cB2e2mJXZvz6V37tWFKiPYfNxwZJ56iEXjcwOI4FhJq8yhpI/CdN+Slp+RSPBIpJjPHhKunVP9FHy0BrxcKUb3n3caCXf2Sq0hxML3iTv86jtWguw7HNns3oij3t852tqZMuv9nXtlbpXFfSDccvnjjejFK8qDF5qemfhncnIMdiEZsKI19KcRejPrmy7dAmBdOgVAlhwJ2B34Y7fUwipxwKgKOpO9s5LiCy7PKDLxD8AsJXC1j7ugJX2cNOW/lDLU7j6IA6ppvtE93PgLw15/KqzDkhw7dB2qy+KCT/1lYbCFWsKTrNRzY34fizyutnA51raqheNOlMvQTxxHjXMnWM5XFLuSimuS+KH49fB6A8+tJVh2H5E4tHJ3JtVTv7+uzoX/ybioLPIUEKXvz4WMcXP9yKuE3z4sItGUNKARckypbATLw+HXg2BGcQBagNw686bW6dI3/yTzx1JULlW7xiyaf3ISWPz1N59AzIX4suKzOnDgFzrJh/c+RxQXEYN9cbY/yZNgb7hWvu5XbNjbWMZy+4ULtoW/N49O0t8+DCrsDJ/dw77XvyKwcCBqGJMpGqjd83wfzvzR4jBIEqHM8g6+dEUPEE5uWPl5U2qD6cANFwxbE5uOZPh02JQ/Mrdvb4UfhyGLgzwE9+jfmT6BYZaM7kfS14Fp67S2vKl4i8pLY4zQtehwI7SvZWWy9iXy728lou5Na6VhwC7373ux/aR138HBYOh0r5br/gaz90ICSwYRQT5nNa/6yUO4V3vetd2wQ7KGzkJhBtcjfF868vt+ltXhvW4jAQh4yXlh0YczOnfxOlw6c4lGxpGxwZKikOIocBnrHBnsrjZUBuW1gstRbwVfPiWdacW5D+YxV573sB5iHs1H+8qJ4f7ZnbOar4Nrj8+c6Ei6yvc7sTU2DI1e4OtO1DtD1APzydy7d8G/vwx6Zpo7kTMIEc+k8u3va2t12c+m5PGGSoOo23YfG0VXiHhI+e6LhSCDKMwwKGf3KloLfO8mf6JSp2bf4kS2WXjC18etfZXdycujsZaH6I1nmQWwvPYeBg8Kjg/YGLgPk2Fx0Imc7eaW7KyCGv9eS0PFvD1rQcq+9973s3GV7F4SDX3R3Qr8LUzibele8hZAjQZLkLsHm1fU30U5/61HYovP3tb794j2Cy4Rltw2sXGJmSzELQdotjkVggDha+5mZOp5jQbMWDbzBkydmXJAeBuwJtWEVcdNLN1onePQPyqMi79joHDgO5tyD/+q//ept3FxY468YcpDvtZPfuET1fGuWm3KKq9a0q1rdPFnz3oPcJ8mrf2mPeAVbk3Pp3SHTnTjbz/dAdQpPKaJOGuu3oLqH/JcczOR4H02hO2BA4mbZSn018i0Z1IDgYLB4xCDydTXH5A1NSwulLCnuohDjM8mVxKnSVNeaNefpz6wzIn1yi5bJ5seDMg/x7Ie2R0wtl8+yuEN+8NRd785HNWwf0HALLQTm2xqvWs3z6/yrtl/ZD+0Ce1dZ9Oc7mmi5z8dA7hMCEnHhcQE2ur0Q66b/whS+cve9979t4HNpwOWuCUbbmZhUofhh9cjgnnU3cLQ67DodZ0pu8dOmrDoES00Egfrr5KtbGOu2d2nfLgLzKo1rbAjSXDgUL9jOf+cwmN5/mAG8tU7/2innR+u0X4y7HeFXr3WHgQuriDGPNa8u9Azhdc2Ne5N8eaW+sOd0OhCaAkpoRSimbTG0/dPr85z9/5gcdAvGyjg65jZctAbkKrKWBxddX2NDmQ1W6iohDLTYJgTVAbX6nb4NWySr5OdaPf6K3z0CLyzzJ76y+zGZBfvazn92+x+KR0yHf3SSannkyt+awYm6b73jPG5WvvTHGkxfrvnWOP9e7RwUHggNA7syHfedR2aFrT848slVhpz3S3kA3BEfVFFAKJo4TxjhxCHgh6H3Cr/zKr2yLQEBhvcjwIhJekA0uuznXX2VhUDh+lQ6I+NEOnGxmz2DjbQZOf96QDJgX68Oia7Hh+ReKHAbWySc+8YltzVg7sBZpB72gmrM1wGP8Ffc89BurNVs1rjZsY7SfrG14e8zXANwlhNNObp92kLBJJ9uoEp+MHvuXR8aRZ2oT7WSnkJKPIT02uFN45zvfuZ1QJpwcVmE8x3PAm/D8T/LJm20DhQkXZU/twMk+GiY67Z3aTzYDzYHF6fC2AC1KfPTjH//4dpi7kjkMrBHzom1uFf3mDY23NV6AP3OdzrahzwNAbsuZPenxXT59rGvPtRf0vWBU6Kw2Z0rt1y6q+LAXB8KeogmiZALR7hQ49E7B+wQvGz1G+EgJFRxcwbOrNtlN/gxsto/Fkf512FV37U/dU/vxM2AxWYg2vzViTaiuTh/72Me27x24pXVXYF2ozePeOnjR5qsc2FvKzI2+feSwlVO5hrOvfD3ZvvNoIKcdwu7Ue8l/02GQv3zrO2guDgSMtQC4BewWz6Rroz5pEMAnP/nJ7aNDp5VvoblVtAAEzplJzuk8JFZfe/30StxcMNrZoztl+iV3z+6J92Qy4DAwB6hvIVqgXkJ7b/DpT396+8jLgrZorY95t2kdmbPm9slE9OxZkYO5duWjfSNfPYLb4GQdBl7aljt4OHYcFA6I8pt9FF5V6qMVsiu/dkyAEprsqr7JdQJZANpuW7xB/pM/+ZOz3/iN39icWBR0OjymQ+36aMFNv7OdPJ0p42MeGFOmvaezYk79x8uARWehupL1lXQfL/7pn/7ptiDdSXZnYL7gzalq7vBusw4eL8qnV9vYW6etdXmpyo+91n7zIt/jl80PI5/a8m8eyNC75DW/4mDzoTuEOUEAjCtOKzIHAr7Cua8yuxp89KMf3V4yOp1cLdw2OjRaAPANflPe6cePho8WPIqn1k625yd7J/pkM2AdWJDm2x2Ai8Ef/dEfbQvYN1qtGevAxUG7hWohz9L8Tt6L1m49y2ltG90V3126ryW7K3fwtiftNRjy/vUpdw7y6xCxJ6ryuea5vZM/mO1jxzbTqsDonETOFY8EZAIh71BgxycPAvVyoyBhpnM28rkZvOWf4msA2aTeIfWotm8Zwgk2MuAgMNceEyzUP/zDP9wOhf4JL99CNVcuDA4Mc6TtQuKAmHM2zL4wzbkH5EKVL3ybWq7w3vOe92wXYntKkT84e9D7BS/57TH7EZ5ue0R77hN8JT8oHQX24qvLBG1+QkbqZ2QaF6zT30dLFoSgfeogqA996EObQx8/kamKAbDB7ry1yd8GuuWfmcxH0b+lm+ca1ryWv3KKnwxPrW/+XBjcDbg7cMfo3dGHP/zhbS24M7A2HAYOAW06Fp157yLTInyWE1xOyt86FvJyOnMYjlyVi/IhRw5LOZND7wzkUL4V8h4Z8LyzgzcnHbTZZyMfeMUQz1w0L7DKxSNDgWeMUiWZYLTdAjKkLYjkgvc1VbeN7hQsCKeaAbhb8DwpiHRKQn7QgkX5O5U3LgPNWzmfnqasTWzRuCOwEB387hTdJfzBH/zB9oLZb1xgLGAHhfnuXVJrh4/85WP6fZbae/EbWyX5us7jtyHh8eRIzhwEqk/tbHQv7+WVHXnnwx2ZdzR0Ogyyw1b4fEUnJp947ed7X/rSl7YRcALQZLUZ5wAbGJ4gbHTB4vuhko3uAHCn4O7hgx/84LZoyA0er1tHvvAEXrBwbPOt5k/Ap/LkMyC/cl/+pwc8cvPQmrAYza++uz7z7M4AzuK1iD3zmuPuDnp/kI8oG7Wn32epbQzKsXGUXzkMY813EMRzhXeIOgxQV30XUHsMlh9t1J5zKJPTs+dUhZ8KrMpHfsjiTVxt9N6rr776YCrXbiFsoPOPKgxQgRFoAbtKWCwCdXK5grzyyivbQvn5n//57SfTZEoLhn2VzQYdD65kbkpH/ojjVI5nYC6EPdSUN+8zp+ZDMRceDc2h+fPiyqdLvmvgEPAM6wBwx+DQt6i1HfZVdvKH8lN/L7ZnjddYZv4ap/xVywOZ/MpTd1JyZ6PLmY1vf8HYH4q9ZfPLt4PW+4PyOOcqH5vSed6LKzpl2vGvPRAMQhGgUl9bkAYlcAtEoAJ2BXE4qP5bLYfDO97xjrMPfOADGx6mW0qUbYMpYQXGR4PcnJ/+PPEMlGvUXKoKimeOzas5xbNg/SM5H/nIR7a5tXi9/TaPDgbUQsWn7wpmDpvHaZ+f/D/xgb1JBhuPcVTnuBpfMlRO5EiVM8Xdltt/sg4CbfYdwvaGfWOv+KRB377SLwZ22p/lPL+bk/EnPt2pD7J7IBAwOm9F9DnMgHYnl0HoO7EE6mRz12BQ/mde/0irQb///e/ffhTFriopTkhXF/YLVJuf7I+xnJpPKAPlF5VvVTGP3fl1RTJH5sbvV3wRzdz5D1HcLSgOCovbewNzSq7dWonCzvam/Az/kRMl2lAao1zatHLSQeBuQNW37uXJQSpn8k5HQeN5LPcYIc8OZ3w6MHy1b9B8a7en2MOfshnz1NsOBIYnkwEDsSHj5zjjdGCcYAbsUOhgsJDcNQieXNs7BoeEF49+Oi0R+C1GNiRIshSDbpFujNOfO2dgTnqLYRopv3Dm04Ls7k7+zZG+r6X7mrp/Mcs8uZo5JBwC0RY+HRhrB68Y9vzPWJ7F9hyTttp6RuUBLTc2cbUDQp46gOWAjXj2kT3h4DUf9gubCgzsXn7NJTkfFdhZ0oNVWgu7B8IcGMMVyhlm0EAMEBWwImh3CnjuFhwI9Z107hYU33H3w6iSxg+b+pKASuR1pUFdh3mRZc3VmoP45tO8mSsbH1Waf9869CM2B4HiILA4HQKqeVLrW1R0LcRsbIrnf/Ce1zkzNtWaVbVd3DoMrGcVX97Lffmpbw5UfYerQ9ceUunLH1mbXRsv/7XNRYdGPshUJTx97fbavS9+8YvbS8WUJhgwA8nxKskYndXicjA0EAdDz0Z4XlD1XOrrlr7I4kUJ23QVAy65sw0zYygWdOWLaZZVPmWP0m78T9ruo8SypyO+GZu+ReIQQM0RKk/l2mL0bxmoDm+L0ML0yNcdQW2HgUWPNkcWYgfDXkyTJ7ZyOPm3bU/9xpm9ZPHZTKY9+cf83YSXt+ygc+z6coqyM/eH/qxk1r0K30H7ja8dDgZY/Mbw4N4hfvxK8mISy9nrlwcA3OtnV/vimzbO7t87fA+BsQwGQKur0/o5r8+GQDq99C0ofQunU07fInNQeJSw8Fx5PE54aSIhSgkqNrx8TD/5f9Fpc1ee5GoeAOTmrHltE8O7PXUIOKgd3vT6R026UnUn4GAwR+4Ozas5trjMCZ9zvq6bE7gZ803YPXn6+Zz92Z66x/gTo30djmz1iZcOKoeonNeedvHtCetc/sopu6tOsW32zn1rl3NtRV+bv5fuHdr4bBbvtFUbpXfvlVdeeTDBmBkPtAHPDU6jgk5Xu6KtugLRNWCPDSqe6ipVMvB7vLBIvUBRvbiy2Cw6/HwXX48p+Y0mDx//eaWNd47P2Jsfi6384bkLkDs59xjn3U7fJ5FrdwA2v7ZFOh8P9NXmZdrmv/UwY7lru/HcZv5W7No/5hvuJvvX2UrWmPMTH60dptyXf/7l0cGKwpOpsC/fPzwyd0cAjz/tyr8STx/G/GrHp6vWnzqbgfM/24EABFxJWX8GMPmrznSUHl0nlQE6FFSHgStQ7WQomcPB4tR22kmWBdqb7K5IYrEw98ocS/I1Pvxwq+wYP1vX0XRhVrur3l2wq+5NfbZn/uXTASz3qHxrwzks2vTy25VffrU7HKbMYlPNkVphr3HdNP503mi6Fw/e48aXXfGzlb3a8mJjyrV9AI9n88tdh0DzBKsNs23m184vsvev5nT6Kfd47Deu7Q7h/ECIX5z1YSrZvPj5cwI0hZxM2WznPGP6SnoGVdFuQVlkFuhcpBYlvttRn2MLNozbWS+4JIsdWPWmUjzhirN+8mP8cLelj2vnrvo34S1EGHlTFWOWOwvJhtduXrTLLx6MSic7Fm128Ksbc6wd/XwmWynd68o6vhWb/oqb/OKDCTd52UxWH5129viTt+rTxSuf1nWbN9sO5vTgW9PxPNNXLngjLjL8OZ6t/+Ds4nEhWXaiK19fufhXl2MwmPO9CS0Agwsbj8HVTguKrYLA61CQqO4WOgD0LTxXJnoOh1k7cfGKle/Z3kZ35E+4Yp26k3dE/Q1lFxsnjxpLeja8XFuUaO02vvwq5N26mhe1gwJfTSdb+YiyI/b6s705ueZPOitk5iLZ5BlPJf60Ndcc3B5m1a+PZiu9ZNfxyapylS5q3bZ2p/3GYT0rzRPs9MVGttPHm/xtzzoQ/FsVrz/8tYGw6aN4lSs/f46ZE/0C0p6Ksz+DTBevgcI2OXidhPjaqkVnAc9bLI8P9PDa/OzjoQY94zgW3wYaf8LtjW3yhsqdmnv2b2sgXfibYjmGTU+utVXtci/XcofvTkDe46F4zUs6+tnN3oxxxoJvjujepWT/mM7qY+KTTd7qf8rgZ5/PbBzzv/LTp5cuauyKR7LaYfHlvrVLrpKLl7617jAIk1+YaQd249nP53t6e5F4doiBbPtk4ezBmet/9xvF+JCtB+f/c1MO0Qmqj5eRsBOnHQZOXQu5ARq0BMC4O9CWAJu+jR/1dpssOVoCUbi7lDWuYt6zcZ0sPIyy2k1+E03/UW3kd9qZbbnWR6stRv02fvOSjA7b5bp2cWYTXzs8GobubUt6K37lN96Jy3cy/Xhw+MVZPhqX/l7JVnrX2SRTotrpy2ftfOtXbfp0w+nDqnjTblg0G5vd4TO9eaw78AAAC49JREFUr7/2jbO3vuWtZ689OBw4m82zw7ymy05l8+Or1QU9AyoIG3BzOAZdkGGicwEUFH32YbKvnc9oOFenNj28docD+3joxDSg7NcvLnztYihOMbIzx5eNVXfyk7FDVyEPo59N9pV0wkbh0oNRG+emeG4r/MTiwa+8sGTFhxYTvrx3xdeeFY4MZRu+mk99ZY4Pb8bC5lrSm7j0Grd+uFX/WH/qpFv8dPJXG0Z8YZJnR1/NVnL4bEx5eii+sVT5iUeXDTi5k+cKzLSprUw+3fKkXd/3DYph4mHdFlzENS7UeNnXZsttxsttCoyM4Wk3qfEZyBBntTfL538mj75+vNluYNQkBhZP5R9dDwhxhKGnreDvFf6S5TudFV+M8emlg7enN+VTT3u1l3xSNtf49POdHbZWvv7Fgjji7zDJh1iKFZXr5gamGqb+jKO4i0Mfjs4syVE+9god8taePlt4Fe3VNowSLppOsuxnIzsTPzGr/uzDhY2/8tjN12xPfLHTVbI5+6vdcsJm60976tfemCM3988fEMInn5T9aVdk2xEVM3CBFXTy+Nc5yQaMBYFW6VdqR/HD85dPNH/ZmX169bM9aXaKfeJLSPpNWn5WnXDFHI2f3/p78niw2mHTjb/KwqWvv2Lqh4lOm3jGGa0NM32QT/0p11aSp3fOvkKOyfCr2YmmE43PcLzpf+VPTLjJY091IF1ne+qsPujJXRi09lxH9Cr5DRddY8hW8vTXPv6me76tXj8/LBwGYtC/3HFZuaT5vbDrk44GdcHMyXny8dUGUxATP9tw9Sed7TDRyxAPA3QwqDYzWmGjA4JuJdv1o/jJJj55/js05GLy0omutspdMbEbVju59tSFIctvchiy5BZsMjQZHN0O0GyHicInSzcZ2njJlLBbZ/STR6c8neyHwU828eTx818fTT8ddMpnPyxae8qzkX79MOmge5iJW+X61/k1NvMXLlvFkO/6U05HnQcWPJvhyGdZ+1N2rN26nbrbpww5okhYnQPWxo8ec5JxuErtZPjxwuzR4gqbf3112tvTTz71V99hVr7+lK1yMo86aIndw0zfsPrGhe4dCGwk7zCkl2726Jaf5PkPoz/L5NPJz8TMdj4nTzs7ydFKsnBTFg9m5a/9PUw+Vkp39QuDn13ybE5etqZ+epM329k2Byt/yvbmJ38oebFMPpvqa1//xtl9d9nn7wHwwkfzl/6GMfbxuwW8vTJtJN8eGfYEjGRoc3I+6XMRMxJuz0a8MPDxak8f8WBa8FOenegaC/1Z2Amrne/Jm/ja5JX0Vl59tInXzkc0XPYmTQ8vvHY60eT6Kmyy6J7+xCVf9Wc8+SkG2OxPXLaKX3/WsOmGz3fydUNNf+mERbOX35vmf+qyl/1iZWfPz6pXP//10exqk2dv8vfwYcOnH5ZcfJvPe5eHG3w62UjnGD0WSz6zA7d9U3FNLMAWyLJQM5DjGRiefs7pT7vTZvr5qD9psnxkf2LyNXm1Vz39iZ+xpRNNVwy1V0o2b+nohslOC1e/8SQLP/na9Ytv8qZ9fJjwqz1Y8otFde44G9E1nuyg03a4qTfbe3rk1fT36OrntjrpTXy86ecYj94sd+1PXe38ZGelE09W3dMNu9kUp1B9mmCdnQuzHxaNt+mdf/qAv+ldXuc2XOszHXciL7eo5mAA4k9nMOHwVwy9KdfO2dSNN+nUzcbUJ6+utsIXa3bXAcPhJQ+/0vykT776WO2kkw9Ufqav7K386Z/e1Jl+a09aOxv68VA+0eKbuJU3ZbUnnXHhG8deKYbkxQN7rM32jFN/5rhY05/49NiPP9tTJzleB3ryVScsvqKvhNevxtsA59jw8cLEr4/Whs1mdNU/O4+DfOqGn7bSvS3d3iEw5Hl1GtLGVyZ/Gg5TYCawRXBY/K5gBni5eLKVTv02if69ewZK5/KjK3KynqtN5sHHZQLJW0QHfC8kO1ObVBv1cPU8jPH81uxiQckF7OX3FK6O6zCefJWnGQ/87MM0hsMYD8d1uniKcVXwply7PtvFBB8/XfSltxy+XfjgtcOnNr2EfP0b52/XO8DvX/rZ7Jz/mObB+Hw7u9NP4ycrVvLGqQ2TDD9Z8ZOp2co+3izTDgx5tia2dr5h1o1PlrzYo9NmtopDX6ULpxYXDH7lMJ7LMUxbtQ++elGYPh/n3zF4cPgtyr2X7p/dv3eYbz6KYX6PgS2FX3cSNt29lw7vuKzjbROeh3fYX/J3+C8U7t077H152h4ZCpCzBhWvAUYPgzgM9DDoyySkO+3QawDZWCn5HmaPl49t4MMQrJK8dvxJJbz+wcTBvzb+gweX8YSLHvCXh2T8SYshSpY8/WT1Ubz44fW1o+HMwzzE0yMPfzFXwwb5mju8yuZ3bMbsRsPt0WJOVhxTFy/cbIs1HJosXjbR9JOh6UxafuLR055FP/m0rT35qx5b2c/env1kk2areag/MfJBPvNCzoeqdNCll+ze+QG/fey44S/X+8HXIdf5dXGsXBwIhAFyGCiaPBquPtzk2Xj7Bd/EmCCIQ0Dpnp0d9O7fP1wFVrv6ksUvHXWN4Tp59iR7LQc7l/Zg8gFLnt/pMzvJkzWmaDbQ4k4WTTZtTlk+WlDhph786w8OE+9z6a1/Ppb7y+G5xmpK8Lq+zTztxTH9P2Rr5GvVrd949nT3bG+xnc87G+nFn3mYsmzFO6ZLHmbq4NGpJps0mwfslFw9iA6Sy9j1L8/hc+y2xrfJ2OD5z+pcm1dkckLNncIVuwdN2Cv4c4Niv/iUwWkD1CLT3isNmCzDGSerJJv4ZNFLH1d9XfIPPuDzEZ02pt/4B7/pHxJwqXt5EOQrG/XZcWulr3bAzH6+VhqmsUfDJdfXVmCKob4JT76BBl6/BZFsj8Lc7x/auBjL4Tse2RbB9I1Pzw9lZinGC72xRlaePvzKn374qIRLnm787K14/XTWtjWtZGPispds4jalG/7Qm/FP26k2hvrTF159FLY6+VM3fnbDT0x2D9jD/GmnGxalf8Bfci9+/rwq6M9NMA0cjFw6yXCYAijw8IcrvyAOuul1i96dAn2ybomyx04HVpOdz0sfWodysM/XZfIPksOtmFu+3tnOWIvjcAezv7CLMV/6s4jTgrlqd43j0M9W+WZnLrbs4oVld2Lih92oPI6xh9l+AecdTYfR+R3Eha4ri/rSZbz8qRW2blOu01ltrNhVXvz8rrIZC9nEsruHD5MsusbBNl7zEy6aff1VN8xtYs5OWLpqaz5bUfypM3NwiNkc7c0TPTm8qsHuxR1CxueArsIPPUpV2ImPHz0EtT8Z18mmzdlOJx4/SnTrnPfDxEPxmtSSPHG12dMOn278bM7+jCE7cJOfXvbykZ2waLx0ktWfscWbdOJr52/i9njk+FMvHbzq1F2x9dOLdkjSrcw2Xvabo3gr7ph+fJQOe6vu7IdZ9fTXcYTF34tv+poH9rSdzWMxTDlMuGi2wqG1J2aPtzcmvPxcfMpgcBnL0Dqg+BkosD0n2ZqYvXY20cOpdTl5Jbxgp00yOsUYJnv6B5uXC2+Nk3zi9+T5nLipN8cUJl669ZPH19eu5l+/8a06e7YmZs92dsvn9Lva25NNzPQV/xjNFrl2uuHFGr+4V9kxPhxZ8mxPXn4nnfiw6U6beMnjr3bIpy75zLF+Jb/6tdOtTxYvPf2HeK7u51ir++oKf9j+qp/t/CbX376HEKCAAnSar4tTn/K8baejJiPPzmxPX7XDdXujT0dpw/dGN5+H2/2DhYmfNrM7bdWeuJU3ZbM9/cz2XAT5TG/a1k6u7afd6Kofz9jzg1fBy040WTQbaDnThmc3n/DTXvpTvmLYUZubdG6i+Q83Y9fObrjkK00fTVYs2Yivf6wkg13x+nIQP1/69MianzB4ZGHym5/6KF7zv/KTo2zxs9rFb468JC6GfEXTn/IZJ34V//8Dn3bbxTCfkksAAAAASUVORK5CYII=;" vertex="1" parent="1">
          <mxGeometry x="386" y="220" width="100" height="48" as="geometry"/>
        </mxCell>
        <mxCell id="UkXh3p3jf4EQIE3FmK1C-4" value="" style="shape=image;html=1;verticalAlign=top;verticalLabelPosition=bottom;labelBackgroundColor=#ffffff;imageAspect=0;aspect=fixed;image=https://cdn3.iconfinder.com/data/icons/tango-icon-library/48/system-users-128.png" vertex="1" parent="1">
          <mxGeometry x="606" y="123.5" width="70" height="70" as="geometry"/>
        </mxCell>
        <mxCell id="UkXh3p3jf4EQIE3FmK1C-12" style="edgeStyle=orthogonalEdgeStyle;rounded=0;orthogonalLoop=1;jettySize=auto;html=1;exitX=1;exitY=0.5;exitDx=0;exitDy=0;entryX=0;entryY=0.5;entryDx=0;entryDy=0;" edge="1" parent="1" source="UkXh3p3jf4EQIE3FmK1C-5" target="UkXh3p3jf4EQIE3FmK1C-7">
          <mxGeometry relative="1" as="geometry"/>
        </mxCell>
        <mxCell id="UkXh3p3jf4EQIE3FmK1C-5" value="" style="shape=image;verticalLabelPosition=bottom;labelBackgroundColor=#ffffff;verticalAlign=top;aspect=fixed;imageAspect=0;image=data:image/png,iVBORw0KGgoAAAANSUhEUgAAAQQAAAB8CAYAAACPDs4SAAAgAElEQVR4Ae3daZOlWVX28azqBud5xIlZRAlHAl+oYWiEfiJ9/3w0wzcGKiCCCiKg0tCA86xAdz3xu0/+M1fuuk8OVdVNDWdH7Fx7r3WtYa893MM5p+reV7/61QdnZ2dn9+7dQy7Kgwcb+yx6//79TVb/Ajh0ydRs3bv30qLz+pV+uHTu3TvoZ/vBg8uYwpJpq6+/fmlvymGyGT4euhbYvbLaXDFTzsb0CZt8tR8/e1OeDG184W6i6a6xHLO/Zy9dtDlfcfzcJr4Zz56NdXzhw4ohXrSxTBl8cm0y9aWXXrpoH8Pka+rHm3T6Cyv+2mHhlPhRvOKaWPJq/LBnZ4f1fck/7MHL/tq6Km8/FXuxFGP85ln/ZSYDopjVNdD4hZEefmXyljMmyIU/jKl7AbjY0A8fQuGLZY1x2jg2YelkS792+mFuijF8+unVTx4ln2XF6a+Yib9LO9t79uSmhTBtTqx2NqJh1378KPm0hZ9O/Gg6a3/Fh4sek+OrHTjhosVi/JMXH08s5SdM/PrFG01efNmrD6emH3+PHmwex+75mnYO+pf7Mp8H/mEuZptc3Q6EjMeMljD9tTCm7slgr5Ottvb6h8k42C/wcHxOXu3i1o+XTjT+Gjd+vGOYbET3cNkIM2n4eMWrP2XZuLekfdwwbSbohMVIvqk5eF6/NJD98Gt/xrAn2xze8U++9tT2ZHj5nvGs/Glv4id/tmHyF8WbuhOTLL/h0mU72fRz13Z2s7fqd+2YvmacK/6u/eyiqvJyjYSYMyETnEPyDosCzM7Uf/18QcJUZjufeAc7rwU77x+/qvD/2msH/EH3cvHPGNa4yBpTfuNdOL+mQacy2/mJwkx5OpNObPiuahtuPYiH72nnWLs5Ip++1rhWGbl6JZZzJ8mOyWcs2YVVULyVXx9mto/Fn63N6PkfetnPH/1ZYLIfdsrx0sVv/PFWebrZjMbf808WrvHVTw/NVzL0/v3LtadfXFNvtsnTz16249fP1r31HcJMwgx4z8DkzUAmP0fJZ5+v2U8Pb/LTTV4fxZv4PczEz/Z1PthZn0HzlQ36ePncsxc2eh0mOxM7eXM+5E58s4TlQ20uJ2Zt0wmvXZ8vB24+6cGRN29h8dcSduXPfvp4xcpfZdrIBx1Fv/jSYSM5XnGGT7ZnP17Y+ukUS/18wsWbunhqcWev/pRPXrhpa23n75iNPb/Tbu3GlH397ZEhQI7qN0kpxG8A9Y9RuLCr7T2dsKss3eT6av0Vf9t+duGzNemUT0z2w9ZHp84x+cRMu/HTq5/92W9BxovOGGBWfran3+xPGb362ag/ae1shJ36yVZKV53YaQ8/e+nOftibeHQnRj+/2c3WxE5euCh7q4093WzkPwq7yrIdndh46ORnY8r3eFNee9ppr185EAJGU8gBirfyw0fD1Z86k5fdPXt42amd7qSrjWTp1r+J7vkoLrr50Y6P1s7+xO3FMPHaYdKbtCtcmCbNRsfTn/bSXXn68VC4sHM8jSH83qFDLxvhJ00+ebdpz3jCT95sk89+Y8OrfV2M2Y9OW/HQbMULFz96zG/49NeY0pt2YCc/G2GyNXHaqzwb4Y/ZiQ9nPV35lCHl6ATj5TS6ytNDyVrAk0/3Jr3sR9NPN330GCadu9DrbOWbvfzjpRMvOmUzhuTTTvI24LF+vlB26mcTnXx2wmQzbLLk2QyXHJ02w4eb/fznY8rCrxRm4rTTj646x/rTzl10p94x25PP9oxz6k+/kx9+yqfN2U7vNtipd6w97Whnv5jSI7u4Qwi0KgMnm224NvzUmdjJp1s/WiDHaAFPfPYnb9UPs/Lv2l99ZDc+qsZnX7t+uGN+u6UPHy4bHRD1p710imHqhmt+yOJNnHY+tLMZr2f0fKBhpr3r/OTvGM3enpxsla/9Pb09Hr0Z8+xrZzcMalz1k9/GNsyKn3ZqZ791sGf7GI99dtRjvvZ0J1a7GMJeHAgxJp3K8RtMgdSf8vTQKV/7U6d2uvXRfCWbNidubYePv+oln/zZTk5fe8q050bY8zHx01ZYvGq8fMWfeuxNm7M99VbctF17tTv7YaLsJY+S5X8u6OTJsjHx2nB7mHBke/md9u7SPubrLjYmNnuNl2zy8GdeVtm0lS6dmZfZnnh8JTnb8aafdJLVj4atL94rB0IOAGY7hUnJGdgrOTo2oXRvsj8HCbuWlTfxsFNePKsN/VU29SZ+Dzex5GGiUz5t1U6+h8dLfizOVW/iZzt/k077sOHj62vP/tRPJ0y4MNmrv1L4WepPvXhwsz37xREPbtqYPmZ7xaz2V3n91rx+vHTrF8vsr77pHNMLm7x+9Bg/+W1pY5n4KwfCFMz2DKBEoAxO2dTR3nMYZupplzw0WXTVCbsnT0ZnlWcn2ZSnFw2Tzh528sKhbEw7ycJHu12rP3F4btmTRafteKte/eieTrposWrXx2v+0p9ytou/dTB18x0l2yv5Tjb7+U2GTjm/YYotLP7qs342wsTPfvJsHaPpT/nkZSf7aPJ4+isue2HqT5reMUx+6GR/6hfL5Gnf+8pXvvIgBaAVuPabhLkYetZksHZy+sdK2BYeXLFEi4ksW2TpHrN9F35288++un7OP23SMcbryrS74thPrq3MfnJ0Tw4vPjrkxVIu9Zur1fbmbPjTz0fY7IZNXox7OiuW/+La05u8dKP5q4+Gn7KVt/bTw6eXbrjsX8eHbSzGoy/3X//617e2/mpP3xqthEGLQ7v8sD9l9GZMZLOssuT4bKLxotPmlE/+xTcVp7MMFOyUaZOXoPrp4KtKQW+dnT8vv3x5gzKxbKnk+BKrNojk08/U5wpm5cUvFDbDobOsfbJpb7an3k3t6/SmjP9iiGZbH9b8lAOyiQsDN/nTBv0py390ytJLVj86/eS7hRkGnfq1p594U6f2KjP2qQs3++HR2c5ecdZH4bKhXY6mfu3Wp3512pr2ybMbzU5+Zz/dsGGyn3zPL8yqN21nAy9cdNuRdaIp1EczGA3TpE/jyW6idOeksqHiV/lW967W+c7PGtvcLDCNJ3y+w6369aPp1V/tJY+K77qSPprN8PHC4E8M/szRKidrfNlEs4fONhl8PtDkU3+2J3bytdOdNDyeWn/qhp+8Y21jDF+802bjiRcWVZuf5MWdrbku0kGTz7jikSv1a+vPeKdumHjZqH+MsjnLqld/4uKhjV87zMs6gWJGpyylOagpF1h6MLVnwGt7+p3BdSscD80mnbnQi2HaKhYxxI83YyjG/OjHm7hj7Zuwe4fYtHVMvzEVVzoTD+MK1fiS6WtH4682yKd9fVWhk4309mgbJr0Vk+/pK15+Vp279Kff2c4GX3Pd5LMYzI823Xja2cKbderjz/HXDoN2BzrXa/Ggc/7g53zoF8e0qa0Ur/aMORn51J/tzcBiP952INTJ2EqnsZyjBWXAteNHp+1j7WyyoZYYNNlMXjxY7WNlTtIehv0mK9+ocp3d1VY6t+WHW31kp/F1MIZPrg9TPxp/2k2WzYkx/uT5yC7+Tfmz4LOXfpR+8U+bK371v8qzt1J61TneieO/tdT404HTTldbqT/xk58e2vrUVqZt+m95y1s2Hly5klNxWc8dGLAzlmzFL7bmIz/kawmLv8YXduqvPi7eIRCsDmY/RUZzmmGBxgs3denEL6jVjj47c9B01Mn/xje+sb3MabDFkP980YOZfrbO8icfKw5/2lzli5mL7tRpLBfCpcHHsULWItqLBS/96XPy05tybZWs+Ka8eMLUP0anP5hpqzk6pvu4fL4rtfOvz3/jmPIwjT8bK92LP3th2c127dbrW9/61g3Gjmo+axNkq3iyUz8f0fD14fFmLYZkYSe9TnZxIFDIWI4NzAAq5LMPpz8d1EYrsx0P7QTvpHRq4inx/vd///fsP//zP8/+67/+6+x//ud/zvS93eX7a1/72pVk0MtXcWzGjvxhY+qssBZMuOT18xU/usrrJ48e4yfnf2LyN3lho2Hm+NmRV1W7mh3Y9LITDVM/Ou2nu4edMu30YJOxufbzc4zmK5qt2c8XG3vy1u4xH1NvD9NeYFuV10kdCOq3f/u3b1XbXUN467hS3Ht9eAVGTT9sNH40m1G4bKHFnz568Zo/Rwn1q/EYMeiJjZfxHKZzE2Wvhcruf//3f5/9y7/8y9m///u/n/3rv/7rmTsCth0W3/qt33olufr8VfNV3Hux7PHg17LHW3Xr72HZSz5tT2xyPO3Zj3cMP21OXxPvUJU/B+f//d//XVQLEd/inPmfdlb7t+nnu7GYN+2Vz1ay7MI0frypF2ZS+NZieHT6Wvtk+aHbRWdPH++mMmPMr3Gxi1rLChl/3/It37Kt3+/8zu/c1vJ3f/d3b3LYGVs6KL3Zz098Max52xRGLtLJTjrx65Nf+ZQhQHRv0nIWZQxe7equ3TNSNgraYvy2b/u27SoPQ47nAHj11VfP/vEf/3Eb4Hd913ed/eiP/ugZ+v3f//1nkgev5K+kFMuJXp8BeXMwdLf1b//2b9uidddlfhwQctxcsdYcWeTN72w3F3RU/RelNN69MePNja7tYP7nf/7ns3/6p3/acmltOxy+53u+Zzso2OsCqK1Y43TV1ru2Eiaaz014RJ4eneZzxn/xD6TEBMxBjnOAwk15C4ZMm9ygLBplPkfRw8cTjAX5D//wD9tBYFF+3/d939lP/uRPnv3Ij/zIliCY4mG3GEtM/c3R6c9DGWie5Kk2kL65lV/z8R//8R/bXZk7MgeGeWyOWojlPCfpt0ay35zUD/880nJjrGp5xdeWX1SO7QntMHgehenJtQueC58DQq7Dw7UPtPPlIhr/UXIrDrbWsh0IBUqYQ238tcTLmKCcfD0bFSi9EmZw8AbqtkkiXnnllbMvfelL2+J729vedvae97zn7Hu/93s3HT7YnSW/K52YU/tqBspVc9Xc1ievTdPcORxcxdyx6TukLVhtWPOsZDt61fPNt/wr/lnuy0t50LZ2VRe5Lo7l2aZW7Q1VXr0bcxDTsQd+8Ad/cLtrsF/YZYeOeVDoObTZVrJdu1ii8eFU/CnbjJz/ufflL3/5oV0feL0qTEXtNm2LhTPBxm8QqIPAwL/whS9sh4EB/fRP//R2N+CWSYFLN5sF36Cj8LO9GTj9uZIBuZOj8lQu48/5nTgLzQL9+Mc/fvaXf/mX252cheowMEewzXO2cpwvfbLnuTR2Y5ZL+fFeyyOxzWtda3upSG5Ny2s5pCfXcqnaH6o9QMcj83d8x3dsKWxvuPjC4msrM476a+75mnMTbjMw/my/ZRj9rZmx1cCKIy8YAzPoriYGb9MbnAG46nzmM5/ZEvCud73r7AMf+MCGnz7gspcv/SrexIc50f0MlKs1f/gqfoeC3CsdyNrm9POf//zZJz7xie0Qh3eww6QPl5/NwAv4R+5Um7YqV/LkgPCuwFXfBvdYIOcOht7dwKYn5w4FMjiPz/TspQ4AKda21+hWmgc8tbklj7di60cvHhlioNPw5K8yOIEZtGJQgpAcAxCEgVlUXhj+2I/92Nkv/uIvbqcbTAGX0Bk029mD01fDoPqncn0G5GmWmbM9WXNC1uFgfrzvMYcWsvlOFn76oKvuySbuWW9bn4qxypHNLD+qC6JPyzwey519oHhX8FM/9VNnP/7jP372Az/wA9v+sYfoKx0M+l7++qTC3YB3a+44+FDllt9jZc2/fvi5l1b9iwNhgoHafA8pnG/KMILrTkDbQASrSohbTu2f/dmfPXv3u9+9mQsjaflNJ79hGki4/IZb4zv1LzMgR0pUW17LqZyTJU+mT6ag5R5tkZK5W5jztimc/0ln8p63tjw1zqgctg+sbxtaztSvfvWr26GKJ2+u/B6bHQ6wDo+KQ4XNyf/hH/7hTcejSfLmbsaSjWIKE79+8vjo9sgQACMQOhfDVJq4HhGcbOxYJAbhheFf/MVfnHk8+IVf+IXtmYiehFXZp6PGgyme/IslXnHs8ZKd6MMZaF5J5LLcyntzjT9xZA57Bb+7Are0LWo8dc7laufhaJ4PTuMsZyttlPaDDexOwMHw5S9/+ewrX/nK2Re/+MWN90M/9EPbHnEwwMitnDpY9Nl1WNB1V+EOwz5z1yEGVcm/drEVQ7xwsOldwfj3EGIEyLCgaqPTSHcGFkK3OQ4Hi8gzp48THQROQBh49tr4Lch8n+jTnwHrY1YfU1qwXoC1Vtbn2nVUrSF2Wlsr5lnt742n9U6m6tvIDgiHgk/b/u7v/m57b+Cx4Jd+6Ze29w0+7XGQKOnYZ97FeVH5vve9b6Py3/5iX17he2Qvz3jJyy89fAVuo6+++up2IGBUCShXplFthpQOAqeVYgCf/OQnt28YfuhDH9reGbi96RaqAwF2DW4zcPrzVGeg9RE1/xakg8Gh0JtvixFmr6zrag/zrPCMcY5njbscwIRD7QdVsfF9Ucl7ts9+9rPbwfpzP/dzZz/zMz+z7TN3C2FR+XanYCN7BPdOooODPXNiz8E1D/lHi2nGOvm7HzsCA1U6ADpN6sNoC1TbnYHF8bu/+7tboB0AAhYcfbWrSfZP9NnJgAXVomp+LWqPES4MXjhaC2SzpIPX2pq8iX0e2sZYrhrvHBde+8J3PuTP3vnwhz+8PVJ41P7VX/3VbR95Kdnes+EdCHJu47/jHe/YDmJ3HPr2o8PAnZp9WY5nDPFmPNpbzD0yTIXajAuAgTZxsgJs0H/8x3+8BfBbv/Vb2yAKrAOAfiddC2kN6NR/NjLQgjLHCmrRes71TTsLs3URtpHNfmsp2fNGja/xzrHGM177S/5saJsc/du//duzj3zkI9ue++3f/u3to0d8jxoVm97jg/3lS32+QCb/9paLbxfp6StdFH8vvpd+//d///8FAJo1A/HmoMi66rszcGvzm7/5m9vnrAaZsxZNB4v+PEzycaJPbwbmvFsLFfNoPvG6M7AorQtlYtloTaT/vFPjP5Y7Y7d5K9py6P2ARy8vD31K97GPfWz7HoMXjvJdDlF4dwuqjyT1HRTmBM2+OKr5a25WenEgBJxUABQ4EIBNrbQIyD71qU9tL0d+53d+ZwsqfCdf9ujTU8gsGrxTefYzYD4tPo8M2m5/ldZJ6+fZH+ndRtBmo6U9+3jWPx7a/tB3h+WK72NGdwYOBXcH733vezecdoeudzfuLDx2dCj0+Nb+Wv02inzP+K4cCBlIQZ9SigVN7pbE21H1137t17bbGhNvQVQdKKrFko3oi7pIyu2zQFsP5uxYaX49D3eVs2B7PDTP6rTRGpi8Y/afdX45bBz6qrHL3ZqfmSv59JEkrO/zOBx85FjJljsDd+juFHwr0l1GMlQp57PPV7jm4mVB1clR/SgMRQEyYrJN+uc+97ntYxK3M0pvO2H7CDL7PdPgK/psncrTm4Hm/7oIYcyltdFcu1L5GbsFrMBkC21RRq+z/zTLGtNtY2wflZM2pAtovHLSC0LUl/rQP//zP99y9+u//uvbC8heHLpbcBC4S5B3h4ZHhmyWf1QMk5+/xrK7I4HUAkYbDL4BuI3xuanbGIuh0pvTBkm3zW9Q+GxpF0QBz+CKIZr9Semlw49+cU4ZHX0YhU7tae/UvnsGyn95L7eubObd7as5V8s57PNQjPWm2jjLk3XY2kw3HmzrNGqf+P2DjyEdDB7R/+zP/mw7AFrzsN47OCB86cnLRodEeYYzF/lD65OpePAP/SOrDQDdAC+/vF3528w2vM9MOfQDJZRxhdEC0a4IWGGvtjuMbBZUgaWnr6SjPe2yF6YDqMOp2FGVnB0+lfxvndOfR87AsbkxLz4jtzgdChZsOacz5/GRnT/nivKkyqV3BQ4EefMrVI8FLsY+qrSmvUfw3sGnPX5R7AuB9iK8/dk8ZU/q7Iu1PHQgrBPlABBQJ4pbEj9y+eVf/uXtt9vxGbbpOhD0OSenr5Kzb9P2SAEfDpbMy6k2Ljw9wRcbvMoGqpDRr60v9uT5cStFlv9N4fTnkTNQfuXUHOmba9RHkL0F78trMOZ2bzE+chDPsaJcyp31qviGok9yPvrRj24vEf2K0mHgPUJYh4LfTfitBF57sPkxN83bmrrtQDCZlQnUZoyhNuXf//3fbx+J+OzThiNvgqcd9vTZaLHg1c9Pm9iGNSjFlcTBY6A2sL7awGA7OCTLlcjpaAGyK658tfCKRYKUNdaNefpzpwzs5RCvai7c7vp6bi+8rKPmIGethfrRPfvJXgRq/NZ6FzZ3Cdbz+9///u2R3aHgez8OC3tDhfdvVzgQ7Afvc+yV5kTu2xPlfeb5yr+6vJdkm90bTBvPxLr987VkhUHyDosc43eIdFjACLYTy0Y3EP0wvtvtdsdtkMGxQQcOBhU8W5LkpFTosONQ+Imf+IntzazDhb4XW2yIjQ5eMeCdyqNnoAW1UhabJ/NgYTrczaG5MLd0zEPYR4/i+dWUw9avnMmfRwV3Bd4p+PKSnwp88IMf3B4V5Faxzq1tX4n2qIaPV7EHmjM87Q6Fg4WQC7XxgB0GDgLvDrzB9I82uGJzSs6Bom+jm2h8dMpgBEZmYG1ML0J8O8sPovhywqENkB6dteSvA8JB4leWDgaffLzzne/c/Eiq+LPZ4VQSVrun/t0yUB6bI33V/JpvdwnuEBwKrlitjfSmt2zg7ckn9nlvy0V5tNZdmF0U3RE7FHxt+dOf/vT2ct9L3L6p6PCA8alDOZ97Ud6yvebw4kA4lnwTaiO5O2DUM4xis9poeE0iG9NOGxZWmy1yfQeFZx3/ipJ3Ek6yftYJQ94dwbTZYFAbW2xhffQC27/DwK54fcHD6co/nQ6pbSCnP4+dgeandTANyrU5skBdsVxIXAzmgpx62Zo2XuS2detihqrWr+qi6fcOHq39MwM+irQX5Q9OTu0zF0n5NgcOCvKZ7zW3V76YRDgnpM3u5LFxBfD2t79921iwbWxUkIqNr3JegPoNxMbHd8C45eHPHYcTjx198ga/GT0/0RoIjMqugk9HwXeb6qokbr8g49uhQCYucrzsbYqnP3fOQPmLMlAblevm0Vy5S3AHaXEqc86a00nvHNBzpuAwdRGbF0b5LEeGa8/8zd/8zfZY1hqnI7dw9oDD2KHA3k3r/uIOwQQy0IRyZvJMpCsumcNA30R3lYXnZE7u7OPD0vcsSddnqR4R/JNqFocBKzBtcjrZ3ITnf/ibMa6y9PH9a85uUX2b0knpWcuBZGGWWLHy726HXW1XMbQxTh+n9mUGzFdlnZPm0nybR/Ns/t21oeWWHnn60+Zs52ePhstGGP3pRx9Wndj06cUPm609OjF7NvZ4e3au48mNHFZsdsX6dWHzSYLfPXh08AhhvGSoNSzvHsWte/GwF2UHzjgay0u/93u/t/24iRCzkpJgXGU5dYdQgudg01kprCoIwdFxe+M53+GCJ3hyhVwM9Qv0USmbvdRyu+rNq0OCfYnNn0PBQcJP7ca5junUv3sG5FWRb4exMud9ysNtoBv+0GNzFv1qdslrh9/TXe2kM/mzna3Ju05nle3pT1vH2lOv/eVfX3IX4ICwZ/H503ax8wmFvRB+rm+46mEnDs8EHKraXkyonu8zmLOhtttkw8QrNqFvWPkkoX9b0YHQ5m+QfFYK8lFpJ6XbKqenOx4/02aPb3SOld/iiBbLid49A+UWddBaP6qXYw5k60glX+nUPdZmc5XNKLMZ5qZ+OBT2pjrxtadOvOiUace/K22M1rXqUcEdgDvh7iZc4FTrXJ68XGy9r/spe+j9gplMbXwbyFXVM4hn8p5NOGD0pmJD0rEI3NK4SvtYkG7PNPxIjjJt4q+Br/2b/BevxLh1cqh5QeORhS3J4pu8ydIuqTfZP8mvz8C6tuTcwjUvrlpdyebmYBFOSf8YhVtlM6Ipa41lt36Yqae9ZztsdOrEe9J0+tBe7TsQrFlr26a3X7vYwduD1r47M/luXF2IV/tX7hCmM0DP0jaxl36MmkiYjE587enApFsAHhE8Owq6q7aA2FG0Z8U/FvC0D3ddZUPCYMSi7fcXnqmcpmJO3qJkH77xnOjlLfhdc9Fc0ZNTC9Ktq5xbWy4sbcywaH4mb6/d3K/42a8dzY5++tNnOPSmcgw77d5k4yb59LHGJH/2k+ouQV59hO8CrIjDYeHi6+LuYqi/2oHNz8VLxQIzQW2OThWf6+fApHYV3du005lDxO2hbze6y9Bn2wkmOAPYKwbC9rS1h7uJJ1EOAva6dSp5PuXw0Y2PKjs52dMWl8OP3qk8fgbMuTVjAcutBetqJtePM8+t0zVC89bame146KxTP8zkHWsfWx/iuk05pr/qrrhibJ1a0/aWfepiZ9+S0bOOtRV70Xo3D+pa4C/uEEoQkAFR8D0Bp0uf71OAWwNcDevDCMTdgdPJS0k8C0OQBmAx4O3VbOzJbsvjVwwWYInh35jcuThNYdirlOz6J/p4GSi31lQLswuDOXEoWGutv/Ifvc57eq0H2NYuygZZF658wOGnXx/O+mhdotfVYsxHesWzp5sMvW0p7mh6bBgnypcvJ7kAWtcugDMe/d7dwBd7tqIPXaJzKlk+w7R5fEykz0EnPboaXQfZjyx8vAhb4KueYMjSL4b6BXtX2gJ0e9qhwCa+09Rh5fsPDiuJVMgsUuOT7FN5vAxYM21OVzJz0bw4EOQZv/mfc763TmY0sK1JWPOmtn4cPEq2408f2mJQ4+e3/vQ52zYY/8WAVti4SV8uHqe4mBmjtSt+Fzkb377je8YAJ15Ye4G8+Bovuv2WISGGyWOcUbd1fsRUIU8ZL6zDQqGnjapOqm5nsi1pMAUTzQdaPJP3OG0xFGt2LEqPDN5tdAckZguKf/hTebwMyKN8mvPmX14tSLm2QLXxYMLxWv7hWi945rI5gtf3Is3FC67NAUuXfRc1j6zaNlFrVEwwPkXzM21tZcZRBloT2bV+XEz49z0dFcPE/nsAACAASURBVI9NFE6breJn3yGo2LzWXwX2rkVMHap8isWFznduHDZ8V8n4aD7E15j4hVMe+vkzZokFkkSFcoXhBhAlqw0rIMG6u6iwB5PzaTPMm0mNzaFnMZkcyRKfavIaz5sZ0/Poq5yi5tz8W8A2r5xr47U+Zg6aA3rmxIa2uBX4v/qrv9rs+AKaq2AvLZtLc+vgMc9uqa3H/NKHs1ZVcVSKNYqvrdLr8KDvfRj9Np11b8MpsLNtb7GhdCDU35h3+FM8cqOKXw68QxCPQxAGH228+Uufy3hbBhibQkH3RlKCyRibGEbS22ubAHbmC0n4Tibtb3Zx5WixiFNsTeA61m92rM+qf3lUyqd5V7u1tXlsJIu2jdPamLpkNmHrx7x5WW0OPfLhtynNIazN6u6PfXe8XiT3n6Zan+HYMP9iajPzLY5imG3joavwY4+Q24z0FWtfmeup+Nlsk8LkY1N4hD/Gzo9xuvPwYtH42ntk4lMdqNMf3iwXdwhAnV6o5DZIfYOZhjKCl9HkqFNKgKokCQoffVqKWCwGVwxVYsUrzhbe0xLrsxzHXBetlTZEG7B8k2sr9KrJbVpz5RbdZu9QN2++pUduXq1Zi9/jAGpzaPtGH1s2jjWu7eBoI+uz2YVQXwziUhuLNrtTv9jZdvfJ7jwEWvvZo/s4hb/ypM2X2BUHJl6+8MjFpBQrGg52e4cgUJ0GXzLb0PFhMrY1ltONfE6GxNDFi3/sYMnem0klwsR1WyleY2icb2Ysz7OvFlxjbE3oW2tzfa1Y8njaNryLjUPBgWDhW6ceBxwy5hLeesP3hTrfjnXFNNfmFkabHLY4is8adSDYPK0HuLDx2vD0jKFDJX0HhjjCa7PReMOTP0qZ8aQvB6rDjt32XfnId/xpA/7iH0iZAkoG47QxuFkowc5BTB5HHjdgJN0ksqGvksNP/Wn/zWyLR/LEZLyeuVCx4cvDqTyZDMh1pU2Opy3P6lwfsC1atHXjIHAIOBjMleJZ3JzFz54NB0fuC3atReuzNciuYo2qNjm7bMHPddoYpm48dujToe/QWddPWP7I4B+nFFuULXH06CIWfbTcahujw1BJt9i2AwETI6ZgJdOLmhQaXP0onWQc6Js0Dks2Ci8BqP7U2SL7JvxpvDa/uKr42qfyeBk4NsetAdTiVGFbL7ySpd9cmJdu8210a9Tip9fhAMNec2hjdzegba4Vjw+9dOOHDj/5auTsKNH40eLMZzGTt87pFk96az/+XShfe3F1IIjJeLsTyac+vv3IhjGIlfzitapOAyhBeJ0ylDJY0JOXDBVIp6WDoaThFeSxwWT7zaDiUjoQmlR56FR9M+J4Xn2UX+NrfTRWOSaXZ7WFmRzFNzdk2hZ6c4Titc5aW70Mzz6aTrzmm108pTWKijW/2scK/1NfX5n69fEaYzZnfo75uI6ffjFnV+wOTvE4OPHFWaziwKNX1VcvDgQCiXN6lOyMTIcSz2ADra2f8fRKPBk9pUQX3Mb8Jv0pURKntqjmeL9JoT0XbuVXkU9Fv00Tryu7vrXU5t0UxjsG64as9YayR89Fx7qdbXLzyR9c6xbl0+GST76af1hv6X1prTXKVm0x+OjSl+1gZ2EPzjsLn2is/unCuPP2zkP7cUr+UfGz16MAu/r4YkKV8oY3xxX+yqcMmIzniMG9mrIBk89Sf9qZ8qexXazF3pifxlifxZjKa7GXXwtyrx0OTdeCNk/6Nn+LHM9GUxUyxdqMl56DwMGizx6MGLRVbSWf2rB8VbTZaEPB8lN82cgnWhs2e8Wf3UehfLFTvI1l9aevoMn00ysudLtD0GAMrT378afBaXg1LsiwWyRP+R+xllhjrcx2vBN9tAyUy9aS9dUaazMmMx9kzUl9G1i7zQc/D4Ds2bD4+m6Zw2Uv/fy2oemw7yrrhTo+HXYqbMF4T6boszMPH/q9UA8P29WbTfrsPE5hW1XY0i5v2Z0+tOunF67+y4KbhSChgaoKXsbQiQsPV0BN3rT9tLaNp8Uyx9J4n9a4n/a45pqZsVojc23pq8reumoeUOsqDMpO/eawNQtrozogss+GNkqPDtzcBx4JeuFYTPAwdNmng6avn00fX/tItH5+sqVP1iGyDfwR/rCTzelLW21M9WFr061O19sdAsUqBUUSBWzQeFO5QKah2hK22kr2tFLjE/McV2N+WmN+luOSZ+uqjWUsM/fH+jDmydyk76reOrVmFY8GvkcAQ94dA747hgp7c56t3Xh0ugsIj8IrbGmng9Z3OPDjxd4cl9gVWDHDPW4xRoWfKvts52/6EGNrfcZWe/vfnzMYpeT2pkTPwHMKC5fO1lheWiRP9rTSY0l6WuN91uJqsYnbYrWIra02RWsKJW8ha5sbNBkbNmufJvgokR0HgLa1qnZQuPW3eX2ZiV2+2fNSUZvdsPTI9G1mdlvDxag/eeHp4Dcu8WnPwkb6qP7jlmxmC+XXgSRP+mHEKgfx93xvRyrgNAgoOU5IxjOQ8Qylo59TlFO1xIV/2miTUryNZ47laYv5WYxHPsuptTYPhJ7xw7QW0eanTaxvrmxmG06B8zVmz+ytOdQGRcl9Kcmh4FYedXjw24blu8JHfunPEo5cCVt/Yvmd+umGKbb6j0JnnB1u/BiXMdq3jRG2nHbw8ZkNetrbO4SAGFVKTlwJZBhGaWDh4unXRutHN+FT9mfG1uQ1PrT2Uxb2MxOO/JXjcmkdqW3y8hw1OPLw9Ofasxbb/Ba7OwA/s7de/ZYB1oXMhjCnPgJ0IOg7JMj8r150xUAvn/md/rTFoLKHii2MO2l9tthcN2C4bPAFD4f3uIX9Dhft4jAu1ZjLZRQebvVPvt0hUATIOKBT2Pe/3TpJpgE4VZUCmINhLIf4bLJnArWVFTP138g2v+vg82fcM77iTH6ij54BebVurAFFrru19tVem9Nn8nOjmSfrRmm9tK7wu/Lb/J/73Oe2ufMS0L9r4U7BbxesU48Ivo2I586ADxc4v4x0oJBnly9x9niBD89XcWyN5Q8MrLiMzZ7B08ZHK9PXdbxkt6X8dbiIQ5tfY5H3GY8Ymgv2tcu1vG/yGai2SgjcI0NO2lRT57rA4dMJt/bjvxG0OPfi4C95vvVXXrITvXsGLEy5t+ia99ZSMlbL+6Srt/Txm0+b2z8Gwr63+h4j+sdzYaxhBw5f/RzYrx7FwJfNQlfVh9NG3RnfVNjhhx1Uv/Gx82aU/Ii5cYmli7hxKVF3NOQqXlVf2X2HYIA927lD4JQzhWJB5GQT7PxhpxI2HhsFEeaNoMd8iIcsef1iKN76J3r3DJhjdwkzl666qs078z+th59zEg8uPd8WdCX0LybZ8Hw5GBS+VXcFNoF//t/dg4ucuxPr21psI1nnYsLrLgPvuuLAsS/SRfHEJxa23+hSjvhS5VYMPjY1fsWYtGHlAk47eTGK++LHTSmiBBJG2T8s4Z9hd2LmrCDQ6wqHEsNepTZaO9mTptPHXqzxovnXp7vyk5/o7TIgf1UaNo81gdqUrY05T1meepOn3bqx2f2S0eLXtqFRC97tu/WreqSwKRwa7JKJAU4MDgB2YK1z2OLL9x7t/Zp/At1XkdlKXxz6b3QpT1F+HZIek4yxYqzyZozmYF3f9PEOD3fnSZaIqlPGbYdnsAwbLCV1PV1yPCmMKjHszrL2p+xJtteB51cCjKdxlFB4pf6TjOVFs9U6kfPyLQeu0p7hbUKycr7mfZ278seW4gLFjouXtWojeIxgs80OY57bEGx2GEycjdLVHfa282/9sGmN01fmmtoYb/Af/lQxOxTdDYlFnvGNx5jxVDxjxyv30e23DCUYswkyQKeMf3xS0nsWMzY4RjNybLwFw6aEw+frmM6T5E9ffFf5KDYUbmKfZAwvsi35thjbeC1Qd53480LRHKD0lHjlcM4fGbuu9tpd/fEU9s2tw6I48LPNN7lCv0NK36axXtm4rrDFhko/22KY9q+z8SRkjbW7E+9J8IpHfPoOTMV4ZwmHtx0IGEDorE5dA/N/0Lstc6KokqWshqeT2gUmyU0WPe3b6GfnUegcKP3GJibjcPVYMW90TI8yjmdVRy7lF5VrVe6tp67I1sGcgzX/1/VtAOsqP2zmwycJNkJXQesYLmy0Dd3aEE/ro/V6LP9092LnM3/HdJ8UvzEZt8cFj0cu3mIQP2o8cB2e2mJXZvz6V37tWFKiPYfNxwZJ56iEXjcwOI4FhJq8yhpI/CdN+Slp+RSPBIpJjPHhKunVP9FHy0BrxcKUb3n3caCXf2Sq0hxML3iTv86jtWguw7HNns3oij3t852tqZMuv9nXtlbpXFfSDccvnjjejFK8qDF5qemfhncnIMdiEZsKI19KcRejPrmy7dAmBdOgVAlhwJ2B34Y7fUwipxwKgKOpO9s5LiCy7PKDLxD8AsJXC1j7ugJX2cNOW/lDLU7j6IA6ppvtE93PgLw15/KqzDkhw7dB2qy+KCT/1lYbCFWsKTrNRzY34fizyutnA51raqheNOlMvQTxxHjXMnWM5XFLuSimuS+KH49fB6A8+tJVh2H5E4tHJ3JtVTv7+uzoX/ybioLPIUEKXvz4WMcXP9yKuE3z4sItGUNKARckypbATLw+HXg2BGcQBagNw686bW6dI3/yTzx1JULlW7xiyaf3ISWPz1N59AzIX4suKzOnDgFzrJh/c+RxQXEYN9cbY/yZNgb7hWvu5XbNjbWMZy+4ULtoW/N49O0t8+DCrsDJ/dw77XvyKwcCBqGJMpGqjd83wfzvzR4jBIEqHM8g6+dEUPEE5uWPl5U2qD6cANFwxbE5uOZPh02JQ/Mrdvb4UfhyGLgzwE9+jfmT6BYZaM7kfS14Fp67S2vKl4i8pLY4zQtehwI7SvZWWy9iXy728lou5Na6VhwC7373ux/aR138HBYOh0r5br/gaz90ICSwYRQT5nNa/6yUO4V3vetd2wQ7KGzkJhBtcjfF868vt+ltXhvW4jAQh4yXlh0YczOnfxOlw6c4lGxpGxwZKikOIocBnrHBnsrjZUBuW1gstRbwVfPiWdacW5D+YxV573sB5iHs1H+8qJ4f7ZnbOar4Nrj8+c6Ei6yvc7sTU2DI1e4OtO1DtD1APzydy7d8G/vwx6Zpo7kTMIEc+k8u3va2t12c+m5PGGSoOo23YfG0VXiHhI+e6LhSCDKMwwKGf3KloLfO8mf6JSp2bf4kS2WXjC18etfZXdycujsZaH6I1nmQWwvPYeBg8Kjg/YGLgPk2Fx0Imc7eaW7KyCGv9eS0PFvD1rQcq+9973s3GV7F4SDX3R3Qr8LUzibele8hZAjQZLkLsHm1fU30U5/61HYovP3tb794j2Cy4Rltw2sXGJmSzELQdotjkVggDha+5mZOp5jQbMWDbzBkydmXJAeBuwJtWEVcdNLN1onePQPyqMi79joHDgO5tyD/+q//ept3FxY468YcpDvtZPfuET1fGuWm3KKq9a0q1rdPFnz3oPcJ8mrf2mPeAVbk3Pp3SHTnTjbz/dAdQpPKaJOGuu3oLqH/JcczOR4H02hO2BA4mbZSn018i0Z1IDgYLB4xCDydTXH5A1NSwulLCnuohDjM8mVxKnSVNeaNefpz6wzIn1yi5bJ5seDMg/x7Ie2R0wtl8+yuEN+8NRd785HNWwf0HALLQTm2xqvWs3z6/yrtl/ZD+0Ce1dZ9Oc7mmi5z8dA7hMCEnHhcQE2ur0Q66b/whS+cve9979t4HNpwOWuCUbbmZhUofhh9cjgnnU3cLQ67DodZ0pu8dOmrDoES00Egfrr5KtbGOu2d2nfLgLzKo1rbAjSXDgUL9jOf+cwmN5/mAG8tU7/2innR+u0X4y7HeFXr3WHgQuriDGPNa8u9Azhdc2Ne5N8eaW+sOd0OhCaAkpoRSimbTG0/dPr85z9/5gcdAvGyjg65jZctAbkKrKWBxddX2NDmQ1W6iohDLTYJgTVAbX6nb4NWySr5OdaPf6K3z0CLyzzJ76y+zGZBfvazn92+x+KR0yHf3SSannkyt+awYm6b73jPG5WvvTHGkxfrvnWOP9e7RwUHggNA7syHfedR2aFrT848slVhpz3S3kA3BEfVFFAKJo4TxjhxCHgh6H3Cr/zKr2yLQEBhvcjwIhJekA0uuznXX2VhUDh+lQ6I+NEOnGxmz2DjbQZOf96QDJgX68Oia7Hh+ReKHAbWySc+8YltzVg7sBZpB72gmrM1wGP8Ffc89BurNVs1rjZsY7SfrG14e8zXANwlhNNObp92kLBJJ9uoEp+MHvuXR8aRZ2oT7WSnkJKPIT02uFN45zvfuZ1QJpwcVmE8x3PAm/D8T/LJm20DhQkXZU/twMk+GiY67Z3aTzYDzYHF6fC2AC1KfPTjH//4dpi7kjkMrBHzom1uFf3mDY23NV6AP3OdzrahzwNAbsuZPenxXT59rGvPtRf0vWBU6Kw2Z0rt1y6q+LAXB8KeogmiZALR7hQ49E7B+wQvGz1G+EgJFRxcwbOrNtlN/gxsto/Fkf512FV37U/dU/vxM2AxWYg2vzViTaiuTh/72Me27x24pXVXYF2ozePeOnjR5qsc2FvKzI2+feSwlVO5hrOvfD3ZvvNoIKcdwu7Ue8l/02GQv3zrO2guDgSMtQC4BewWz6Rroz5pEMAnP/nJ7aNDp5VvoblVtAAEzplJzuk8JFZfe/30StxcMNrZoztl+iV3z+6J92Qy4DAwB6hvIVqgXkJ7b/DpT396+8jLgrZorY95t2kdmbPm9slE9OxZkYO5duWjfSNfPYLb4GQdBl7aljt4OHYcFA6I8pt9FF5V6qMVsiu/dkyAEprsqr7JdQJZANpuW7xB/pM/+ZOz3/iN39icWBR0OjymQ+36aMFNv7OdPJ0p42MeGFOmvaezYk79x8uARWehupL1lXQfL/7pn/7ptiDdSXZnYL7gzalq7vBusw4eL8qnV9vYW6etdXmpyo+91n7zIt/jl80PI5/a8m8eyNC75DW/4mDzoTuEOUEAjCtOKzIHAr7Cua8yuxp89KMf3V4yOp1cLdw2OjRaAPANflPe6cePho8WPIqn1k625yd7J/pkM2AdWJDm2x2Ai8Ef/dEfbQvYN1qtGevAxUG7hWohz9L8Tt6L1m49y2ltG90V3126ryW7K3fwtiftNRjy/vUpdw7y6xCxJ6ryuea5vZM/mO1jxzbTqsDonETOFY8EZAIh71BgxycPAvVyoyBhpnM28rkZvOWf4msA2aTeIfWotm8Zwgk2MuAgMNceEyzUP/zDP9wOhf4JL99CNVcuDA4Mc6TtQuKAmHM2zL4wzbkH5EKVL3ybWq7w3vOe92wXYntKkT84e9D7BS/57TH7EZ5ue0R77hN8JT8oHQX24qvLBG1+QkbqZ2QaF6zT30dLFoSgfeogqA996EObQx8/kamKAbDB7ry1yd8GuuWfmcxH0b+lm+ca1ryWv3KKnwxPrW/+XBjcDbg7cMfo3dGHP/zhbS24M7A2HAYOAW06Fp157yLTInyWE1xOyt86FvJyOnMYjlyVi/IhRw5LOZND7wzkUL4V8h4Z8LyzgzcnHbTZZyMfeMUQz1w0L7DKxSNDgWeMUiWZYLTdAjKkLYjkgvc1VbeN7hQsCKeaAbhb8DwpiHRKQn7QgkX5O5U3LgPNWzmfnqasTWzRuCOwEB387hTdJfzBH/zB9oLZb1xgLGAHhfnuXVJrh4/85WP6fZbae/EbWyX5us7jtyHh8eRIzhwEqk/tbHQv7+WVHXnnwx2ZdzR0Ogyyw1b4fEUnJp947ed7X/rSl7YRcALQZLUZ5wAbGJ4gbHTB4vuhko3uAHCn4O7hgx/84LZoyA0er1tHvvAEXrBwbPOt5k/Ap/LkMyC/cl/+pwc8cvPQmrAYza++uz7z7M4AzuK1iD3zmuPuDnp/kI8oG7Wn32epbQzKsXGUXzkMY813EMRzhXeIOgxQV30XUHsMlh9t1J5zKJPTs+dUhZ8KrMpHfsjiTVxt9N6rr776YCrXbiFsoPOPKgxQgRFoAbtKWCwCdXK5grzyyivbQvn5n//57SfTZEoLhn2VzQYdD65kbkpH/ojjVI5nYC6EPdSUN+8zp+ZDMRceDc2h+fPiyqdLvmvgEPAM6wBwx+DQt6i1HfZVdvKH8lN/L7ZnjddYZv4ap/xVywOZ/MpTd1JyZ6PLmY1vf8HYH4q9ZfPLt4PW+4PyOOcqH5vSed6LKzpl2vGvPRAMQhGgUl9bkAYlcAtEoAJ2BXE4qP5bLYfDO97xjrMPfOADGx6mW0qUbYMpYQXGR4PcnJ/+PPEMlGvUXKoKimeOzas5xbNg/SM5H/nIR7a5tXi9/TaPDgbUQsWn7wpmDpvHaZ+f/D/xgb1JBhuPcVTnuBpfMlRO5EiVM8Xdltt/sg4CbfYdwvaGfWOv+KRB377SLwZ22p/lPL+bk/EnPt2pD7J7IBAwOm9F9DnMgHYnl0HoO7EE6mRz12BQ/mde/0irQb///e/ffhTFriopTkhXF/YLVJuf7I+xnJpPKAPlF5VvVTGP3fl1RTJH5sbvV3wRzdz5D1HcLSgOCovbewNzSq7dWonCzvam/Az/kRMl2lAao1zatHLSQeBuQNW37uXJQSpn8k5HQeN5LPcYIc8OZ3w6MHy1b9B8a7en2MOfshnz1NsOBIYnkwEDsSHj5zjjdGCcYAbsUOhgsJDcNQieXNs7BoeEF49+Oi0R+C1GNiRIshSDbpFujNOfO2dgTnqLYRopv3Dm04Ls7k7+zZG+r6X7mrp/Mcs8uZo5JBwC0RY+HRhrB68Y9vzPWJ7F9hyTttp6RuUBLTc2cbUDQp46gOWAjXj2kT3h4DUf9gubCgzsXn7NJTkfFdhZ0oNVWgu7B8IcGMMVyhlm0EAMEBWwImh3CnjuFhwI9Z107hYU33H3w6iSxg+b+pKASuR1pUFdh3mRZc3VmoP45tO8mSsbH1Waf9869CM2B4HiILA4HQKqeVLrW1R0LcRsbIrnf/Ce1zkzNtWaVbVd3DoMrGcVX97Lffmpbw5UfYerQ9ceUunLH1mbXRsv/7XNRYdGPshUJTx97fbavS9+8YvbS8WUJhgwA8nxKskYndXicjA0EAdDz0Z4XlD1XOrrlr7I4kUJ23QVAy65sw0zYygWdOWLaZZVPmWP0m78T9ruo8SypyO+GZu+ReIQQM0RKk/l2mL0bxmoDm+L0ML0yNcdQW2HgUWPNkcWYgfDXkyTJ7ZyOPm3bU/9xpm9ZPHZTKY9+cf83YSXt+ygc+z6coqyM/eH/qxk1r0K30H7ja8dDgZY/Mbw4N4hfvxK8mISy9nrlwcA3OtnV/vimzbO7t87fA+BsQwGQKur0/o5r8+GQDq99C0ofQunU07fInNQeJSw8Fx5PE54aSIhSgkqNrx8TD/5f9Fpc1ee5GoeAOTmrHltE8O7PXUIOKgd3vT6R026UnUn4GAwR+4Ozas5trjMCZ9zvq6bE7gZ803YPXn6+Zz92Z66x/gTo30djmz1iZcOKoeonNeedvHtCetc/sopu6tOsW32zn1rl3NtRV+bv5fuHdr4bBbvtFUbpXfvlVdeeTDBmBkPtAHPDU6jgk5Xu6KtugLRNWCPDSqe6ipVMvB7vLBIvUBRvbiy2Cw6/HwXX48p+Y0mDx//eaWNd47P2Jsfi6384bkLkDs59xjn3U7fJ5FrdwA2v7ZFOh8P9NXmZdrmv/UwY7lru/HcZv5W7No/5hvuJvvX2UrWmPMTH60dptyXf/7l0cGKwpOpsC/fPzwyd0cAjz/tyr8STx/G/GrHp6vWnzqbgfM/24EABFxJWX8GMPmrznSUHl0nlQE6FFSHgStQ7WQomcPB4tR22kmWBdqb7K5IYrEw98ocS/I1Pvxwq+wYP1vX0XRhVrur3l2wq+5NfbZn/uXTASz3qHxrwzks2vTy25VffrU7HKbMYlPNkVphr3HdNP503mi6Fw/e48aXXfGzlb3a8mJjyrV9AI9n88tdh0DzBKsNs23m184vsvev5nT6Kfd47Deu7Q7h/ECIX5z1YSrZvPj5cwI0hZxM2WznPGP6SnoGVdFuQVlkFuhcpBYlvttRn2MLNozbWS+4JIsdWPWmUjzhirN+8mP8cLelj2vnrvo34S1EGHlTFWOWOwvJhtduXrTLLx6MSic7Fm128Ksbc6wd/XwmWynd68o6vhWb/oqb/OKDCTd52UxWH5129viTt+rTxSuf1nWbN9sO5vTgW9PxPNNXLngjLjL8OZ6t/+Ds4nEhWXaiK19fufhXl2MwmPO9CS0Agwsbj8HVTguKrYLA61CQqO4WOgD0LTxXJnoOh1k7cfGKle/Z3kZ35E+4Yp26k3dE/Q1lFxsnjxpLeja8XFuUaO02vvwq5N26mhe1gwJfTSdb+YiyI/b6s705ueZPOitk5iLZ5BlPJf60Ndcc3B5m1a+PZiu9ZNfxyapylS5q3bZ2p/3GYT0rzRPs9MVGttPHm/xtzzoQ/FsVrz/8tYGw6aN4lSs/f46ZE/0C0p6Ksz+DTBevgcI2OXidhPjaqkVnAc9bLI8P9PDa/OzjoQY94zgW3wYaf8LtjW3yhsqdmnv2b2sgXfibYjmGTU+utVXtci/XcofvTkDe46F4zUs6+tnN3oxxxoJvjujepWT/mM7qY+KTTd7qf8rgZ5/PbBzzv/LTp5cuauyKR7LaYfHlvrVLrpKLl7617jAIk1+YaQd249nP53t6e5F4doiBbPtk4ezBmet/9xvF+JCtB+f/c1MO0Qmqj5eRsBOnHQZOXQu5ARq0BMC4O9CWAJu+jR/1dpssOVoCUbi7lDWuYt6zcZ0sPIyy2k1+E03/UW3kd9qZbbnWR6stRv02fvOSjA7b5bp2cWYTXzs8GobubUt6K37lN96Jy3cy/Xhw+MVZPhqX/l7JVnrX2SRTotrpy2ftfOtXbfp0w+nDqnjTblg0G5vd4TO9eaw78AAAC49JREFUr7/2jbO3vuWtZ689OBw4m82zw7ymy05l8+Or1QU9AyoIG3BzOAZdkGGicwEUFH32YbKvnc9oOFenNj28docD+3joxDSg7NcvLnztYihOMbIzx5eNVXfyk7FDVyEPo59N9pV0wkbh0oNRG+emeG4r/MTiwa+8sGTFhxYTvrx3xdeeFY4MZRu+mk99ZY4Pb8bC5lrSm7j0Grd+uFX/WH/qpFv8dPJXG0Z8YZJnR1/NVnL4bEx5eii+sVT5iUeXDTi5k+cKzLSprUw+3fKkXd/3DYph4mHdFlzENS7UeNnXZsttxsttCoyM4Wk3qfEZyBBntTfL538mj75+vNluYNQkBhZP5R9dDwhxhKGnreDvFf6S5TudFV+M8emlg7enN+VTT3u1l3xSNtf49POdHbZWvv7Fgjji7zDJh1iKFZXr5gamGqb+jKO4i0Mfjs4syVE+9god8taePlt4Fe3VNowSLppOsuxnIzsTPzGr/uzDhY2/8tjN12xPfLHTVbI5+6vdcsJm60976tfemCM3988fEMInn5T9aVdk2xEVM3CBFXTy+Nc5yQaMBYFW6VdqR/HD85dPNH/ZmX169bM9aXaKfeJLSPpNWn5WnXDFHI2f3/p78niw2mHTjb/KwqWvv2Lqh4lOm3jGGa0NM32QT/0p11aSp3fOvkKOyfCr2YmmE43PcLzpf+VPTLjJY091IF1ne+qsPujJXRi09lxH9Cr5DRddY8hW8vTXPv6me76tXj8/LBwGYtC/3HFZuaT5vbDrk44GdcHMyXny8dUGUxATP9tw9Sed7TDRyxAPA3QwqDYzWmGjA4JuJdv1o/jJJj55/js05GLy0omutspdMbEbVju59tSFIctvchiy5BZsMjQZHN0O0GyHicInSzcZ2njJlLBbZ/STR6c8neyHwU828eTx818fTT8ddMpnPyxae8qzkX79MOmge5iJW+X61/k1NvMXLlvFkO/6U05HnQcWPJvhyGdZ+1N2rN26nbrbpww5okhYnQPWxo8ec5JxuErtZPjxwuzR4gqbf3112tvTTz71V99hVr7+lK1yMo86aIndw0zfsPrGhe4dCGwk7zCkl2726Jaf5PkPoz/L5NPJz8TMdj4nTzs7ydFKsnBTFg9m5a/9PUw+Vkp39QuDn13ybE5etqZ+epM329k2Byt/yvbmJ38oebFMPpvqa1//xtl9d9nn7wHwwkfzl/6GMfbxuwW8vTJtJN8eGfYEjGRoc3I+6XMRMxJuz0a8MPDxak8f8WBa8FOenegaC/1Z2Amrne/Jm/ja5JX0Vl59tInXzkc0XPYmTQ8vvHY60eT6Kmyy6J7+xCVf9Wc8+SkG2OxPXLaKX3/WsOmGz3fydUNNf+mERbOX35vmf+qyl/1iZWfPz6pXP//10exqk2dv8vfwYcOnH5ZcfJvPe5eHG3w62UjnGD0WSz6zA7d9U3FNLMAWyLJQM5DjGRiefs7pT7vTZvr5qD9psnxkf2LyNXm1Vz39iZ+xpRNNVwy1V0o2b+nohslOC1e/8SQLP/na9Ytv8qZ9fJjwqz1Y8otFde44G9E1nuyg03a4qTfbe3rk1fT36OrntjrpTXy86ecYj94sd+1PXe38ZGelE09W3dMNu9kUp1B9mmCdnQuzHxaNt+mdf/qAv+ldXuc2XOszHXciL7eo5mAA4k9nMOHwVwy9KdfO2dSNN+nUzcbUJ6+utsIXa3bXAcPhJQ+/0vykT776WO2kkw9Ufqav7K386Z/e1Jl+a09aOxv68VA+0eKbuJU3ZbUnnXHhG8deKYbkxQN7rM32jFN/5rhY05/49NiPP9tTJzleB3ryVScsvqKvhNevxtsA59jw8cLEr4/Whs1mdNU/O4+DfOqGn7bSvS3d3iEw5Hl1GtLGVyZ/Gg5TYCawRXBY/K5gBni5eLKVTv02if69ewZK5/KjK3KynqtN5sHHZQLJW0QHfC8kO1ObVBv1cPU8jPH81uxiQckF7OX3FK6O6zCefJWnGQ/87MM0hsMYD8d1uniKcVXwply7PtvFBB8/XfSltxy+XfjgtcOnNr2EfP0b52/XO8DvX/rZ7Jz/mObB+Hw7u9NP4ycrVvLGqQ2TDD9Z8ZOp2co+3izTDgx5tia2dr5h1o1PlrzYo9NmtopDX6ULpxYXDH7lMJ7LMUxbtQ++elGYPh/n3zF4cPgtyr2X7p/dv3eYbz6KYX6PgS2FX3cSNt29lw7vuKzjbROeh3fYX/J3+C8U7t077H152h4ZCpCzBhWvAUYPgzgM9DDoyySkO+3QawDZWCn5HmaPl49t4MMQrJK8dvxJJbz+wcTBvzb+gweX8YSLHvCXh2T8SYshSpY8/WT1Ubz44fW1o+HMwzzE0yMPfzFXwwb5mju8yuZ3bMbsRsPt0WJOVhxTFy/cbIs1HJosXjbR9JOh6UxafuLR055FP/m0rT35qx5b2c/env1kk2areag/MfJBPvNCzoeqdNCll+ze+QG/fey44S/X+8HXIdf5dXGsXBwIhAFyGCiaPBquPtzk2Xj7Bd/EmCCIQ0Dpnp0d9O7fP1wFVrv6ksUvHXWN4Tp59iR7LQc7l/Zg8gFLnt/pMzvJkzWmaDbQ4k4WTTZtTlk+WlDhph786w8OE+9z6a1/Ppb7y+G5xmpK8Lq+zTztxTH9P2Rr5GvVrd949nT3bG+xnc87G+nFn3mYsmzFO6ZLHmbq4NGpJps0mwfslFw9iA6Sy9j1L8/hc+y2xrfJ2OD5z+pcm1dkckLNncIVuwdN2Cv4c4Niv/iUwWkD1CLT3isNmCzDGSerJJv4ZNFLH1d9XfIPPuDzEZ02pt/4B7/pHxJwqXt5EOQrG/XZcWulr3bAzH6+VhqmsUfDJdfXVmCKob4JT76BBl6/BZFsj8Lc7x/auBjL4Tse2RbB9I1Pzw9lZinGC72xRlaePvzKn374qIRLnm787K14/XTWtjWtZGPispds4jalG/7Qm/FP26k2hvrTF159FLY6+VM3fnbDT0x2D9jD/GmnGxalf8Bfci9+/rwq6M9NMA0cjFw6yXCYAijw8IcrvyAOuul1i96dAn2ybomyx04HVpOdz0sfWodysM/XZfIPksOtmFu+3tnOWIvjcAezv7CLMV/6s4jTgrlqd43j0M9W+WZnLrbs4oVld2Lih92oPI6xh9l+AecdTYfR+R3Eha4ri/rSZbz8qRW2blOu01ltrNhVXvz8rrIZC9nEsruHD5MsusbBNl7zEy6aff1VN8xtYs5OWLpqaz5bUfypM3NwiNkc7c0TPTm8qsHuxR1CxueArsIPPUpV2ImPHz0EtT8Z18mmzdlOJx4/SnTrnPfDxEPxmtSSPHG12dMOn278bM7+jCE7cJOfXvbykZ2waLx0ktWfscWbdOJr52/i9njk+FMvHbzq1F2x9dOLdkjSrcw2Xvabo3gr7ph+fJQOe6vu7IdZ9fTXcYTF34tv+poH9rSdzWMxTDlMuGi2wqG1J2aPtzcmvPxcfMpgcBnL0Dqg+BkosD0n2ZqYvXY20cOpdTl5Jbxgp00yOsUYJnv6B5uXC2+Nk3zi9+T5nLipN8cUJl669ZPH19eu5l+/8a06e7YmZs92dsvn9Lva25NNzPQV/xjNFrl2uuHFGr+4V9kxPhxZ8mxPXn4nnfiw6U6beMnjr3bIpy75zLF+Jb/6tdOtTxYvPf2HeK7u51ir++oKf9j+qp/t/CbX376HEKCAAnSar4tTn/K8baejJiPPzmxPX7XDdXujT0dpw/dGN5+H2/2DhYmfNrM7bdWeuJU3ZbM9/cz2XAT5TG/a1k6u7afd6Kofz9jzg1fBy040WTQbaDnThmc3n/DTXvpTvmLYUZubdG6i+Q83Y9fObrjkK00fTVYs2Yivf6wkg13x+nIQP1/69MianzB4ZGHym5/6KF7zv/KTo2zxs9rFb468JC6GfEXTn/IZJ34V//8Dn3bbxTCfkksAAAAASUVORK5CYII=;" vertex="1" parent="1">
          <mxGeometry x="386" y="300" width="100" height="48" as="geometry"/>
        </mxCell>
        <mxCell id="UkXh3p3jf4EQIE3FmK1C-6" value="" style="shape=image;html=1;verticalAlign=top;verticalLabelPosition=bottom;labelBackgroundColor=#ffffff;imageAspect=0;aspect=fixed;image=https://cdn3.iconfinder.com/data/icons/tango-icon-library/48/system-users-128.png" vertex="1" parent="1">
          <mxGeometry x="610.5" y="213.5" width="61" height="61" as="geometry"/>
        </mxCell>
        <mxCell id="UkXh3p3jf4EQIE3FmK1C-7" value="" style="shape=image;html=1;verticalAlign=top;verticalLabelPosition=bottom;labelBackgroundColor=#ffffff;imageAspect=0;aspect=fixed;image=https://cdn3.iconfinder.com/data/icons/tango-icon-library/48/system-users-128.png" vertex="1" parent="1">
          <mxGeometry x="603.5" y="290" width="68" height="68" as="geometry"/>
        </mxCell>
      </root>
    </mxGraphModel>
  </diagram>
  <diagram id="9izLMl2EECfJDezQfhoP" name="Global Traffic">
    <mxGraphModel dx="417" dy="207" grid="1" gridSize="10" guides="1" tooltips="1" connect="1" arrows="1" fold="1" page="1" pageScale="1" pageWidth="850" pageHeight="1100" math="0" shadow="0">
      <root>
        <mxCell id="y-jO-gc_XpK8Hn9j_nbG-0"/>
        <mxCell id="y-jO-gc_XpK8Hn9j_nbG-1" parent="y-jO-gc_XpK8Hn9j_nbG-0"/>
        <mxCell id="y-jO-gc_XpK8Hn9j_nbG-16" value="Asia Region" style="points=[[0,0],[0.25,0],[0.5,0],[0.75,0],[1,0],[1,0.25],[1,0.5],[1,0.75],[1,1],[0.75,1],[0.5,1],[0.25,1],[0,1],[0,0.75],[0,0.5],[0,0.25]];outlineConnect=0;gradientColor=none;html=1;whiteSpace=wrap;fontSize=12;fontStyle=0;shape=mxgraph.aws4.group;grIcon=mxgraph.aws4.group_region;strokeColor=#FFBE0A;fillColor=none;verticalAlign=top;align=left;spacingLeft=30;fontColor=#147EBA;dashed=0;" vertex="1" parent="y-jO-gc_XpK8Hn9j_nbG-1">
          <mxGeometry x="495" y="410" width="130" height="130" as="geometry"/>
        </mxCell>
        <mxCell id="y-jO-gc_XpK8Hn9j_nbG-14" value="Europe Region" style="points=[[0,0],[0.25,0],[0.5,0],[0.75,0],[1,0],[1,0.25],[1,0.5],[1,0.75],[1,1],[0.75,1],[0.5,1],[0.25,1],[0,1],[0,0.75],[0,0.5],[0,0.25]];outlineConnect=0;gradientColor=none;html=1;whiteSpace=wrap;fontSize=12;fontStyle=0;shape=mxgraph.aws4.group;grIcon=mxgraph.aws4.group_region;strokeColor=#FFBE0A;fillColor=none;verticalAlign=top;align=left;spacingLeft=30;fontColor=#147EBA;dashed=0;" vertex="1" parent="y-jO-gc_XpK8Hn9j_nbG-1">
          <mxGeometry x="317" y="410" width="130" height="130" as="geometry"/>
        </mxCell>
        <mxCell id="y-jO-gc_XpK8Hn9j_nbG-13" value="US Region" style="points=[[0,0],[0.25,0],[0.5,0],[0.75,0],[1,0],[1,0.25],[1,0.5],[1,0.75],[1,1],[0.75,1],[0.5,1],[0.25,1],[0,1],[0,0.75],[0,0.5],[0,0.25]];outlineConnect=0;gradientColor=none;html=1;whiteSpace=wrap;fontSize=12;fontStyle=0;shape=mxgraph.aws4.group;grIcon=mxgraph.aws4.group_region;strokeColor=#FFBE0A;fillColor=none;verticalAlign=top;align=left;spacingLeft=30;fontColor=#147EBA;dashed=0;" vertex="1" parent="y-jO-gc_XpK8Hn9j_nbG-1">
          <mxGeometry x="135" y="410" width="130" height="130" as="geometry"/>
        </mxCell>
        <mxCell id="y-jO-gc_XpK8Hn9j_nbG-18" style="edgeStyle=orthogonalEdgeStyle;rounded=0;orthogonalLoop=1;jettySize=auto;html=1;exitX=0.29;exitY=0.5;exitDx=0;exitDy=0;exitPerimeter=0;entryX=0.5;entryY=0;entryDx=0;entryDy=0;fillColor=#f0a30a;strokeColor=#BD7000;" edge="1" parent="y-jO-gc_XpK8Hn9j_nbG-1" source="y-jO-gc_XpK8Hn9j_nbG-2" target="y-jO-gc_XpK8Hn9j_nbG-10">
          <mxGeometry relative="1" as="geometry"/>
        </mxCell>
        <mxCell id="y-jO-gc_XpK8Hn9j_nbG-19" style="rounded=0;orthogonalLoop=1;jettySize=auto;html=1;exitX=0.5;exitY=1;exitDx=0;exitDy=0;exitPerimeter=0;entryX=0.577;entryY=0;entryDx=0;entryDy=0;entryPerimeter=0;fillColor=#60a917;strokeColor=#2D7600;" edge="1" parent="y-jO-gc_XpK8Hn9j_nbG-1" target="y-jO-gc_XpK8Hn9j_nbG-14">
          <mxGeometry relative="1" as="geometry">
            <mxPoint x="392" y="340" as="sourcePoint"/>
            <mxPoint x="384" y="410" as="targetPoint"/>
          </mxGeometry>
        </mxCell>
        <mxCell id="y-jO-gc_XpK8Hn9j_nbG-20" style="edgeStyle=orthogonalEdgeStyle;rounded=0;orthogonalLoop=1;jettySize=auto;html=1;exitX=1;exitY=0.5;exitDx=0;exitDy=0;exitPerimeter=0;entryX=0.5;entryY=0;entryDx=0;entryDy=0;fillColor=#6a00ff;strokeColor=#3700CC;" edge="1" parent="y-jO-gc_XpK8Hn9j_nbG-1" source="y-jO-gc_XpK8Hn9j_nbG-2" target="y-jO-gc_XpK8Hn9j_nbG-16">
          <mxGeometry relative="1" as="geometry"/>
        </mxCell>
        <mxCell id="y-jO-gc_XpK8Hn9j_nbG-2" value="" style="outlineConnect=0;dashed=0;verticalLabelPosition=bottom;verticalAlign=top;align=center;html=1;shape=mxgraph.aws3.route_53;fillColor=#F58536;gradientColor=none;" vertex="1" parent="y-jO-gc_XpK8Hn9j_nbG-1">
          <mxGeometry x="363" y="270" width="50" height="70" as="geometry"/>
        </mxCell>
        <mxCell id="y-jO-gc_XpK8Hn9j_nbG-17" style="edgeStyle=orthogonalEdgeStyle;rounded=0;orthogonalLoop=1;jettySize=auto;html=1;exitX=0.6;exitY=1;exitDx=0;exitDy=0;exitPerimeter=0;entryX=0.5;entryY=0;entryDx=0;entryDy=0;entryPerimeter=0;" edge="1" parent="y-jO-gc_XpK8Hn9j_nbG-1" source="y-jO-gc_XpK8Hn9j_nbG-3" target="y-jO-gc_XpK8Hn9j_nbG-2">
          <mxGeometry relative="1" as="geometry"/>
        </mxCell>
        <mxCell id="y-jO-gc_XpK8Hn9j_nbG-3" value="" style="outlineConnect=0;dashed=0;verticalLabelPosition=bottom;verticalAlign=top;align=center;html=1;shape=mxgraph.aws3.internet;fillColor=#647687;strokeColor=#314354;fontColor=#ffffff;" vertex="1" parent="y-jO-gc_XpK8Hn9j_nbG-1">
          <mxGeometry x="341" y="150" width="79.5" height="79.5" as="geometry"/>
        </mxCell>
        <mxCell id="y-jO-gc_XpK8Hn9j_nbG-7" style="edgeStyle=orthogonalEdgeStyle;rounded=0;orthogonalLoop=1;jettySize=auto;html=1;exitX=0.5;exitY=1;exitDx=0;exitDy=0;entryX=0;entryY=0.47;entryDx=0;entryDy=0;entryPerimeter=0;fillColor=#f0a30a;strokeColor=#BD7000;" edge="1" parent="y-jO-gc_XpK8Hn9j_nbG-1" source="y-jO-gc_XpK8Hn9j_nbG-21" target="y-jO-gc_XpK8Hn9j_nbG-3">
          <mxGeometry relative="1" as="geometry">
            <mxPoint x="199.70588235294122" y="90.52941176470586" as="sourcePoint"/>
          </mxGeometry>
        </mxCell>
        <mxCell id="y-jO-gc_XpK8Hn9j_nbG-8" style="rounded=0;orthogonalLoop=1;jettySize=auto;html=1;exitX=0.5;exitY=1;exitDx=0;exitDy=0;fillColor=#60a917;strokeColor=#2D7600;" edge="1" parent="y-jO-gc_XpK8Hn9j_nbG-1" source="y-jO-gc_XpK8Hn9j_nbG-22" target="y-jO-gc_XpK8Hn9j_nbG-3">
          <mxGeometry relative="1" as="geometry">
            <mxPoint x="379.7058823529412" y="90.52941176470586" as="sourcePoint"/>
          </mxGeometry>
        </mxCell>
        <mxCell id="y-jO-gc_XpK8Hn9j_nbG-9" style="edgeStyle=orthogonalEdgeStyle;rounded=0;orthogonalLoop=1;jettySize=auto;html=1;exitX=0.5;exitY=1;exitDx=0;exitDy=0;entryX=1;entryY=0.47;entryDx=0;entryDy=0;entryPerimeter=0;fillColor=#6a00ff;strokeColor=#3700CC;" edge="1" parent="y-jO-gc_XpK8Hn9j_nbG-1" source="y-jO-gc_XpK8Hn9j_nbG-23" target="y-jO-gc_XpK8Hn9j_nbG-3">
          <mxGeometry relative="1" as="geometry">
            <mxPoint x="550.2941176470588" y="90.52941176470586" as="sourcePoint"/>
          </mxGeometry>
        </mxCell>
        <mxCell id="y-jO-gc_XpK8Hn9j_nbG-10" value="" style="shape=image;verticalLabelPosition=bottom;labelBackgroundColor=#ffffff;verticalAlign=top;aspect=fixed;imageAspect=0;image=https://s.pngix.com/pngfile/s/21-210606_mobile-app-design-web-application-web-app-icon.png;" vertex="1" parent="y-jO-gc_XpK8Hn9j_nbG-1">
          <mxGeometry x="175" y="460" width="50" height="50" as="geometry"/>
        </mxCell>
        <mxCell id="y-jO-gc_XpK8Hn9j_nbG-11" value="" style="shape=image;verticalLabelPosition=bottom;labelBackgroundColor=#ffffff;verticalAlign=top;aspect=fixed;imageAspect=0;image=https://s.pngix.com/pngfile/s/21-210606_mobile-app-design-web-application-web-app-icon.png;" vertex="1" parent="y-jO-gc_XpK8Hn9j_nbG-1">
          <mxGeometry x="355" y="460" width="50" height="50" as="geometry"/>
        </mxCell>
        <mxCell id="y-jO-gc_XpK8Hn9j_nbG-12" value="" style="shape=image;verticalLabelPosition=bottom;labelBackgroundColor=#ffffff;verticalAlign=top;aspect=fixed;imageAspect=0;image=https://s.pngix.com/pngfile/s/21-210606_mobile-app-design-web-application-web-app-icon.png;" vertex="1" parent="y-jO-gc_XpK8Hn9j_nbG-1">
          <mxGeometry x="535" y="450" width="50" height="50" as="geometry"/>
        </mxCell>
        <mxCell id="y-jO-gc_XpK8Hn9j_nbG-21" value="" style="shape=image;verticalLabelPosition=bottom;labelBackgroundColor=#ffffff;verticalAlign=top;aspect=fixed;imageAspect=0;image=https://icon-library.net/images/access-icon/access-icon-19.jpg;" vertex="1" parent="y-jO-gc_XpK8Hn9j_nbG-1">
          <mxGeometry x="250" y="40" width="40" height="40" as="geometry"/>
        </mxCell>
        <mxCell id="y-jO-gc_XpK8Hn9j_nbG-22" value="" style="shape=image;verticalLabelPosition=bottom;labelBackgroundColor=#ffffff;verticalAlign=top;aspect=fixed;imageAspect=0;image=https://icon-library.net/images/access-icon/access-icon-19.jpg;" vertex="1" parent="y-jO-gc_XpK8Hn9j_nbG-1">
          <mxGeometry x="360" y="41" width="40" height="40" as="geometry"/>
        </mxCell>
        <mxCell id="y-jO-gc_XpK8Hn9j_nbG-23" value="" style="shape=image;verticalLabelPosition=bottom;labelBackgroundColor=#ffffff;verticalAlign=top;aspect=fixed;imageAspect=0;image=https://icon-library.net/images/access-icon/access-icon-19.jpg;" vertex="1" parent="y-jO-gc_XpK8Hn9j_nbG-1">
          <mxGeometry x="470" y="40" width="40" height="40" as="geometry"/>
        </mxCell>
      </root>
    </mxGraphModel>
  </diagram>
</mxfile>
